<?xml version="1.0" standalone="no"?>
<!DOCTYPE svg PUBLIC "-//W3C//DTD SVG 1.1//EN" "http://www.w3.org/Graphics/SVG/1.1/DTD/svg11.dtd" >
<svg xmlns="http://www.w3.org/2000/svg">
<metadata></metadata>
<defs>
<font id="caffbistroscriptmedium" horiz-adv-x="913" >
<font-face units-per-em="2048" ascent="1638" descent="-410" />
<missing-glyph horiz-adv-x="614" />
<glyph horiz-adv-x="0" />
<glyph unicode="&#xd;" horiz-adv-x="681" />
<glyph unicode=" "  horiz-adv-x="614" />
<glyph unicode="&#x09;" horiz-adv-x="614" />
<glyph unicode="&#xa0;" horiz-adv-x="614" />
<glyph unicode="!" horiz-adv-x="614" d="M128 1466.5q-5 36.5 9 57.5q10 16 43 22t104.5 6t88.5 2q72 4 94 -16q6 2 14 4q49 14 54 -16q-1 -7 -3 -15q-131 -573 -147 -1136q-2 -49 -57 -62q-47 -8 -58 19q-2 4 0 8l4 90q-31 225 -55 490q-27 289 -37 358q-2 16 -15 53t-23.5 68t-15.5 67.5zM228.5 34.5 q-21.5 61.5 33.5 106.5q11 8 25 4q-4 8 8 11q49 6 99 -31t44 -79t-46 -71.5t-81 -17.5q-61 16 -82.5 77.5zM262 1489q14 0 19 -10q14 12 43 22q55 16 57 -16q-2 -18 -2 -37l12 4q8 2 17 2q4 14 6 27q6 25 24 41q-109 -6 -162 -27q-8 -2 -14 -6zM311 98q-2 -14 3 -40.5 t7.5 -42t-2.5 -25.5q16 18 21.5 67t-0.5 56l-29 16l2 -2q23 -27 -2 -29z" />
<glyph unicode="&#x22;" horiz-adv-x="686" d="M145 1532q-6 31 35 63q35 27 43 -2q119 -387 88 -727q-4 -31 -63 -32q-53 -4 -51 22v6q37 317 -52 670zM473 1640q-4 35 45 64q45 27 51 -10q43 -348 35 -779q0 -31 -51 -51q-53 -20 -57 13v4q10 432 -23 759z" />
<glyph unicode="#" horiz-adv-x="1224" d="M55 457q-8 10 11 12q6 2 12 2q72 4 155 6q35 104 74 228q49 145 92 272q-18 0 -39 -2q-90 -2 -180 -8q-51 -2 -71 22q-8 10 12 12q4 2 10 3q123 8 283 10q109 317 190 514q25 59 86 78q47 14 49 -17q0 -8 -6 -20q-84 -207 -203 -555q115 -2 244 -6q68 215 131 405 q18 57 78 76q47 12 49 -21q0 -6 -2 -14q-55 -166 -139 -450q86 -4 178 -11q51 -2 72 -22q8 -8 -8 -10h-11q-55 2 -188 6q-29 0 -53 2q-29 -98 -62 -207q-45 -154 -82 -281q129 -2 273 -4q55 -2 75 -22q6 -8 -8 -11h-14q-39 0 -223 2q-63 0 -113 3q-72 -236 -119 -381 q-23 -61 -76 -50q-35 6 -36 31v8q57 203 110 392h-24q-74 0 -209 -3q-16 -2 -31 -2q-98 -293 -149 -432q-23 -61 -87 -73q-49 -8 -49 22q0 8 6 21q49 135 158 458q-49 -2 -94 -4q-51 -2 -72 21zM354 481q121 2 262 0q76 258 148 492h-31q-68 2 -174 4h-41q-37 -106 -76 -223 q-47 -150 -88 -273z" />
<glyph unicode="$" horiz-adv-x="1187" d="M96 1146q6 58 30 108.5t56 93.5q90 113 238 157q55 16 110 21q4 86 9 176q2 49 65 53q51 6 51 -16v-6q-4 -98 -8 -211q23 -2 47 -9q180 -43 236 -139q123 -215 37 -250l-23 -4q-94 313 -250 357q-25 6 -49 10q-8 -301 -8 -690q49 -27 88 -47q145 -80 237.5 -153 t131.5 -165q37 -94 -21.5 -218t-183.5 -210q-111 -78 -242 -90h-4q0 -94 2 -190q0 -45 -10 -74t-24.5 -36t-30 -10t-24.5 0t-9 -3q-14 152 -25 317q-53 10 -96 33q-123 61 -202 190t-42 240q45 133 131 174q49 23 58 -4q6 -20 -23 -55q-55 -70 -65.5 -166.5t24.5 -177.5 q37 -92 127 -154q43 -29 86 -41q-8 158 -12 328q-4 279 -2 512q-14 8 -31 14q-92 43 -191.5 106.5t-158.5 133.5q-35 37 -29 95zM209 1122q0 -51 35 -100t75 -74q51 -27 189 -90q0 47 2 92q6 220 18 529q-29 -8 -57 -21q-115 -47 -195 -143q-70 -80 -67 -193zM637 733 q-2 -356 4 -784q86 14 170 84q94 78 162 188q49 78 33 180q-18 115 -115 183q-84 61 -203 125q-27 12 -51 24z" />
<glyph unicode="%" horiz-adv-x="1683" d="M123 1118q35 90 122 151.5t183 73.5q72 8 107 -24q14 -12 -3 -14q-8 0 -22 4q-4 0 -8 -2q82 -33 121 -131q47 -115 0 -232q-45 -106 -151.5 -160.5t-199.5 -21.5q-100 37 -145 146.5t-4 209.5zM205 968.5q2 -85.5 51 -145.5q27 -35 76 -37t78 23q66 47 98 135 q23 63 34 120.5t7 110t-29 82.5q-10 12 -51 43q-63 -16 -117 -51q-72 -45 -108 -119q-41 -76 -39 -161.5zM418 -119q0 10 6 23q121 223 261 470t316.5 551t266.5 464q35 61 98 67q41 2 41 -24q-2 -11 -10 -21q-127 -231 -413 -722.5t-429 -754.5q-35 -61 -96 -73 q-43 -6 -41 20zM1036 242q-12 104 41 205.5t144 148.5q66 35 110 8q27 -16 -4 -26q-6 -3 -12 -3q-150 -109 -170 -260q-10 -92 19.5 -177t97.5 -107q76 -27 143.5 29.5t81.5 140.5q18 86 -3.5 172t-76.5 133q-23 18 -68 47q-20 14 -22 16q-4 4 4 4q6 -2 27 -6 q100 -25 175.5 -108.5t78.5 -188.5q4 -115 -81 -202.5t-194 -81.5q-104 4 -191 78.5t-100 177.5z" />
<glyph unicode="&#x26;" horiz-adv-x="1785" d="M-27 313q-27 98 9 205t122 172q150 115 328 129q-160 66 -268 160q-61 53 -69.5 149.5t42.5 180.5q63 98 207 172q172 90 326.5 110.5t257.5 -30.5q80 -37 126 -128.5t36 -187.5q-8 -80 -56.5 -153.5t-122.5 -124.5q-98 -63 -174 -47q-41 8 -20 32q8 11 28 21 q197 184 201 366q0 55 -23.5 108.5t-66.5 84.5q-41 27 -102.5 29t-122.5 -25q-133 -57 -252 -163.5t-150 -203.5q-16 -51 11.5 -114.5t87.5 -112.5q88 -76 252 -127q98 -31 120 -63q8 -10 -10 -11q-8 0 -26 4q-27 6 -52 13q-8 2 -16 2q-176 -8 -287 -78q-129 -82 -157 -223 q-31 -143 36 -264q35 -61 97.5 -106.5t136.5 -55.5q197 -29 393 65q88 41 148.5 114t87.5 157q35 117 0 166q-20 25 -33.5 52t-19 56t11 47.5t57.5 20.5q70 6 166 -26t171 -55.5t109 -2.5q10 4 48 35q111 94 133 71q14 -12 10 -55q-8 -63 -94 -80.5t-180.5 -4.5t-186.5 40 q-35 10 -76 0q-29 -6 -51 -15q25 -6 47 -28q16 -16 29 -39q53 -98 30.5 -192.5t-80 -166t-128.5 -112.5q-172 -94 -443 -109q-186 -12 -335 60q-92 43 -164 116.5t-99 165.5z" />
<glyph unicode="'" horiz-adv-x="421" d="M211 901q47 338 22 651q-2 27 41 54q45 25 50 -9q37 -336 -9 -682q-2 -29 -57 -36q-49 -7 -47 22z" />
<glyph unicode="(" horiz-adv-x="696" d="M70 469q8 373 319 932q45 76 107 94q39 10 39 -18q-3 -13 -11 -27q-156 -274 -248 -498.5t-108 -423.5q-16 -211 63 -526q98 -399 269 -494q27 -16 108 -45q12 -4 2 -4q-8 0 -28 2q-82 4 -162 52.5t-137 128.5q-76 102 -125 286q-92 332 -88 541z" />
<glyph unicode=")" horiz-adv-x="591" d="M4 -555q4 6 10 12q168 180 267 426q88 221 116 486q31 274 -6 501q-37 221 -188 461q-55 90 -47 137q6 31 39 -10q70 -98 106.5 -152.5t84.5 -144.5t73 -170q66 -209 47 -524q-14 -279 -98 -522q-94 -276 -271 -471q-61 -68 -117 -62q-35 2 -16 33z" />
<glyph unicode="*" horiz-adv-x="823" d="M102 1284q6 25 25 10q117 -82 231 -127q-6 16 -18 41q-14 39 -19.5 67t-11.5 63.5t-8 72.5t51 55q51 16 58 -12v-12q-6 -160 41 -283q31 2 55 0q27 0 83 -2t85 -4q51 0 67 -20q6 -8 -8 -11q-6 -2 -14 -2q-147 4 -238 -28q47 -94 131 -197q25 -33 6 -72q-14 -31 -34 -2 q-6 6 -42 54.5t-42 56.5t-37 51t-37 57q-4 6 -12 19q-70 -45 -131 -137q-25 -35 -76 -31q-41 4 -29 33q0 2 2 6q68 98 111 147q33 37 65 56q-121 41 -243 114q-16 8 -11 37z" />
<glyph unicode="+" horiz-adv-x="1275" d="M121 555q-4 10 8 10h10q193 -20 361 -30q6 205 16 426q2 41 53 63q45 18 49 -12v-6q-10 -252 -18 -478q319 -16 541 4q29 2 49 -18q14 -14 -10 -16q-230 -20 -580 -2q-8 -227 -10 -424q0 -39 -49 -64q-45 -23 -49 10q-2 2 -3 7q2 225 11 477q-156 10 -332 28 q-37 4 -47 25z" />
<glyph unicode="," horiz-adv-x="479" d="M133 213q25 33 80 38t107.5 -20.5t64.5 -72.5q55 -184 -141 -391q-29 -31 -72 -13q-37 16 -12 37q92 115 121 217q-4 2 -9 4q-72 43 -120 103.5t-19 97.5zM221 166q-4 -47 25 -78q27 -27 43 -45q10 59 6 109q-6 51 -29 63q-14 8 -28.5 -11.5t-16.5 -37.5z" />
<glyph unicode="-" horiz-adv-x="763" d="M160 582q-6 12 6 12q4 0 10 -2q238 -33 455 29q25 8 47 -17q14 -14 -8 -20q-231 -57 -477 -27q-25 4 -33 25z" />
<glyph unicode="." horiz-adv-x="526" d="M213 166q0 12 26.5 22.5t52 9t23.5 -19.5q-4 -74 19 -110q8 -10 12 -5q10 23 7 45.5t-13 57.5q-10 33 -10 37q0 -12 -58 2q-37 10 -34 18q2 4 6 6q59 31 116.5 2.5t79.5 -88.5q12 -39 -5 -82t-58 -47q-68 -8 -116 43.5t-48 108.5z" />
<glyph unicode="/" horiz-adv-x="698" d="M72 -184q0 6 2 14q63 301 222 831.5t208 722.5q16 68 69 95q41 20 43 -17v-12q-61 -248 -214.5 -764t-217.5 -786q-14 -68 -69 -97q-43 -23 -43 13z" />
<glyph unicode="0" horiz-adv-x="856" d="M20 293q-10 141 37 348q88 379 211 555q66 94 140 100q37 2 34 -18q0 -13 -16 -27q-162 -246 -248 -573q-51 -193 -51 -352q2 -150 36 -257.5t101 -117.5q70 -12 141.5 65.5t129.5 198.5q57 125 98 342q37 203 35 346q-4 176 -32 302t-77 134q-27 4 -135 -6 q-20 -2 -20.5 2t38.5 25q57 27 114.5 18.5t105.5 -45.5q59 -43 90 -180q29 -131 22 -299q-8 -213 -53 -412q-51 -219 -121 -325q-68 -104 -165 -159.5t-187 -39.5q-94 20 -156.5 126t-71.5 249z" />
<glyph unicode="1" horiz-adv-x="647" d="M-139 -152q-8 14 6 15h6q412 18 647 65q12 2 39 -22q18 -18 -8 -23q-256 -41 -666 -55q-14 0 -24 20zM-88 893q8 57 68 76q51 16 59 -15q2 -8 -2 -22q-18 -80 -7 -126t54 -38q104 25 201 170q37 55 65 115q0 4 2 8q37 219 41 246q8 43 62 65q39 14 49 -4q31 8 35 -20v-11 q-20 -160 -82 -295q0 -2 -2 -2q-37 -219 -57.5 -344t-46 -308t-42.5 -335q-6 -55 -63 -78q-47 -18 -53 15q-2 6 0 12q12 123 28.5 247t43 288.5t38.5 236.5q2 23 10 62q-43 -39 -94 -70q-84 -47 -180 -37q-51 8 -93 53t-34 111z" />
<glyph unicode="2" horiz-adv-x="995" d="M-16 129q4 43 38.5 85t90 91t77.5 78q174 209 292 374t192 322q37 78 24 178q-6 55 -40.5 93.5t-79.5 27.5q-90 -18 -178.5 -86.5t-143.5 -163.5q-84 -139 -137 -159q-33 -12 -27 47v10q88 184 205 272q86 66 176 99t162 14q84 -20 132 -118.5t28 -188.5 q-29 -125 -160 -307q-80 -109 -279.5 -338.5t-265.5 -343.5q-18 -33 199 -33q201 2 440 33q154 18 184 -4q8 -6 -10 -13q-8 -2 -20 -2q-317 -47 -637 -71q-47 -4 -95.5 -1t-86 12t-61 33.5t-19.5 59.5z" />
<glyph unicode="3" horiz-adv-x="1191" d="M102 186q-18 111 38.5 218.5t148.5 130.5q92 25 139 -9q25 -16 -2 -22q-10 -2 -27 0q-72 6 -124 -62.5t-66 -160.5q-14 -90 12.5 -178.5t91.5 -100.5q137 -27 295 50t281 190q78 74 106 213q31 158 -28 217q-82 84 -216.5 121.5t-279.5 29.5q-162 -10 -154 8q2 4 13 9h-2 q-25 10 24 28q2 0 6 2q80 27 118 41.5t82 41t69 57.5q70 96 94 177t-4 126q-47 66 -160 83t-211 -24q-84 -33 -126 -110.5t-34 -163.5q14 -176 -22 -166q-13 2 -31 33q-43 131 -20.5 246.5t108.5 162.5q92 53 215 58.5t221 -27.5q117 -33 162 -125q20 -41 12 -98.5 t-43 -104.5q-66 -92 -141.5 -140t-175.5 -81l-12 -4q250 6 436 -68q70 -27 126 -80t77 -122q23 -66 7.5 -149t-58.5 -136q-246 -295 -654 -340q-100 -12 -188 60.5t-103 168.5z" />
<glyph unicode="4" horiz-adv-x="1150" d="M27 500q-8 90 41 184t136 182t180 169t195.5 176.5t159.5 172.5q45 63 95 86q14 10 34 15q47 10 56 -21q2 -6 0 -14q-41 -188 -66 -397q-23 -188 -45 -486q55 4 90 6q133 6 164 -16q10 -6 -8 -10q-10 -2 -29 -4q-82 -6 -221 -15q0 -8 -2 -16q-25 -336 -35 -446 q-6 -57 -65 -82q-47 -20 -56 12q-2 6 0 14q14 143 37 449q4 31 6 61q-109 -8 -190 -14q-115 -8 -232.5 -14.5t-181 -4.5t-63.5 13zM119 518q4 -4 10 -4q39 -4 193 8q10 2 276 27q53 4 98 8q20 244 41 434q20 168 45 320q-106 -125 -266 -299q-246 -266 -342 -398 q-63 -86 -55 -96z" />
<glyph unicode="5" horiz-adv-x="1144" d="M77 954.5q-1 61.5 8 141.5t32 135q53 129 315 151q94 8 277 -10q115 -12 143 -41q8 -6 -6 -8q-10 0 -33 2q-211 23 -365.5 9.5t-201.5 -79.5q-16 -20 -26.5 -45.5t-16.5 -65.5t-9.5 -68.5t-4.5 -87t-1 -89.5q2 -27 5 -84q41 70 96 103q68 39 147.5 49t155.5 -11 q141 -39 260 -135t180 -233q37 -80 30 -180.5t-52 -184.5q-84 -156 -269 -235q-111 -47 -213 -59.5t-190 20.5q-86 37 -113.5 149.5t29.5 225.5q55 100 123 110q37 6 35 -22q0 -12 -13 -29q-47 -61 -73.5 -150.5t-20.5 -152.5q8 -61 89 -94t179 -9q84 23 162 75t131 124 q106 143 88 305q-14 121 -81.5 226.5t-170.5 173.5q-57 37 -127.5 49t-132.5 -4q-59 -14 -105 -59.5t-67 -104.5q-43 -123 -100 -162q-2 0 -2 -2q-10 -12 -25 -23q-39 -29 -51 5q-2 8 -2 18q-2 61 -7 178t-6 178.5z" />
<glyph unicode="6" horiz-adv-x="1046" d="M-59 530q8 246 82 435q102 256 303 356q121 59 246.5 68.5t222.5 -48.5q119 -80 120 -182q2 -45 -18 -49q-19 -4 -27 51q-57 137 -151 170q-119 45 -242 -6q-109 -45 -194.5 -128t-124.5 -183q-55 -139 -84 -277q-8 -29 -13 -59q86 80 201 129q141 57 303 57 q143 0 269 -127q104 -109 127 -272q25 -176 -54 -311q-41 -72 -106.5 -123t-141.5 -68q-150 -35 -307 -7t-268 122q-154 127 -143 452zM45 459q0 -145 41 -262q33 -100 152.5 -160t253 -60t231.5 91q102 94 121 215q20 133 -11.5 262t-113.5 219q-37 41 -104.5 58.5 t-139.5 4.5q-152 -25 -239 -104q-109 -100 -187 -133q-6 -66 -4 -131z" />
<glyph unicode="7" horiz-adv-x="1155" d="M-61 -154q2 8 6 17q47 86 173 318.5t189 346.5q23 39 49 86q-150 -31 -315 -45q-41 -4 -61 19q-10 12 12 16h8q207 20 387 66q41 70 88 153q106 182 201 328q88 137 180 262q-137 -37 -295 -72q-283 -61 -553 -92q-43 -4 -63 21q-8 12 14 14h6q262 31 543 92 q238 53 430 117q14 6 29 8q20 8 39 15q29 10 59 -13q23 -16 -4 -26q-23 -8 -45 -15q-4 -6 -12 -10q-207 -313 -457 -735q127 41 239 98q33 16 72 -4q29 -16 -2 -31q-162 -78 -348 -129q-205 -350 -440 -774q-35 -66 -95 -61q-37 2 -34 30z" />
<glyph unicode="8" horiz-adv-x="1157" d="M45 92q-55 160 4 328q31 86 87.5 153.5t127.5 98.5q41 16 76 22q-43 18 -76 45q-61 49 -96 121t-33 145.5t37 145.5t92 121q111 98 258 98q137 0 131 -37q0 -6 -2 -6q-133 -6 -231 -58t-148 -145q-51 -100 -22 -227q12 -55 49 -103.5t92 -76.5q51 -27 119 -34t125 7 q127 31 202.5 141.5t75.5 239.5q2 74 -21.5 137.5t-72.5 96.5q-37 23 -96 55l-37 20q2 4 43 -4q84 -14 152.5 -57t103.5 -109q37 -70 37 -152.5t-33 -160.5q-29 -70 -84 -125q-45 -45 -100 -76q2 -2 6 -4q164 -90 223 -217q37 -80 41 -167t-28 -165q-68 -139 -201 -231 t-295 -113q-135 -18 -291 58q-74 37 -131 98t-84 137zM129 236q-2 -152 68 -256q37 -55 96 -94.5t129 -43.5q141 -10 266 50.5t203 166.5q74 102 76 258q2 158 -84 252q-74 82 -103 115q-113 -53 -270 -33q-47 6 -88 17q-9 -2 -21 -4q-143 -63 -204 -170q-66 -117 -68 -258z " />
<glyph unicode="9" horiz-adv-x="1089" d="M96 983q8 186 113 297q55 59 136 88t163 18q111 -12 145 -47q14 -14 -6 -14q-11 0 -29 4q-182 43 -270 -29q-94 -78 -131 -235q-33 -141 4 -270q45 -160 168 -215q47 -23 123 -20t133 32t97 81t51 113q23 141 2 275.5t-74 249.5q-47 102 -29 104q6 2 23 -10 q63 -47 108 -129q135 -203 168 -395q47 -270 -33 -494q-55 -152 -161.5 -268.5t-255.5 -175.5q-84 -27 -166 -12.5t-147.5 61.5t-103.5 131t-24 170q14 98 82 133q45 25 56 -8q6 -12 -2 -35q-51 -135 -23 -246q18 -68 71.5 -119t121.5 -55q119 -8 260 125q100 96 153 234 q84 213 80 434q-14 -43 -43 -82q-51 -70 -125 -107q-111 -57 -278 -35q-180 23 -275 148q-90 123 -82 303z" />
<glyph unicode=":" horiz-adv-x="550" d="M258 987q47 37 108.5 36t92.5 -38q20 -27 0.5 -72t-47.5 -57q-53 -27 -106.5 16t-41.5 101q0 4 4 6q-10 4 -10 8zM282 123q-1 39 3 74q4 14 61 10q35 -5 39 -17q6 0 14 -4q35 -23 47.5 -66.5t-9 -77.5t-72.5 -28q-39 4 -60.5 37t-22.5 72zM360 65.5q0 -10.5 5 -14.5 q6 -4 12 12q16 37 4 76l-4 8q-2 -14 -6 -26q-4 -14 -7.5 -29.5t-3.5 -26zM365 958q2 0 2 3q4 6 0 12q-2 2 -2 4q4 -6 2 -14q0 -2 -2 -5z" />
<glyph unicode=";" horiz-adv-x="604" d="M246 946q-18 26 33 49q-8 2 -17 4q-29 12 -10 21q49 18 102.5 12t95.5 -36.5t35.5 -67.5t-52.5 -50.5t-102.5 5t-84.5 63.5zM263 223q13 53 63 72q59 20 131.5 -49.5t64.5 -149.5q-6 -63 -27.5 -121.5t-66.5 -144.5t-55 -104q-16 -37 -72 -37q-37 0 -37 22q0 7 2 13 q8 16 32 63t34 69.5t27.5 61.5t28.5 70.5t22 64.5q18 49 15 113.5t-32 91.5q-6 4 -19.5 -6t-25.5 -29.5t-18 -38.5q-18 -61 4 -88q8 -10 26 -28q39 -43 29 -45q-6 0 -27 10q-57 25 -84.5 81t-14.5 109zM342 989q2 -78 25 -76q8 0 16 17q10 23 -6 45q-14 18 -35 14z" />
<glyph unicode="&#x3c;" horiz-adv-x="1267" d="M23 586q8 16 36.5 23t67.5 12.5t55 11.5q78 27 209 72q152 51 213 73q219 82 344 150q100 53 148 43q28 -8 -19 -37q-94 -43 -238.5 -94.5t-273.5 -91t-247.5 -79.5t-189.5 -72t-69 -54q4 -31 29 -64q-25 14 -47 33q-39 37 -18 74zM88 479q18 -23 47 -45 q68 -57 184.5 -111.5t235.5 -101.5q69 -28 147 -59q-47 25 -96 51q-342 184 -471 242q-25 10 -47 24zM702 162q55 -23 117 -47q147 -59 236 -103q131 -63 133 -67q0 -2 -35 10q-177 62 -451 207z" />
<glyph unicode="=" horiz-adv-x="1271" d="M133 756q-8 8 12 14h5q498 51 983 -6q43 -6 57 -27q6 -12 -10 -12h-11q-496 68 -970 16q-51 -6 -66 15zM193 297q-4 6 12 8q4 2 8 2q82 -6 225.5 -19.5t225 -19.5t224 -12t220.5 4q53 4 72 -16q8 -8 -6 -13q-6 0 -13 -2q-82 -10 -225 -5t-226 11.5t-226.5 20.5t-223.5 18 q-59 4 -67 23z" />
<glyph unicode="&#x3e;" horiz-adv-x="1368" d="M35 35q-14 12 16 22q186 66 572 250q334 160 516 238h-2q-61 8 -133 26.5t-119 28.5t-131 42t-116 42t-127 53t-112.5 50.5t-126 56.5t-114.5 51q-68 33 -70 49q0 8 27 0q63 -27 206.5 -92.5t226.5 -99t204.5 -79.5t230.5 -73q100 -25 199 -37q4 0 6 2q55 23 88 2 q20 -12 -2 -20q10 -4 12 -10q2 -4 -24 -5q-10 0 -21 3q-137 -61 -512 -240q-408 -190 -620 -264q-49 -18 -74 4z" />
<glyph unicode="?" horiz-adv-x="1069" d="M190 1200q57 125 213 207q135 70 277 53q147 -16 246 -129q45 -53 58 -122.5t-9 -129.5q-27 -76 -141 -205q-63 -70 -85 -95t-64 -79.5t-60.5 -97.5t-24.5 -88q-14 -92 -63 -133q-33 -27 -37 14v13q6 215 211 450q195 225 182 371q-4 51 -45 104t-94 76q-111 49 -248 -10 q-121 -55 -189 -160q-72 -115 -55 -215q20 -131 10 -143q-8 -15 -43 20q-96 170 -39 299zM467 94q8 33 25 60q-2 6 6 12l2 2l2 2q12 16 35 12q43 8 88 -18q66 -41 63 -113q-2 -47 -52 -78.5t-97 -13.5q-45 16 -62.5 55t-9.5 80zM549 -12q4 -4 13 5t15.5 26.5t8.5 31.5 q6 53 0 88l-2 -2q-63 -125 -35 -149z" />
<glyph unicode="@" horiz-adv-x="1978" d="M123 682q-18 162 35 320.5t164 265.5q213 207 528 264q211 41 424 8t383 -137q88 -53 150.5 -157.5t82.5 -237.5q16 -109 -12.5 -220.5t-89.5 -199.5q-98 -143 -220 -229.5t-227 -77.5q-57 4 -96 51q-37 45 -49 112q-45 -16 -98 -20q-125 -10 -211 31 q-111 47 -184.5 154.5t-59.5 211.5q16 109 106.5 191t198.5 106q109 27 219 -2q100 -27 172 -100q8 8 17 16q61 55 82 2q8 -24 4 -69q-12 -39 -36 -118t-40 -141.5t-29 -121.5q-6 -27 -10 -52v-2t-2 -4q-18 -111 -14 -159q0 -18 23.5 -18.5t60.5 16t71 47.5q203 184 252 405 q29 139 6.5 269.5t-90.5 213.5q-84 104 -223 158.5t-297 50.5q-287 -8 -532 -178q-115 -78 -193 -186.5t-102 -229.5q-51 -248 67 -516q61 -139 167 -239.5t239 -141.5q375 -113 596 -12q354 160 354 117q0 -18 -53 -70q-80 -76 -204 -101.5t-294 -29.5q-240 -6 -463 62 q-254 80 -397 266q-150 197 -176 432zM804.5 708q14.5 -87 76.5 -159q45 -55 132 -58.5t146 44.5q13 10 29 16q-2 20 0 41q4 78 22 153q18 74 43 132q-27 92 -77 149q-53 59 -123 47q-78 -12 -143.5 -76.5t-94.5 -144.5q-25 -57 -10.5 -144z" />
<glyph unicode="A" d="M-53 -41q39 252 88 496h-15q-35 0 -61 34q-23 31 21 31h6h63q109 510 262 977v29q0 26 31 51q25 33 98 57q43 14 71 14q36 0 44 -24q4 -10 0 -27q-18 -63 -37 -127q8 -528 55 -917q90 10 172 27q5 1 10 1q30 0 62 -32q16 -15 16 -25q0 -14 -30 -20q-100 -18 -221 -29 q37 -270 90 -467q5 -18 5 -38q0 -34 -15 -74q-11 -30 -25 -30q-12 0 -25 21q-76 125 -133 289q-49 145 -80 285q-72 -2 -149 -4q-49 -221 -84 -445q-10 -55 -94 -90q-42 -16 -71 -16q-31 0 -46 18q-9 10 -9 25q0 5 1 10zM264 526q61 4 121 9q-25 137 -41 307v6 q-16 -59 -29 -115q-27 -102 -51 -207z" />
<glyph unicode="B" horiz-adv-x="1101" d="M140 628q0 67 -1 138l-2 2q-16 16 2 25q-4 291 -20 643q0 20 40 48q39 26 77 34q8 2 15 2q26 0 36 -23q6 -82 10 -166q45 2 80 2q78 0 186.5 -11t202.5 -55t166 -116q33 -35 33 -80q1 -9 -1 -21q-10 -58 -48.5 -114.5t-95 -102t-107.5 -59.5q-27 -8 -56 -14q14 -2 25 -6 q35 -6 96.5 -23.5t98 -37t72.5 -51.5t52 -73q20 -51 21 -100q0 -44 -18 -87q-36 -89 -112.5 -153.5t-160.5 -83.5q-62 -13 -137 -13h-10q-82 1 -142 7q-53 8 -131 21q-2 -53 -4 -105q-2 -23 -50 -34q-27 -6 -54 -6q-20 -1 -40 3q-44 8 -44 31zM301 1274q12 -225 16 -473 q49 -2 97 -4q27 2 45 2q35 4 82 13t84 22q66 25 117 87t61 130q1 6 1 12q0 42 -48 90q-54 55 -140 86q-115 40 -231 40q-42 0 -84 -5zM313 217q14 -4 23 -4q18 -4 58 -11t64 -8q23 -2 56 -4q14 -1 27 0q19 0 35 2q28 4 57 9q90 20 149.5 93t69.5 171q1 8 1 16q-1 67 -59 129 q-66 70 -176 99q-70 20 -161 28q-66 -4 -101 -8q-21 -2 -39 -2q1 -87 1 -172q0 -171 -5 -338z" />
<glyph unicode="C" horiz-adv-x="1277" d="M-22 810q12 140 61 265q57 150 194.5 256.5t282.5 112.5h24l74 -4q8 20 21 39q88 135 205 135q55 0 63 -25q4 -16 -24 -24q-5 -2 -9 -2q-33 -70 -55 -150q-2 -12 -4 -22v-2q147 -57 266 -160q51 -43 87 -111q32 -62 32 -134v-16q-4 -81 -66 -130q-62 -44 -143 -44 q-29 0 -59 6q-118 21 -189 89q-111 109 -145 287q-12 56 -12 106t12 96q-12 1 -23 1q-73 0 -141 -33q-61 -31 -109.5 -91.5t-78 -135.5t-47 -147.5t-25.5 -152.5q-6 -58 -6 -117q0 -104 18 -208q28 -164 113 -279q45 -61 134 -81q40 -9 77 -8q46 0 88 13q78 25 143.5 76 t100.5 119q68 129 163 192q37 25 59 25q26 0 32 -33q4 -23 -7 -61q-25 -106 -101.5 -193.5t-174.5 -136.5q-97 -49 -207 -61q-33 -3 -65 -3q-74 0 -142 19q-135 39 -245.5 161t-151.5 294q-23 97 -23 198q0 37 3 75zM786 1235q-2 -27 -3 -54q0 -70 16 -137q15 -78 87 -132 q41 -31 73 -31q25 0 45 18q37 39 37 105q-1 10 -1 21q-6 81 -57 142q-63 78 -160 136q-14 6 -26 14q-6 -39 -11 -82z" />
<glyph unicode="D" horiz-adv-x="909" d="M-150 -4q-9 7 -9 12q0 9 24 15q6 2 14 2q117 10 238 30q4 121 14 351q11 250 17 438q3 109 4 212q0 75 -2 146q0 18 12 35q-28 -4 -53 -4q-53 0 -86 18q-35 18 10 31q10 4 22 6q111 23 196 36q85 14 185 18q15 1 29 0q81 0 143 -21q74 -25 113 -76q57 -73 83 -199 q24 -116 23 -235q0 -9 1 -18q-2 -127 -3 -267q-10 -377 -258 -444q-168 -47 -377 -82q-20 -6 -34 -4q-78 -12 -160 -23q-26 -3 -48 -3q-65 0 -98 26zM299 94q156 39 233 92q90 59 91 125q0 51 6 205q5 116 5 212q0 32 -1 62q-2 120 -17 232q-2 25 -7 75t-8 73.5t-9 54 t-15.5 46t-19.5 19.5q-29 12 -63 14q-8 1 -17 1q-26 1 -55 -5q-39 -8 -74 -16q-12 -4 -29 -8q5 -125 6 -290q0 -331 -22 -824q-2 -45 -4 -68z" />
<glyph unicode="E" horiz-adv-x="1327" d="M25 1323q4 4 12 10q317 137 571 137q252 0 570 -112q47 -18 65 -66q4 -10 4 -18q0 -17 -20 -14q-10 0 -25 6q-299 135 -534 139h-10q-175 0 -351 -68q-10 -233 -16 -456q27 4 55 8q135 23 299 52.5t258 43.5q7 1 14 1q33 0 62 -30q12 -13 12 -22q0 -15 -30 -21 q-2 0 -5 -2q-59 -8 -188 -32q-2 -4 -12 -9q-199 -78 -469 -92q-8 -307 -8 -602q96 14 233 31q344 43 520 84q7 1 15 1q35 0 73 -30q22 -17 22 -29q0 -13 -24 -20l-8 -4q-162 -31 -481.5 -68t-472.5 -69q-8 -2 -16 -2l-70 28q-18 15 -18 27q0 15 32 25q27 4 82 12q2 88 6 244 q4 195 6 311q0 29 2 59h-63q-31 0 -47 21q-8 8 -2 12q-2 0 -2 2q-29 33 14 39q4 0 10 2q45 6 92 12q2 63 4 135q6 156 15 287q-27 -14 -54 -29q-18 -10 -39 -10q-28 0 -61 17q-34 18 -34 37q0 11 12 22z" />
<glyph unicode="F" horiz-adv-x="1157" d="M-43 1397q-15 13 -15 23q0 13 25 20q98 39 189 78q1 36 1 71l-1 72q0 57 61 111q33 27 53 27q15 0 23 -15q6 -8 6 -21q8 -86 12 -178q248 115 453 238q12 8 27 8q24 1 56 -19q29 -18 29 -34q0 -12 -18 -23q-250 -143 -543 -266v-74q0 -184 -8 -342q-6 -92 -16 -201 q387 154 665 349q8 5 20 5q23 0 62 -20q37 -21 37 -38q0 -10 -12 -19q-348 -223 -782 -365q-2 -35 -7 -69q-25 -203 -44 -340t-50 -346q-10 -55 -84 -88q-34 -14 -56 -14q-27 0 -38 20q-8 10 -6 26q57 365 86 579t53 533q16 180 21 340q-61 -25 -125 -47q-10 -3 -21 -3z" />
<glyph unicode="G" horiz-adv-x="1101" d="M-90 586q6 198 74 383q72 193 202.5 343t296.5 218q70 29 127 29q39 0 72 -13q39 -16 16 -33q-12 -10 -43 -14q-326 -160 -460 -459q-115 -254 -115 -562q0 -38 2 -77q8 -201 96 -327q51 -78 138 -106q30 -9 58 -9q51 0 93 33q88 80 125 315q15 93 15 166q0 110 -34 176 q-8 12 -15 24.5t-17.5 25t-16.5 20.5q-5 -1 -10 -1q-34 0 -59 25q-27 27 20 35h2q-4 6 2 8q4 2 17 0q6 0 14 -2q45 10 84 21q57 14 114.5 31.5t83 25.5t90 29.5t72.5 26.5q25 8 54 -21q14 -14 14 -24q0 -13 -23 -21q-195 -72 -378 -113q49 -37 84 -100q68 -113 69 -258v-8 q0 -244 -117 -375q-53 -61 -132 -88q-69 -24 -134 -24q-10 0 -19 1q-75 4 -143 33q-92 37 -166.5 117t-105.5 180q-48 155 -48 330q0 19 1 39z" />
<glyph unicode="H" horiz-adv-x="952" d="M-86 -55q6 950 6 1279v126q0 55 72 94q37 21 60 21q21 0 32 -17q4 -9 4 -23q2 -160 2 -377.5t-2 -492.5q31 2 72 6q90 6 143 10v82q2 139 9 363.5t10 288.5q0 53 71 90q37 21 60 21q21 0 32 -17q6 -8 7 -19q0 -100 -13 -565q-4 -123 -6 -229q72 8 133 16q72 10 142 25h3 q20 0 72 -19q39 -15 39 -29q0 -13 -35 -26q-111 -41 -254 -53q-53 -2 -100 -4q0 -106 4 -191q6 -229 37 -379q27 -139 57 -139q20 2 48 41t53 94q27 61 114 78q21 4 37 4q47 0 47 -34q0 -10 -6 -23q-52 -109 -152 -169q-74 -45 -136 -45q-21 0 -41 5q-82 23 -135.5 106.5 t-71.5 204.5q-25 158 -25 449q-50 2 -103.5 2t-111.5 -2q-2 -223 -4 -482q0 -55 -74 -92q-36 -20 -59 -20q-21 0 -31 16q-6 10 -6 25z" />
<glyph unicode="I" horiz-adv-x="589" d="M-213 -72q63 37 162 90q-2 4 -6 9q-6 10 -4 24q16 178 24 370.5t12 473.5q4 227 7 342l-58 -16q-23 -6 -51 22q-31 31 10 41q59 16 113 35q16 25 61 41q36 16 60 16q11 0 20 -4q115 45 199 98q4 2 10 2q20 0 60 -24q30 -21 30 -37q0 -11 -16 -18q-100 -51 -262 -105 q-2 -119 -11 -489q-10 -444 -26 -690q211 109 282 153q1 1 3 1q12 0 61 -27q43 -24 43 -41q0 -10 -14 -17q-43 -23 -175.5 -83t-239 -117.5t-190.5 -122.5q-7 -5 -18 -5q-21 0 -57 17q-40 20 -40 40q0 11 11 21z" />
<glyph unicode="J" horiz-adv-x="718" d="M-137 -205q-13 28 -13 53q0 46 41 86q35 32 63 32q11 0 21 -5q14 -8 15 -31q2 -55 25.5 -112.5t47 -86t31.5 -16.5q12 18 19.5 57.5t16.5 117t15 124.5q39 248 43 652v62q0 203 -10 638q-121 -31 -252 -55q-25 -6 -47 26q-22 29 17 31q391 94 643 234q4 2 10 2 q19 0 59 -27q31 -20 31 -35q0 -10 -16 -18q-129 -59 -275 -107q2 -63 4 -217q6 -229 8 -391v-69q0 -304 -16 -525q-25 -309 -80 -444q-29 -68 -88 -103q-43 -26 -87 -26q-16 0 -32 4q-53 10 -108 48t-86 101z" />
<glyph unicode="K" horiz-adv-x="1169" d="M-162 -3v33q0 220 24 404q26 198 58.5 463.5t36.5 445.5q2 70 76 115q35 23 58 23q20 0 30 -17q6 -10 8 -26q-4 -127 -8 -435.5t-6 -474.5q-4 -137 -11 -331q115 154 170 227q55 76 154.5 219t159 240.5t126 221.5t113.5 234q18 47 101 78q34 12 54 12q26 0 30 -20 q2 -8 -2 -20q-53 -150 -130 -300.5t-180.5 -307t-187.5 -273.5q-2 -6 -6 -10q2 -4 4 -11q4 -35 22.5 -192.5t28.5 -224t30.5 -190.5t47.5 -215t61 -171q20 -42 55 -42q10 0 20 4q50 14 77 77q45 113 59 244q8 78 8 149q0 113 -20 207q-2 6 -3 11.5t-3 11.5t-4 11t-4 11 q-15 33 -15 54v8q4 22 48 4q94 -39 135 -158q37 -108 38 -248q0 -14 -1 -28q-6 -184 -58 -283q-29 -51 -80 -90t-103 -55q-42 -13 -83 -14q-10 0 -20 1q-50 4 -78 31q-53 51 -96.5 116.5t-74 149.5t-51 153.5t-37 176t-24.5 168.5q-6 51 -16 145q-31 -45 -68 -92 q-129 -174 -195 -268q-6 -8 -12 -15q-8 -156 -18 -292q-2 -39 -22.5 -62.5t-46 -29t-52.5 -2.5t-45.5 10.5t-20.5 13.5q-49 186 -51 425z" />
<glyph unicode="L" horiz-adv-x="1032" d="M-254 150q-3 19 -2 37q0 67 39 100q59 41 137 45q14 1 28 1q27 0 52 -3q4 27 8 55q43 238 79 480.5t48 445.5q4 72 84 127q42 29 70 29q22 0 35 -17q8 -10 12 -25q-16 -702 -125 -1165q23 -10 49 -22q45 -23 79 -39.5t75 -36t76 -30.5q36 -12 72 -20q28 -7 54 -6h16 q34 2 62 13q86 31 165 31q25 0 50 -3q43 -5 43 -18q0 -8 -18 -20q-14 -10 -37 -21q-84 -37 -176 -44q-21 -2 -42 -2q-71 0 -145 18q-96 24 -167.5 50.5t-167.5 71.5q-2 2 -6 2q-25 -94 -54 -178q-15 -40 -71 -60q-32 -11 -70 -12q-28 0 -60 6q-74 14 -126 64q-54 50 -66 146 zM-76 205q-1 -1 -1 -3q0 -6 4 -14q5 -12 11.5 -34.5t6.5 -47.5l6 -81q2 2 4 24q8 66 31 193h-9q-45 -4 -53 -37z" />
<glyph unicode="M" horiz-adv-x="1298" d="M-127 100q27 90 115 109q18 3 32 3q39 0 52 -24q10 -14 -2 -34q-16 -58 -20 -114q-1 -13 -1 -26q1 -42 11 -78q14 -48 51 -53q3 -1 6 -1q31 0 59 75q30 82 37 186q5 79 5 166q0 207 -30 457q-41 324 -96 618q-2 11 -2 21q0 52 49 100q32 30 55 30q15 0 25 -13q6 -8 8 -21 q2 -6 2 -12q313 -502 447 -909q12 39 24 79q57 164 123 316q53 117 103 219q18 96 47 178q-4 -10 -23 -129q2 6 4 10q66 129 116 200q42 60 62 60q4 0 7 -2q70 -45 77 -205q1 -30 1 -60q0 -133 -25 -278q-31 -177 -73 -417t-50 -371q-6 -102 -84 -164q-33 -26 -55 -26 q-18 0 -29 18q-8 14 -8 39q3 105 3 222q0 58 -1 120q-2 184 -6 342q-1 27 -1 55q0 56 3 113q-2 -12 -4 -25q-39 -217 -80 -397q-18 -82 -80 -133q-14 -23 -55 -43q-38 -19 -64 -19q-23 0 -37 15q-6 8 -8 18q-41 358 -258 797q16 -102 33 -217q47 -336 53 -561q2 -82 3 -158 v-10q0 -72 -14 -144q-15 -78 -52 -131q-32 -45 -92 -61q-40 -11 -82 -11q-20 0 -42 3q-64 8 -124 35q-66 27 -100 101q-22 48 -21 94q0 25 6 48z" />
<glyph unicode="N" horiz-adv-x="1060" d="M-39 94q27 156 53.5 344.5t42 316.5t41.5 355q16 150 27 242q-14 66 -21 96q-1 5 -1 10q0 40 59 78q37 24 59 24q16 0 25 -12q41 16 55 -10q6 -10 6 -27l-12 -176q39 -182 100 -446q16 -70 31 -133v116q6 348 47 549q49 250 221 287q17 3 34 3q68 1 144 -49 q96 -62 107 -153l2 -18q0 -67 -72 -90q-25 -8 -46 -8q-31 0 -50 18q-14 14 -6 37q10 30 13 68q1 8 1 15q0 31 -10 63q-12 40 -43 51q-18 8 -35.5 -8.5t-32 -49.5t-23.5 -62.5t-18 -64.5q-49 -213 -59 -524q-4 -133 -4 -375t-4 -344q-2 -57 -80 -90q-33 -14 -56 -14 q-19 0 -30 10q-35 -4 -53 14q-8 10 -11 23q-18 221 -116 661q-41 -350 -99 -698q-10 -53 -88 -72q-27 -6 -47 -6q-36 0 -49 21q-4 7 -4 16q0 6 2 12z" />
<glyph unicode="O" horiz-adv-x="1093" d="M-56 502q12 320 122 612q40 113 106 174q2 20 4 43q16 84 68 117q95 57 190 57q10 0 20 -1q104 -7 162 -62q84 -82 119 -256q2 2 4 6q90 152 197 211q34 20 53 20q22 0 25 -26q0 -23 -15 -62q-49 -119 -135 -217q-49 -57 -108 -100l4 -74v-47q0 -274 -64 -580 q-63 -291 -164 -432q-46 -65 -122 -93q-60 -22 -124 -22q-16 0 -32 1q-78 8 -148.5 49t-91.5 110q-71 219 -71 489q-1 41 1 83zM158 803q-44 -266 -44 -476q0 -250 62 -421q21 -51 73 -51q9 0 21 2q70 12 109 77q61 98 108 267q70 250 86 452q13 158 13 285q-30 -5 -63 -5 q-65 0 -140 19q-76 18 -133 80q-10 14 -21 27q-51 -137 -71 -256zM343 1131q7 -78 40 -101q37 -24 80 -24q47 0 104 28q9 4 17 8q-10 264 -80 371q-13 13 -30 13q-10 0 -21 -4q-31 -11 -63 -55t-40 -95q-9 -42 -9 -91q0 -24 2 -50z" />
<glyph unicode="P" horiz-adv-x="1107" d="M-123 152q-7 21 -7 42q0 56 56 101q38 32 68 32q14 0 26 -8q17 -11 17 -40q2 -61 4 -99.5t13.5 -88.5t31.5 -89q27 -51 60.5 -86t50.5 -31q20 8 39 111q2 12 4 18q35 195 35 468q0 123 -7 261q0 12 -2 25q-125 -55 -211 -78q-53 -13 -90 -13q-40 0 -63 15q-29 18 24 39 q4 0 6 2q162 51 328 135q-16 262 -53 582l-62 -16q-73 -22 -124 -22q-33 0 -56 9q-16 6 -16 14q0 12 41 27q2 2 6 4q113 31 203 47q-8 76 -19 156q-2 25 24 61q27 34 61 46q8 3 15 3q25 0 46 -30q25 -41 41 -125q8 -43 14 -84q31 2 55 2q106 -2 205.5 -16.5t184.5 -41 t138.5 -72.5t61.5 -103q1 -6 0 -12q0 -39 -33 -85q-39 -52 -119.5 -111t-163.5 -107t-206 -111q-37 -18 -72 -37q16 -224 15 -403q0 -108 -5 -199q-4 -78 -16 -146.5t-34.5 -129t-61.5 -100.5t-90 -48q-11 -2 -23 -2q-83 0 -183 89q-114 101 -157 245zM387 1481q2 -8 2 -15 q6 -76 15.5 -225t15.5 -235q2 -25 4 -52q6 4 12 9q258 152 416 327q10 14 15 38q1 7 1 15q0 19 -8 41q-12 32 -51 56q-72 45 -258 47q-84 0 -164 -6z" />
<glyph unicode="Q" horiz-adv-x="837" d="M-117 428q-3 40 -3 83q0 147 32 325q23 123 40 200.5t49 176t77 167t102 111.5q59 41 114 41q33 0 64 -14q41 -20 29 -37q-8 -10 -33 -8q-82 -98 -153.5 -268.5t-114.5 -389.5q-32 -160 -32 -323q0 -27 1 -54q6 -190 40 -324t85 -134q90 2 199 219q-10 47 -23 100 q-92 414 -104 471q-1 6 -1 12q0 39 54 78q36 27 60 27q16 0 26 -13q4 -6 6 -16q33 -156 88 -405q45 135 64 280q31 221 31 389q0 238 -62 369q-6 10 -11 19.5t-11.5 18.5t-11.5 16t-12 16.5t-10 14.5t-11 15q-29 35 -28 41q0 2 6 2q12 0 46 -8q115 -41 187.5 -174t89.5 -311 q4 -43 4 -92q0 -144 -35 -344q-45 -260 -115 -414q-29 -61 -59 -115q63 -293 92 -420q1 -5 1 -10q0 -40 -56 -80q-36 -26 -59 -26q-17 0 -27 14q-4 6 -6 16q-27 135 -74 346q-100 -96 -211 -96q-131 2 -219 147.5t-105 360.5z" />
<glyph unicode="R" horiz-adv-x="1001" d="M-186 1229q6 10 20 20q72 45 107 66q0 2 2 2l-4 82v6q0 57 67 100q36 22 59 22q20 0 31 -16q6 -8 6 -22l4 -90q35 14 68 24q78 23 170 28q19 1 37 1q70 0 129 -16q74 -20 86 -64q5 -24 5 -48q-1 -48 -21 -96q-32 -74 -92 -139t-124.5 -125.5t-117.5 -123t-66 -109.5 q-2 -8 -2 -17q0 -34 31 -92q39 -72 100.5 -180t87.5 -200q72 -244 148 -394q29 -56 65 -84q21 -17 39 -17q12 0 23 9q53 45 67 170q12 117 92 183q32 26 54 26q17 0 28 -16q8 -14 9 -39q-4 -92 -30 -176t-85 -150.5t-143 -75.5q-8 -1 -15 -1q-83 0 -169 80q-92 87 -146 218 q-117 281 -184 461q12 -268 18 -473q25 -12 51 -29q6 -2 -16 -16q-23 -14 -43 -22v-7q-6 -6 -8 -4t-5 4q-36 -12 -65 -12h-8h-4q-18 -5 -32 -5q-24 0 -36 15q-4 6 -4 17q-10 426 -51 1300q-45 -20 -86 -20q-12 0 -23 2q-32 5 -32 22q0 9 8 21zM111 1305q12 -231 20 -435 q16 18 33 35q18 20 43.5 45t48.5 45.5t51.5 46t48.5 45.5q96 94 117 195q2 10 2 19q0 41 -44 69q-34 22 -78 22q-26 0 -56 -8q-88 -22 -186 -79z" />
<glyph unicode="S" horiz-adv-x="745" d="M-8 334v11q0 109 76 167q32 24 55 24q16 0 27 -12q10 -12 10 -32v-71v-77t1 -71.5t3 -78t5 -69.5t8 -71.5t12.5 -61.5t17.5 -61.5t22 -49.5q16 -16 51 0.5t72 57.5t39 71q2 35 2 68q0 135 -33 235q-35 109 -131 320t-133 317q-54 152 -54 284q0 127 50 236q37 78 121 108 q59 21 115 21q25 0 49 -4q205 -31 258 -135q33 -62 33 -113q0 -55 -39 -98q-30 -36 -57 -36q-9 0 -17 4q-22 10 -14 49q-15 108 -71 198q-49 77 -107 78q-9 0 -19 -2q-55 -10 -94 -118q-37 -102 -37 -198v-10q4 -98 36 -216.5t66.5 -202.5t96.5 -224q111 -246 135 -358 q11 -52 11 -104q0 -63 -17 -127q-31 -114 -131 -158q-49 -22 -99 -22q-52 0 -104 24q-103 47 -152 151q-51 111 -63 357z" />
<glyph unicode="T" horiz-adv-x="923" d="M-76 1374q-9 9 -9 16q0 11 24 13q4 0 6 2q90 23 371.5 107.5t439.5 119.5q10 2 20 3q29 0 55 -23q13 -11 13 -19q0 -12 -29 -18q-121 -29 -393 -113q-27 -8 -53 -16q-16 -92 -68 -356q-53 -276 -74 -428q-25 -182 -34 -414q-3 -81 -3 -139t3 -93q10 -113 59 -155 q25 -18 43 -2q51 45 133 47h7q47 0 46 -25q0 -17 -24 -45q-52 -57 -147 -57q-35 0 -77 8q-59 12 -111 45t-73 88q-29 86 -33 182q-1 32 -1 59q0 56 5 95q6 229 35 436q18 139 71.5 394t61.5 300q0 4 2 9q-115 -31 -194 -47q-8 -2 -16 -2q-33 0 -56 28z" />
<glyph unicode="U" horiz-adv-x="770" d="M-184 1358q-6 10 -6 16q0 11 20 12h6q219 37 414 175q5 3 11 3q20 0 58 -26q32 -21 32 -37q0 -10 -13 -18l-8 -4q2 -2 2 -4q6 -16 -4 -39q-160 -430 -213 -725q-54 -307 -54 -501q0 -242 84 -308h1q8 0 52 102q48 108 115 311q55 164 90 326q10 180 23 322q12 170 35 409 q5 51 79 84q35 16 58 16q26 0 37 -20q4 -4 4 -10q27 6 41 -15q9 -10 9 -30q0 -7 -1 -15q-4 -30 -12 -98q-14 -129 -23.5 -197.5t-27 -194.5t-31.5 -200q-8 -55 -23 -127q-6 -90 -10 -190q-4 -139 -4 -271l6 -259q0 -51 -61 -99q-34 -27 -55 -27q-16 0 -25 15q-4 6 -6 18 q-14 137 -19 285q-6 -8 -12 -17q-35 -59 -81 -112t-99 -88q-13 -8 -28 -8q-39 0 -92 55q-73 76 -129 213t-60 266v21q0 135 47 372q74 358 178 633q2 6 4 10q-127 -43 -266 -53q-23 0 -43 29z" />
<glyph unicode="V" horiz-adv-x="851" d="M-109 1303q-3 29 -3 55q0 105 51 174q25 35 47 35q15 0 28 -17q11 -14 17 -43q14 -119 44.5 -276.5t65.5 -307t73 -308t68 -293.5q30 -134 48 -244q17 -100 16 -166v-14q-2 -68 -27 -82q61 33 82 172q18 117 18 278q0 30 -1 62q-4 202 -6 420v29q0 204 26 419 q28 231 99 387q51 113 149 133q18 4 32 4q40 0 50 -30q3 -7 3 -15q0 -18 -15 -41q-211 -301 -264 -780q-10 -104 -15.5 -228t-5.5 -204t3 -234.5t3 -216.5q0 -20 -2 -40.5t-9 -52.5t-21.5 -52.5t-38 -43t-59.5 -23.5h-11q-32 0 -74 5q-27 6 -46 43t-40.5 108t-28.5 87 q-49 125 -88 283q-27 98 -53 241q-18 96 -47 262q-27 156 -68 515z" />
<glyph unicode="W" horiz-adv-x="1253" d="M-102 1237q-3 23 -3 44q0 97 60 163q34 35 59 35q13 0 23 -9q18 -14 18 -51q14 -131 37 -413.5t40.5 -449.5t64.5 -392q29 -131 65 -244q-35 72 -69 166q-63 168 -123 369.5t-105 409.5t-67 372zM242 221q-1 45 -1 89q1 248 29 484q34 278 90 525q6 23 17 45v10 q-1 9 -1 17q0 80 68 133q34 26 58 26q16 0 28 -12q10 -10 11 -33v-16q20 0 30 -19q10 -15 10 -42q0 -24 -8 -58q-23 -90 -26 -280q0 -45 -2 -89v-204q2 -57 6 -117q10 -152 31.5 -283t72.5 -254q27 -63 62 -116q-39 37 -70 90q-47 80 -86 162q-6 14 -12 32v-55 q-4 -203 -33 -343t-90 -165q-8 -3 -16 -3q-40 0 -93 79q-18 26 -36 59q-33 139 -39 338zM262 -80q27 -82 57 -153q-22 50 -38 116q-8 16 -19 37zM676 211q-8 63 -8 132q0 122 26 261q41 217 102.5 423t145.5 415q43 111 137 141q27 10 47 10q31 0 43 -24q5 -9 5 -19 q0 -18 -13 -41q-186 -344 -237 -745q-18 -135 -31.5 -327.5t-14.5 -338.5v-14q0 -133 19 -145q-76 10 -139 53q-13 10 -25 20q-45 82 -57 199zM717 27q31 -47 67 -88q-28 32 -51 73q-8 6 -16 15z" />
<glyph unicode="X" horiz-adv-x="1056" d="M-47 1455q0 3 8 4q10 1 37 -1q135 -31 243.5 -101.5t139.5 -168.5q14 -45 23.5 -106.5t12.5 -107.5t5 -126q2 -8 2 -12q33 63 72 133q145 268 276 483q33 51 121 61q13 1 24 1q50 0 50 -29q0 -12 -9 -25q-129 -215 -256 -454q-119 -223 -256 -490q27 -262 70 -405 q33 -106 86 -111q10 0 19.5 7t22.5 27.5t17.5 29t20.5 38.5q66 125 98 258q18 76 103 115q33 15 55 15q26 0 35 -21q4 -6 4 -16q0 -7 -2 -15q-18 -86 -52 -171t-83 -160.5t-117 -119.5q-60 -39 -124 -39q-9 0 -17 1q-63 6 -116.5 55t-90.5 127q-33 66 -53 139 q-80 -154 -140 -262q-28 -50 -95 -50q-7 0 -15 1q-63 6 -70 41q-2 14 10 31q156 311 246 489q6 12 12 25q-6 84 -12 207q-10 176 -14 225q0 12 -3 56t-5.5 58.5t-6.5 52.5t-9 53t-12 45t-17.5 45.5t-23.5 35.5t-30.5 34.5t-40.5 26.5q-37 23 -102 50q-41 17 -41 21z" />
<glyph unicode="Y" horiz-adv-x="839" d="M-45 1382q-2 8 -2 16q0 34 39 77q27 27 46 27q17 0 28 -21q39 -106 139 -420q49 -158 92 -277q164 504 270 924q14 66 95 98q33 13 55 13q26 0 37 -19q4 -7 4 -18q0 -7 -2 -15q-186 -780 -555 -1773q-25 -66 -107 -84q-22 -5 -39 -5q-39 0 -49 27q-4 14 2 33 q113 303 209 582q-164 504 -262 835z" />
<glyph unicode="Z" horiz-adv-x="1046" d="M-240 172q31 119 113 213q96 111 201 113q41 0 80 -19q29 61 55 125q33 78 63 154q-94 23 -221 65q-35 12 -51 47q-10 23 10 23q8 0 21 -4q20 -8 87.5 -31.5t98.5 -34.5q29 -10 72 -20q82 225 125 432q-20 -2 -41 0q-115 6 -203 53q-156 84 -156 203q0 57 29 72 q23 10 29 -29q2 -13 2 -27q47 -93 135 -153q72 -49 155 -49q18 0 37 2q14 0 27 2q8 47 14 92q4 23 6.5 76t6.5 94t14 87t35.5 76.5t66.5 39.5q18 5 36 5q31 -1 63 -17q48 -26 81 -74t51 -103q15 -43 15 -87q0 -12 -1 -24q-5 -56 -34 -88q-72 -76 -178 -114q-2 -12 -2 -29 q-6 -43 -13 -75.5t-18 -65.5q-49 -162 -104 -305q41 8 78 30q74 45 127 125q16 25 71 25q14 0 31 -2q68 -8 68 -39q0 -10 -8 -21q-80 -98 -187 -143q-97 -41 -196 -41h-9q-78 -199 -168 -364q25 -39 68 -125q53 -104 94 -150q54 -66 150 -85q27 -5 49 -6q56 0 80 36 q145 225 194 252q11 6 20 6q26 0 34 -55q3 -18 3 -40q0 -11 -1 -24q0 -76 -73 -151.5t-167 -92.5q-32 -6 -66 -6q-50 0 -103 12q-89 20 -159 68q-111 70 -196 230q-104 -170 -221 -297q-22 -25 -62 -25q-18 0 -38 5q-68 15 -107 67q-26 33 -26 91q0 41 13 95zM-78 59 q23 39 70 121q61 106 114 207q-14 8 -30 6q-27 -2 -56 -47q-55 -82 -83 -182q-4 -14 -9 -58q-2 -29 -6 -47zM620 1444q35 53 46 115q2 13 2 27q0 42 -23 83q-4 8 -5 8t-2 -2q-6 -35 -10.5 -116.5t-7.5 -108.5v-6z" />
<glyph unicode="[" horiz-adv-x="802" d="M84 1061q6 113 24.5 199t69.5 141t135 65q125 16 195 -24q35 -23 0 -31q-14 -2 -41 -2q-86 4 -137 0t-70.5 -15.5t-17.5 -29.5q8 -25 1 -164t-5 -209q8 -256 28 -557q6 -86 20.5 -233.5t22.5 -243.5q2 -53 -17.5 -155.5t-15.5 -141.5q0 -4 40 1t102.5 18.5t111.5 29.5 q111 39 177 15q41 -14 -9 -37q-6 -2 -12 -6q-174 -61 -324 -74q-70 -6 -137 70.5t-71 158.5q-2 98 -8.5 191.5t-18.5 222.5t-16 196q-18 213 -25 375q-8 127 -2 240z" />
<glyph unicode="\" horiz-adv-x="698" d="M-33 1317q-23 66 19 127q35 49 61 18q6 -6 10 -16q166 -426 236 -813q70 -399 309 -735q41 -57 -10 -113q-39 -41 -66 -23q-6 4 -8 13q-37 86 -121 224t-150.5 271t-90.5 256q-10 47 -40 193.5t-44.5 215.5t-43 180.5t-61.5 201.5z" />
<glyph unicode="]" horiz-adv-x="542" d="M0 -330q-8 14 2 15q4 0 10 -7q45 -31 123 0t96 78q4 37 5.5 46.5t-5 65.5t-8.5 85q-18 240 13 532q6 72 24.5 229.5t26.5 239.5q6 61 9 174t5 150q2 16 4 39q6 41 -8 46t-98 -7h-13q-133 -18 -178 12q-23 16 21 25h6q35 4 91 17t92 21.5t85 12.5t70 -10 q49 -23 70.5 -82.5t18.5 -126t-5 -133.5q-4 -90 -12.5 -179.5t-26 -233.5t-19.5 -177q-29 -266 -28 -451q0 -25 10 -81t14 -94t-8 -97q-23 -74 -96.5 -110t-159.5 -40q-100 -4 -131 41z" />
<glyph unicode="^" horiz-adv-x="1105" d="M168 727q2 4 6 8q174 248 238 547q-10 55 -19 115q-4 31 60 59q56 26 79 14q55 12 60 -18q2 -4 0 -8q-6 -90 -25 -178q18 -119 49 -224q39 -135 93 -206q35 -47 87 -58.5t103 19.5q39 25 98 -2q51 -25 13 -47q-2 -2 -6 -5q-150 -70 -299 -8q-123 51 -195 209 q-12 27 -25 57q-74 -180 -200 -325q-23 -29 -82 -2q-51 25 -35 53z" />
<glyph unicode="_" horiz-adv-x="1277" d="M-18 -221q-16 16 14 20h14q143 -8 519 -30.5t581 -30.5q57 -2 84 -31q14 -18 -16 -20h-13q-209 8 -587.5 30.5t-511.5 28.5q-59 4 -84 33z" />
<glyph unicode="`" horiz-adv-x="454" d="M90 1448q6 30 33 14q135 -94 248 -223q12 -12 -15 -57q-27 -47 -49 -19q-125 156 -209 232q-14 16 -8 53z" />
<glyph unicode="a" horiz-adv-x="739" d="M30 85q-12 51 -12 100q0 59 17 112q27 88 85 156.5t124 72.5q30 2 55 -4q2 23 4 47q10 82 27 82q51 -2 85 -26.5t46 -60.5t16 -74q1 -11 1 -22q0 -25 -7 -44q-16 -86 -53 -172q29 -158 80 -232q10 -14 14 -10q45 86 104 121q17 10 27 10q14 0 14 -21v-7q-2 -16 -8 -41 q-18 -57 -57 -90q-37 -31 -79 -31h-5q-43 4 -82 33.5t-57 76.5q-12 27 -21 58q-29 -41 -65 -76q-72 -74 -150 -74h-8q-69 2 -95 116zM122 58q5 -46 15 -48h4q51 0 119 133q30 62 53 123q-12 70 -16 152q-2 25 -2 49q-33 -10 -66 -41q-53 -47 -82 -135q-18 -53 -24 -120 q-3 -37 -3 -67q0 -25 2 -46z" />
<glyph unicode="b" horiz-adv-x="876" d="M45 1378v16q0 109 53 156q16 15 28 15q13 0 19 -19q2 -6 2 -14q12 -422 35 -758q20 18 47 33q69 39 143 40h6q71 0 134 -26q102 -49 134 -191q13 -58 13 -115q0 -83 -28 -163q-35 -106 -115 -207q-29 -37 -59 -67q25 -16 49 -27q21 -8 38 -8q38 0 60 37q82 139 156 182 q37 20 35 -10q0 -16 -13 -43q-47 -113 -144 -177q-64 -42 -119 -41q-29 0 -56 11q-28 13 -55 31q-25 -20 -52 -35q-46 -27 -77 -27q-23 0 -37 15q-53 51 -89 143t-54.5 189.5t-29 246t-13.5 258t-5 284.5t-6 271zM223 270q10 -106 23 -198q4 -30 26 -42q8 -4 18 -5 q17 0 40 12q17 8 35 33q-74 70 -142 200zM227 610v-16q0 -87 39 -203q49 -145 115 -233q13 -19 27 -33q51 74 81 154q55 133 66 243q3 37 3 69q0 99 -32 152q-25 41 -84 59q-25 7 -51 7q-35 0 -72 -14q-82 -35 -92 -185z" />
<glyph unicode="c" horiz-adv-x="614" d="M49 246q-8 34 -8 69q-1 43 11 89q22 84 69 153q81 115 193 164q55 24 102 24q50 0 92 -26q25 -15 25 -39q0 -18 -15 -41q-25 -37 -45 -29q-10 3 -12 19q-12 49 -41 67q-13 8 -27 9q-18 0 -37 -13q-61 -37 -118 -133q-80 -137 -86 -258v-9q0 -68 28 -134q30 -70 72 -70 q53 2 94 60.5t66 138.5q14 49 71 71q18 7 29 7q20 0 20 -23v-12q-20 -96 -71 -174t-135 -99q-20 -5 -41 -5q-60 0 -125 42q-88 58 -111 152z" />
<glyph unicode="d" horiz-adv-x="681" d="M44 360q4 82 38 146q49 94 142 141q52 26 97 27q35 0 66 -17q37 -18 55 -47q10 74 19 154q2 84 4 143q4 94 14 267q2 37 56 57q16 6 28 6q6 2 11 2q15 0 20 -18q2 -6 2 -15q-6 -176 -14 -299q-2 -66 -13 -147q-3 -109 -3 -206q0 -314 30 -499q5 -29 5 -43q0 -16 -6 -16 h-1q-2 0 -6 6q-47 72 -76 182q-14 57 -25 111l-4 -12q-57 -207 -172 -242q-22 -7 -43 -7q-54 0 -106 42q-72 58 -99 139q-20 55 -20 124q1 10 1 21zM158 250q10 -70 47 -122q26 -37 48 -37q9 0 17 7q68 49 115 230q23 86 41 186q-8 6 -16 29q-45 92 -91 92q-6 0 -12 -2 q-57 -16 -102 -111q-52 -105 -52 -208q0 -32 5 -64z" />
<glyph unicode="e" horiz-adv-x="514" d="M20 227q-1 16 -1 32q0 93 30 181q35 104 107 170q37 38 97 46q19 3 36 3q38 0 69 -14q52 -19 68 -79q7 -27 7 -53q0 -31 -11 -60q-66 -193 -189 -260q-36 -20 -66 -20q-20 0 -36 9q2 -18 8 -37q14 -41 48 -71q28 -25 63 -24q7 0 14 1q51 8 83 8q36 0 48 -10q8 -6 -14 -16 q-8 -2 -21 -6q-50 -13 -96 -13q-60 0 -112 23q-53 25 -90 77t-42 113zM127 209q4 2 10 2q86 72 142 174q39 74 49 150q1 9 1 17q1 28 -15 46q-10 12 -23 13q-13 0 -29 -13q-96 -72 -133 -283q-5 -31 -5 -62q0 -22 3 -44z" />
<glyph unicode="f" horiz-adv-x="733" d="M74 455q6 188 32 442q23 229 44 326q25 111 82 209t124 139q33 20 64 20q34 0 67 -24q68 -53 85 -207q7 -54 7 -115q0 -110 -21 -239q-32 -201 -99 -410q-74 -223 -187 -320q-34 -29 -51 -29q-11 0 -14 13q-1 4 -1 8q0 26 30 76q188 438 217 780q4 51 4 102 q0 120 -23 242q-4 23 -8 36.5t-13.5 23.5t-24.5 9t-35.5 -13.5t-47.5 -114.5q-78 -307 -112 -780q-14 -213 -21 -428q27 10 33 -8q2 -3 2 -5q20 -68 60 -120t98 -60q6 -1 12 -1q45 0 84 38q45 43 71 113q14 33 74 43q45 8 45 -17q0 -6 -2 -12q-35 -94 -105 -148 q-67 -53 -136 -53h-5q-80 4 -153 47q-16 10 -33 21q25 -47 66 -113q70 -115 92 -157q53 -106 53 -206q0 -55 -16 -108q-12 -47 -48 -87q-33 -36 -73 -36h-8q-92 6 -139.5 60.5t-55.5 109.5q-24 190 -24 502q0 200 10 451zM170 -8q0 -131 4 -264q2 -115 19 -226v-6 q14 -102 59 -123l10 15q10 14 21.5 34.5t15.5 36.5q14 52 14 108q0 140 -88 302q-37 70 -55 123z" />
<glyph unicode="g" horiz-adv-x="710" d="M-118 -444q-6 24 -6 45q0 40 22 67q55 72 150 125t218 105q104 43 166 77q1 19 1 39t-1 41q-4 78 -33 250q-12 -27 -24 -51q-27 -55 -69 -94t-95 -60q-7 -3 -14 -3q-29 0 -59 43q-38 55 -58 144q-14 58 -14 112q0 29 4 57q6 76 40.5 145.5t90.5 112.5q40 30 76 30 q19 0 36 -8q29 -12 6 -28q-4 -5 -12 -7q-104 -113 -127 -237q-18 -102 -18 -173q0 -98 35 -136q6 -8 34.5 29.5t61.5 104t49 126.5q14 47 18 108q-10 61 -14 98q-2 15 -2 29q0 73 53 107q19 13 31 13q11 0 16 -11q18 0 25 -19q2 -8 2 -16q-4 -68 -8 -117v-2q4 -27 8 -59 q18 -133 27.5 -205t17.5 -191q6 -68 8 -124q49 20 88 20q20 0 20 -8q0 -10 -28 -31q-35 -25 -80 -49v-8q-2 -82 -15 -184.5t-40 -194.5q-25 -80 -116 -124t-199 -46q-117 0 -201 53q-53 33 -71 105zM-24 -422q-3 -22 -3 -39q0 -49 21 -65q68 -46 146 -46q16 0 32 2 q96 11 135 64q109 144 123 416l-16 -8q-119 -49 -224.5 -97.5t-164.5 -105.5q-39 -39 -49 -121z" />
<glyph unicode="h" horiz-adv-x="806" d="M-100 70q0 16 16 41q74 127 129 245v33q-2 61 -3 211v42q0 121 5 200q6 92 15.5 224t26.5 250t44 234q7 38 61 56q28 9 54 10q23 0 45 -8q57 -23 67 -144q3 -39 2 -108v-76q-2 -115 -10 -203q-18 -195 -47 -309q-16 -68 -35 -133q6 4 13 8q36 15 70 15q12 0 23 -2 q44 -7 60 -40q10 -23 13.5 -56.5t1.5 -61t-8.5 -75.5t-8.5 -73q0 -14 -4 -61t-5 -61.5t-2 -50.5t1 -54.5t7 -43t15 -44.5q10 -21 24 -21q21 0 52 41q18 25 33 60q39 82 53 166q10 70 66 106q19 13 31 13q15 0 20 -21q2 -8 2 -17q-6 -135 -68 -274q-57 -125 -135 -135 q-12 -2 -24 -2q-38 1 -80 19q-55 24 -74 77q-27 85 -28 189v14q0 98 12 211q14 121 14 155q0 -2 -16.5 -29.5t-42 -77.5t-45.5 -97q-60 -150 -60 -256v-19q1 -11 1 -22q0 -85 -42 -140q-8 -10 -14 -14q-8 -10 -16 -18q-18 -16 -30 -16q-13 0 -20 18q-4 8 -4 20q0 31 -4 176 q-49 -63 -108 -84q-43 -16 -43 13zM143 846q0 -91 4 -238q35 106 56 205q23 109 41 225.5t32 238.5q10 89 9 157q0 25 -1 47q-6 92 -32 92q-6 0 -32 -120q-26 -122 -51.5 -303t-25.5 -304z" />
<glyph unicode="i" horiz-adv-x="600" d="M89 270q5 66 11 106t25 107q8 33 65 41q51 8 50 -22v-6q-12 -49 -18.5 -74t-15.5 -70t-11 -74.5t-2 -68.5t6 -74q8 -47 44 -65q15 -8 30 -9q19 0 36 15q59 41 92 139q10 33 68 45q15 4 25 4q24 0 24 -22v-9q-29 -125 -112 -178q-59 -39 -132 -44q-8 -1 -16 -1 q-61 0 -96 35q-42 47 -60 103q-15 44 -14 94q0 14 1 28zM131 741q0 5 4 7q-2 6 10 10q19 7 37 7q49 0 88 -50q27 -34 27 -64q0 -20 -12 -37q-6 -10 -21 -16q-12 -6 -25 -6q-33 0 -70 42q-41 46 -41 86q0 11 3 21zM225 645v6v-6z" />
<glyph unicode="j" horiz-adv-x="817" d="M47 -14q201 309 256 684q4 33 55 56q21 8 33 8q19 0 19 -21q-2 -27 -7 -51q25 -78 84 -256q80 -233 123 -406q4 -14 6 -29q55 25 99 27q22 0 22 -10q0 -11 -26 -33q-29 -27 -80 -45q27 -125 35 -250q1 -9 1 -17q0 -78 -49 -158q-55 -89 -135 -116q-43 -15 -88 -15 q-49 0 -101 18q-99 34 -144 116q-17 33 -17 76q0 39 15 88q30 100 108 174q45 43 107.5 63.5t123.5 32.5l45 10q-10 53 -24 111q-29 106 -98 287q-27 72 -45 123q-20 -78 -50 -154q-74 -201 -186 -350q-9 -13 -27 -13q-16 0 -39 11q-23 12 -23 25q0 7 7 14zM217 895 q0 23 57 29h17h2q-20 8 -37 28q-12 14 6 17q7 1 13 1q41 0 74 -34q29 -30 29 -58q0 -9 -3 -18q-8 -25 -46 -30q-8 -1 -17 -1q-29 0 -57 13q-36 18 -38 53zM246 -403q-4 -24 -4 -46q0 -43 14 -83q23 -60 78 -76q14 -3 28 -3q44 0 88 31q60 43 78 109q27 91 27 201 q0 73 -12 155h-6q-127 -27 -172 -61q-43 -37 -75 -101.5t-44 -125.5z" />
<glyph unicode="k" horiz-adv-x="942" d="M92 98q55 86 107 191q-5 135 -5 271q0 45 1 91v70q2 139 3 209.5t9 185.5t22.5 181.5t43 135t69.5 109.5q12 13 32 13q10 0 22 -3q36 -10 73 -35.5t67 -70.5q32 -45 42 -94q4 -17 3 -47q0 -53 -12 -146q-12 -121 -43 -252q-41 -182 -90 -321q-8 -27 -16 -49l24 4 q13 2 26 2q52 0 91 -27q30 -25 30 -55q0 -5 -1 -11q-6 -36 -35 -70t-68 -61q-103 -65 -103 -111q0 -12 7 -24q74 -112 169 -188q75 -60 132 -60q16 0 31 5q8 2 35 10q70 25 93 25q11 0 11 -5q0 -8 -20 -26q-36 -39 -94 -45q-16 -2 -33 -2q-40 0 -78 11q-53 15 -105 46 q-121 70 -180 162q-14 24 -20 49q-1 -25 -1 -50q0 -51 5 -106q1 -14 1 -28q0 -73 -36 -121q-16 -21 -28 -21q-7 0 -13 8q-7 -4 -14 -4q-13 0 -19 17q-2 8 -2 16q-10 113 -16 227q-49 -47 -100 -47q-31 0 -31 17q0 10 14 24zM301 526q23 61 45 125q61 184 86 336 q17 108 17 217q0 151 -33 303h-2q-23 -16 -41.5 -54t-29.5 -107.5t-18.5 -129t-11.5 -170t-6 -178t-4 -198.5v-31q-2 -54 -2 -113zM338 250q10 23 31 49q25 31 45 49.5t54 49t48 44.5q2 2 2 5q0 7 -8 19q-12 18 -32 26q-7 3 -15 3q-15 0 -33 -10q-51 -35 -76 -149 q-10 -41 -16 -86z" />
<glyph unicode="l" horiz-adv-x="507" d="M46 1113v13q0 130 20 270q20 148 63 269q14 43 65 73q50 30 99 32q6 0 11 -1q42 0 71 -16q52 -41 51 -198v-35q-6 -129 -41 -332q-31 -176 -74 -350q-6 -25 -46 -154t-50 -221q-12 -105 -57 -156q14 -119 59 -215q31 -66 133 -115l8 -4q-2 0 -20 4q-18 2 -29 7 q-80 14 -134 84.5t-76.5 156.5t-26.5 185q-2 66 -9.5 203t-11.5 210q-4 154 -5 290zM152 639q2 16 4 25q8 31 31.5 128t27.5 111q33 137 64 309q25 143 35 255q5 59 5 107q0 43 -4 77q-6 59 -32 65h-3q-16 0 -30 -33q-98 -246 -98 -664q0 -63 2 -130q2 -28 2 -74 q0 -68 -4 -176z" />
<glyph unicode="m" horiz-adv-x="1079" d="M82 14q-9 89 -9 202q0 172 21 398q2 25 58 39q15 3 26 3q27 0 27 -21l-17 -219q10 33 25 63q41 102 90 107h4q30 0 49 -54q18 -43 27 -106q0 2 2 6q18 47 48 80t69 51q6 3 12 3q18 0 38 -33q26 -44 47.5 -126.5t38.5 -171t30 -186.5q8 -57 38 -88q17 -18 37 -18 q15 0 31 10q55 33 96 160q18 57 78 80q45 16 51 -15q0 -8 -2 -18q-14 -45 -20 -65.5t-21.5 -58.5t-36 -62.5t-47.5 -39.5q-51 -32 -111 -32q-29 0 -59 8q-94 22 -122 96q-47 123 -62 268q-7 67 -7 120q0 61 9 104q-10 -47 -67 -226q-20 -61 -27 -174q-2 -70 -55 -106 q-6 -4 -13 -8q-8 -4 -18 -11q-19 -9 -31 -9q-19 0 -22 22q-2 2 -2 6q2 39 3 146.5t3 161.5t12 128q8 63 27 109q-53 -131 -111 -451q-8 -43 -57 -70q-17 -8 -27 -8q0 -2 -2 -2q-47 -25 -51 8z" />
<glyph unicode="n" horiz-adv-x="532" d="M77 418q32 252 50 391q4 29 57 41q13 2 24 2q32 0 32 -23q-6 -43 -31 -245q23 33 49 63q65 73 108 73q15 0 27 -9q35 -25 49 -74q10 -35 9 -80q1 -19 -1 -39q-6 -70 -15 -132t-25.5 -150.5t-22.5 -135.5q-6 -41 -51 -75q-18 -14 -29 -14q-14 0 -16 24q-5 38 -5 80 q0 63 11 135q18 121 43 232.5t25 168.5q0 8 -18.5 -15.5t-48.5 -77.5t-54 -116q-59 -156 -78 -262q-4 -25 -16 -45l-5 -39q-2 -25 -59 -35q-12 -2 -21 -2q-30 0 -30 19q0 7 42 340z" />
<glyph unicode="o" horiz-adv-x="774" d="M2 276q10 188 68 293q24 43 51 70q14 55 61 86q62 37 132 37q32 0 64 -8q106 -24 154 -101q29 -47 33 -112q4 -29 2 -56q66 72 105 88q21 10 21 -7q0 -4 -1 -11q-2 -20 -20 -59q-41 -86 -103 -142q-14 -14 -30 -24q-8 -27 -19 -54q-39 -92 -110.5 -161.5t-159.5 -89.5 q-24 -5 -47 -5q-33 0 -65 9q-56 16 -91 57q-46 51 -46 163q0 13 1 27zM119 143q7 -55 67 -62q7 -1 15 -1q52 0 104 43q64 51 107 166q-59 2 -117 26q-78 35 -125 101q-10 14 -20 30q-36 -121 -36 -227q0 -39 5 -76zM215 586v-14q0 -74 37 -140q37 -68 113 -84q18 -5 34.5 -5 t30.5 5q28 93 28 172q0 32 -5 62q-11 72 -67 112q-29 21 -58 21t-60 -19q-16 -10 -28 -26v-4q-2 -10 -15 -25q-8 -25 -10 -55z" />
<glyph unicode="p" horiz-adv-x="722" d="M-70 -727q0 6 2 14q149 611 149 1082l-1 84q0 50 49 79q19 12 32 12q15 0 19 -18q2 -4 2 -10q4 -70 4 -141q18 18 41 35q51 39 103 51q13 3 25 3q36 0 61 -28q18 -25 20 -66v-17q0 -32 -6 -62q-8 -37 -20.5 -89t-14.5 -81q-2 -15 -2 -26q0 -42 27 -42h4q29 2 57.5 73 t44.5 179q6 39 64 55q49 14 51 -16v-6q-8 -55 -27.5 -110.5t-48 -107.5t-71.5 -80q-33 -22 -72 -22q-11 0 -23 2q-94 19 -94 178q0 72 19 173q10 55 2 55q-4 2 -11 -6q-12 -14 -35.5 -55t-29.5 -52q-20 -28 -59 -28h-5q-10 -451 -135 -965q-10 -49 -69 -63q-15 -4 -26 -4 q-23 0 -26 20z" />
<glyph unicode="q" horiz-adv-x="595" d="M33 403q8 66 33 125q-4 8 0 17q2 2 12 16t14 20.5t14.5 19.5t17.5 20.5t16.5 18.5t19.5 19.5t20 16.5q46 32 99 32h3q56 -1 99 -40q16 -16 -28 -48t-50 -10v4q-2 45 -20 45q-13 0 -35 -26q-10 -12 -21 -25q10 -14 -8 -20q-61 -94 -76 -187q-5 -38 -5 -74q0 -12 1 -24 q2 -47 11.5 -82t17.5 -33q121 16 229 347q4 14 21 24q14 16 43 29q18 8 31 8q20 0 24 -21v-10q-47 -555 -57 -1087q-2 -45 -53 -74q-20 -11 -33 -11q-17 0 -21 19q-2 4 -2 10q6 430 35 865q-23 -29 -49 -56q-68 -68 -148 -79q-7 -1 -15 -1q-58 0 -101 73q-40 69 -40 151 q0 14 1 28z" />
<glyph unicode="r" horiz-adv-x="743" d="M4 541q2 37 38 77q36 42 78 62q25 12 40 12q10 0 16 -6q87 -80 87 -218q0 -14 -1 -30q14 8 33 21q59 41 106 102q4 6 11 12q2 6 4 11q7 20 52 20h13q14 -2 23 -4q25 -4 24 -20q0 -4 -2 -7q-68 -193 -86 -290q-11 -61 -11 -99q0 -35 9 -51q14 -25 56.5 -14.5t66.5 43.5 q10 14 34 14q16 0 38 -6q30 -8 30 -22q0 -7 -8 -15q-39 -39 -99 -53q-31 -7 -61 -7q-27 0 -53 6q-54 13 -88 65q-27 43 -27 93q0 9 1 19q2 35 9 69.5t19 73.5q4 16 9 29q-56 -29 -111 -41q-20 -129 -102 -297q-25 -53 -86 -53h-6q-37 0 -35 24q0 8 6 19q72 150 112 301 q-39 8 -77 37q-61 47 -62 123zM112 515q-2 -8 -2 -17q0 -26 17 -52q13 -22 27 -28q25 100 36 203q0 6 -4 6q-18 0 -47 -47q-19 -31 -27 -65z" />
<glyph unicode="s" horiz-adv-x="729" d="M4 80q2 6 10 12q61 66 95 107q88 119 139 213h-2q-41 39 -71 68.5t-50 60.5q-24 30 -24 69q-1 15 3 31q12 59 64 78q33 11 70 11q16 0 34 -2q58 -7 70 -32q34 -60 34 -131q0 -68 -32 -145q-2 -8 -6 -17q10 -8 20 -18q104 -102 138 -139q12 -14 22 -31q39 6 68 6 q37 0 57 -10q5 -3 5 -5q0 -6 -23 -13q-4 -2 -13 -3q-16 -4 -69 -14h-2v-2q12 -30 12 -62q0 -10 -1 -21q-5 -44 -40 -75q-46 -35 -100 -35q-6 1 -12 1q-62 4 -113 36q-41 26 -41 70q0 8 2 18q10 58 71 78q33 10 95 19q8 0 12 2l-4 8q-41 63 -111 133q-59 -119 -164 -237 q-52 -60 -104 -60l-18 2q-25 4 -25 17q0 5 4 12zM197 635q-4 -14 -5 -28q0 -30 21 -60q22 -33 63 -78q6 16 13 33q23 63 23 105q0 46 -27 69q-10 8 -22 8q-13 0 -28 -8q-30 -16 -38 -41zM315 96q-1 -1 -1 -2q0 -4 4 -16q6 -16 24 -35.5t47 -24.5h6q21 0 37 27q18 31 25 70 q1 5 1 10q0 13 -7 31q-16 -4 -37 -11q-37 -10 -59.5 -22t-39.5 -27z" />
<glyph unicode="t" horiz-adv-x="604" d="M63 786q-2 4 -2 7q0 8 15 8q2 0 6 -2q16 -1 32.5 -1t32.5 1q10 86 25 176q18 111 23 145q4 31 59 45q18 5 31 5q24 0 24 -21q-6 -45 -26 -186q-12 -80 -23 -144q98 29 170 101q6 7 19 7q17 0 47 -12q28 -10 28 -21q0 -6 -8 -11q-111 -90 -264 -113q-2 -25 -6 -47 q-35 -262 -39 -426q-1 -37 -1 -68q0 -136 21 -178q4 -10 13 -9q16 0 45 30q39 39 61 102q20 57 78 80q45 18 49 -14q0 -8 -2 -19q-10 -37 -16 -61.5t-19.5 -57t-32 -54t-41.5 -34.5q-43 -21 -86 -21q-32 0 -64 11q-76 27 -97 96q-15 57 -19 136q-1 33 -2 61q0 41 3 75 q5 56 16 160q4 27 4 39q12 94 24 191q-20 0 -43 2q-25 2 -35 22z" />
<glyph unicode="u" horiz-adv-x="868" d="M61 299q0 39 4.5 79t13.5 95t11 74q4 43 57 67q19 9 32 9q20 0 24 -21q2 -4 2 -10q-4 -27 -17.5 -117t-15.5 -137q-1 -13 -1 -25q0 -93 40 -161q23 -39 39 -25q35 31 62.5 82t47.5 135q10 41 19 70q6 39 18 90q6 45 21 123q8 39 63 57q17 6 28 6q21 0 23 -20v-6v-5v-6 q-4 -33 -15 -100.5t-17 -108.5t-12.5 -99t-6.5 -107q1 -66 21 -115q18 -42 38 -42q3 0 7 1q66 25 121 174q14 37 71 51q12 2 21 2q28 0 28 -22q0 -6 -2 -11q-41 -158 -139 -210q-45 -20 -95 -22q-4 0 -8 -1q-46 1 -90 27q-48 28 -65 82l-4 12q-27 -39 -57 -72 q-24 -24 -70 -24q-16 0 -34 2q-70 12 -124 63q-39 37 -39 154v12z" />
<glyph unicode="v" horiz-adv-x="681" d="M-12 467q-2 14 -2 27q0 56 34 94q35 33 50 -2q4 -7 6 -15q4 -37 13 -103.5t15.5 -108.5t16.5 -95t24 -96q30 -98 55 -98h1q8 2 10 18q6 31 19.5 102.5t21.5 108.5q6 33 31 123q2 10 4 16q-4 2 -11 2q-51 6 -90 50q-30 35 -30 71q0 10 2 21q12 55 74 98q38 26 61 26 q14 0 22 -10q39 -47 58.5 -99t19.5 -114q-2 -2 -2 -6q43 10 72 35q51 42 103 42q7 0 14 -1q23 -2 23 -13q0 -8 -13 -22q-2 -4 -6 -6q-78 -66 -193 -76q-2 -31 -6 -55q-4 -41 -20.5 -114.5t-22.5 -100.5q-12 -72 -51 -120q-30 -37 -78 -37q-14 0 -29 3q-94 18 -145 176 q-20 68 -51 279zM260 498q14 -15 37 -21q12 53 14 90q3 27 3 45q0 33 -10 33h-1q-4 -2 -10 -14q-39 -76 -39 -111q0 -14 6 -22z" />
<glyph unicode="w" horiz-adv-x="989" d="M-45 596q-1 4 -1 8q0 32 42 58q43 28 51 -5q10 -59 18.5 -199.5t24.5 -228.5t53 -118q63 143 105 268q2 66 12 141q10 68 72 90q23 8 37 4h2q49 2 45 -26q0 -4 -4 -17q-12 -57 -19.5 -88.5t-23.5 -93.5q-8 -31 -17 -55v-41q-2 -35 1 -56.5t8.5 -47t15.5 -43t22 -31.5 q6 -4 24.5 17.5t44.5 64.5t53.5 98t53.5 125q16 41 29 82q-12 6 -22 14q-42 31 -62 85q-15 39 -14 77q0 15 2 29q6 37 49 50q27 8 52 8q16 0 32 -3q45 -12 77 -38q30 -24 30 -52q0 -58 -25 -164q27 8 82 24q79 25 98 25q5 0 6 -2q2 -8 -43 -39q-77 -47 -147 -47h-6 q-41 -156 -125 -313q-29 -53 -77 -78q-34 -18 -69 -18q-14 0 -28 3q-51 12 -95 54q-23 23 -36 51q-12 -18 -25 -33q-20 -27 -51 -46t-64 -19q-27 0 -49 21.5t-40.5 66.5t-32 87t-26.5 112.5t-20.5 110.5t-17.5 112q-2 10 -2 16zM618 700q1 -41 15 -86v9q4 43 6 51q1 8 1 14 q0 19 -13 25q-2 1 -3 1q-4 0 -6 -7v-7z" />
<glyph unicode="x" horiz-adv-x="839" d="M123 508q2 6 4 14q53 58 121 70q14 2 26 3q49 0 80 -36q12 -16 20.5 -35.5t13.5 -48.5t7 -45q0 -6 2 -14q47 80 99 168q10 19 41 19q12 0 28 -3q49 -10 33 -39q-98 -172 -188 -305v-2q2 -47 4 -71.5t8 -57.5t19.5 -54.5t31.5 -35.5q9 -6 20 -6q25 -1 61 31q52 46 79 110 q20 41 20 93q-1 9 -1 17q-4 62 -36 76l-86 -10q-49 0 -12 29q25 20 57 20q36 0 82 -25q86 -48 101 -122q2 -13 2 -26q0 -34 -14 -70q-20 -50 -56 -80q-76 -68 -169 -73h-13q-85 0 -150 60q-23 23 -34 60q-4 6 -5 12q-51 -66 -100 -119q-12 -13 -30 -13q-16 0 -37 11 q-35 18 -13 39q78 94 162 219q-2 47 -2 66q-4 35 -11 92t-7 72q-6 55 -24 55h-3q-8 -2 -16 -25q-14 -39 -70 -49q-8 -1 -15 -1q-32 0 -30 30z" />
<glyph unicode="y" horiz-adv-x="692" d="M54 340q-1 20 -1 40q0 35 4 69q4 59 62 88q18 9 30 9q18 0 23 -20q2 -6 0 -16q-3 -69 -3 -118q0 -118 17 -126q2 0 4 2q78 80 134 299q8 33 65 47q14 3 25 3q20 0 24 -13q6 -4 11 -14q2 -7 2 -17q4 -68 20 -205t25 -229q4 -33 6 -67q46 12 76 12q14 0 24 -2q9 -2 9 -7 q0 -9 -36 -30q-33 -20 -71 -22q1 -23 1 -47.5t-1 -49.5q0 -121 -21 -217q-14 -78 -101 -113q-49 -20 -98 -20q-38 0 -77 12q-66 20 -109 93t-43 155q0 70 41 132.5t111 88.5q26 10 65 10q30 0 68 -6q27 -4 47 -6q-2 25 -4 49q-6 86 -23 244q-29 -57 -67 -96q-38 -38 -97 -38 h-8q-65 3 -110 48q-20 23 -24 78zM174 -100q-16 -66 -16 -117.5t16 -87.5q18 -39 59 -57q29 -12 57 -12q11 0 22 2q38 7 46 34q27 78 31 211q0 84 -2 156q-4 2 -6 2q-38 7 -62 7q-10 0 -18 -1q-43 -6 -80 -49t-47 -88z" />
<glyph unicode="z" horiz-adv-x="829" d="M162 90q12 63 54 128t135 169.5t112 126.5q102 125 256 160q-2 -2 -2 -6q-25 -35 -83.5 -96.5t-74.5 -84.5q-186 -240 -280 -397q-6 -8 -11.5 -17.5t-9.5 -14.5t-8 -13q-20 -29 -21 -37q1 -4 7 -6q-29 8 -48 23q-27 21 -27 51q0 7 1 14zM236 2h2h-2zM238 2q8 -2 20 -2 q12 2 227 25q27 3 48 3q53 0 69 -18q8 -8 -12 -12q-4 0 -10 -2q-86 -8 -158 -9h-20q-61 0 -115 5q-26 4 -49 10zM328 692q-3 2 -3 4q0 4 13 6q10 3 24 3q39 0 97.5 6t98.5 11q33 4 69 4h15q44 -1 73 -13q20 -6 6 -35q-63 -4 -250 -8h-17q-98 0 -126 22zM719 674q14 4 31 6 q-8 -2 -29 -2q0 -2 -2 -4z" />
<glyph unicode="{" horiz-adv-x="1001" d="M-139 573q-31 20 2 35q8 4 20 6q70 14 114 55.5t64 94.5q35 96 52 246q4 29 8 102.5t12 126.5t27 100q35 90 126 141.5t201 53.5q76 2 117 -33q23 -20 -10 -22q-11 0 -25 2q-184 -12 -231 -113q-33 -70 -55 -281q-47 -393 -279 -505q53 -6 86 -13q55 -8 116.5 -30.5 t86.5 -59.5q29 -43 34 -102.5t-3.5 -146.5t-6.5 -130q8 -240 113 -317q70 -49 160 -25.5t139 103.5q37 57 121 78q70 18 70 -21q0 -14 -11 -33q-55 -106 -155.5 -157.5t-198.5 -40.5q-104 8 -199.5 62t-144.5 151q-14 27 -24.5 56.5t-16.5 53t-9 57t-4 53t1 55.5t3 48.5 l4 50t3 43.5q2 45 3 86t-29.5 77t-96.5 52q-63 16 -104 27q-47 -8 -80 14z" />
<glyph unicode="|" horiz-adv-x="331" d="M65 387q-6 266 1.5 452.5t23.5 489.5q2 41 70 70q72 29 90 -6q2 -7 2 -15q-49 -922 -21 -1372q2 -37 -55 -80q-59 -47 -74 -8q-2 4 -2 8q-29 195 -35 461z" />
<glyph unicode="}" horiz-adv-x="815" d="M-182 -375q-45 37 6 99q43 51 74 40q14 -6 16 -24q0 -6 2 -28.5t4 -34t7 -27t17.5 -24.5t30.5 -15q49 -12 97.5 1t77.5 42q86 92 149 287q14 47 38.5 130t40 135t42 123.5t53.5 120t68 97.5q12 16 26 31q-39 10 -53 15t-47 17.5t-51.5 24.5t-44 30.5t-48 45t-44.5 59.5 q-6 8 -12.5 19.5t-10.5 20.5t-8 22.5t-7 22.5t-6.5 24.5t-5.5 23.5t-5 25.5t-3 22.5t-3 24.5t-3 23.5q-8 49 -16.5 124t-13.5 117t-14 90t-24.5 74t-40.5 36q-12 8 -53 16q-45 10 -44 17.5t32 15.5q203 -6 266 -137q16 -35 25.5 -78t15.5 -107.5t10 -89.5q27 -174 76 -313 t88 -150q35 -10 62 -20q20 20 43 35q41 27 88 -13q35 -27 14 -38q-6 -4 -18 -7q-25 -37 -50.5 -86t-52 -122.5t-46 -129t-54.5 -163t-55 -164.5q-80 -240 -230 -314q-82 -45 -203.5 -37.5t-201.5 70.5z" />
<glyph unicode="~" horiz-adv-x="1361" d="M29 385q-4 16 4 45q63 125 137 194.5t145 67.5q53 -2 119 -30.5t107 -54t118 -81.5q33 -23 52.5 -36t51.5 -32.5t54.5 -28.5t49 -18.5t49 -8.5t42.5 10q115 49 156 266q10 53 79 89t85 -3q4 -10 4 -23q-18 -258 -158 -344q-160 -100 -379 -2q-68 29 -171 108t-144 101 q-63 35 -118.5 -1t-92.5 -124q-31 -78 -108 -108q-68 -29 -82 14z" />
<glyph unicode="&#xa1;" horiz-adv-x="475" d="M201 559q-4 41 28 86q33 43 60 8q70 -233 89 -518t15 -661q0 -37 -67 -70q-72 -37 -84 0q-2 6 -2 12q-2 98 -3 290t-2.5 311.5t-9.5 274t-24 267.5zM211 942v19.5v26.5v28.5t2 29t4 23.5t7 18.5t9 8.5q115 12 152 -58q27 -55 -27 -96q-41 -33 -112 -31q-6 1 2 9 q-31 2 -37 22z" />
<glyph unicode="&#xa2;" horiz-adv-x="1107" d="M96 352q-35 152 27.5 317t179.5 267q125 111 324 111h6q33 92 69 180q20 53 97 71q72 14 80 -26q2 -8 -2 -21q-43 -104 -86 -223q113 -31 174 -108q68 -84 18 -168q-31 -51 -65 -41q-21 6 -23 41q-43 178 -123 219h-2q-14 -45 -31 -90q-68 -205 -104.5 -334t-110.5 -395 q-16 -63 -32 -119q8 -2 16 -2q74 -4 131 22q102 45 170 172q49 88 141 125q68 25 76 -10q4 -18 -14 -51q-84 -154 -217 -238t-260 -74q-29 2 -56 9q-37 -131 -53 -193q-14 -57 -92 -63q-63 -6 -78 30q-4 12 0 27q25 82 74 256q-33 20 -68 47q-127 102 -166 262zM252 524 q-16 -139 22 -258q27 -88 76 -149q14 51 31 108q88 322 162 557q33 104 69 207q-59 -12 -108 -45q-100 -66 -168 -174t-84 -246z" />
<glyph unicode="&#xa3;" horiz-adv-x="1318" d="M-98 121q10 68 53 127t104 92q88 49 189 33q-2 20 -6 43q-10 61 -43 180q-94 10 -189 31q-33 6 -43 45q-8 25 8 24q8 0 21 -6q88 -23 184 -35q-2 6 -4 13q-51 174 -65 268q-25 168 57 322.5t256 238.5q115 57 309 2q225 -61 268 -180q68 -178 -2 -295q-35 -57 -67 -45 q-30 10 -14 76q-2 193 -60 278q-45 66 -117.5 103t-148.5 30q-72 -6 -143.5 -52t-126.5 -118q-86 -111 -68 -276q12 -115 74 -344q2 -16 6 -31q35 -2 67 -2q221 2 414 57q33 10 74 -20q35 -29 -6 -39q-258 -68 -533 -57q39 -150 45 -183q12 -55 19 -104q45 -37 84 -94 q14 -20 42.5 -65.5t47 -69t45 -56t55.5 -53t62 -35.5q63 -23 123.5 -19.5t103.5 27.5q49 27 77.5 76t20.5 94q-35 244 -31 283q8 74 95 -31q51 -61 78.5 -135t17.5 -141q-10 -84 -81 -145.5t-155 -69.5q-152 -12 -295 29.5t-225 138.5q-18 23 -43 53q-14 18 -28 35 q-10 -41 -29 -74q-57 -98 -163.5 -149.5t-192.5 -16.5q-63 25 -97.5 97.5t-23.5 144.5zM57 68q-18 -102 4 -138q16 -20 53.5 -0.5t57.5 56.5q61 100 78 202q6 44 6 93q-12 8 -23 10q-20 8 -42.5 7t-45.5 -13q-16 -8 -29.5 -23.5t-21.5 -31t-15 -42t-9 -41t-7.5 -44 t-5.5 -35.5z" />
<glyph unicode="&#xa4;" horiz-adv-x="1255" d="M2 1141q-14 14 10 59q27 45 49 17q77 -85 181 -191q70 51 153 80q172 59 334 4q72 -25 100 -76q6 -2 15 -4q137 72 190 148q6 10 82 -15q61 -18 58 -39q0 -4 -5 -8q-29 -27 -57.5 -48t-67 -40.5t-59.5 -28.5q-10 -6 -29 -14q78 -45 117 -137q41 -92 23 -191 q-25 -139 -146 -262q90 -98 187 -174q18 -16 12 -53q-4 -31 -31 -14q-121 76 -235 182q-100 -76 -219 -92q-182 -23 -293 53q-18 12 -35 27q-68 -41 -176 -107q-14 -8 -53 24.5t-11 49.5q90 55 164 104q-72 76 -113 174q-72 162 -22 308q16 49 53 92q-18 18 -41 39 q-88 86 -135 133zM356 492q119 -156 209 -156q70 0 136.5 47t115.5 119q94 137 88 286q-4 70 -49 132.5t-127 91.5q-29 10 -51 18q-100 -20 -174 -57q-90 -45 -125 -109q-57 -111 -21 -336q2 -18 -2 -36z" />
<glyph unicode="&#xa5;" horiz-adv-x="1357" d="M23 842q-18 27 16 28q104 8 188 25q-117 266 -180 387q-20 43 6 94q22 47 53 8q41 -68 83 -144.5t73 -136t74 -153.5q10 -20 20 -39q8 -6 17 -16q27 -25 8 -35q12 -29 20 -47q20 -45 68 -154q33 -76 51 -114q205 387 453 870q12 12 50 12t74 -16t23 -39 q-154 -297 -264 -508q201 6 307 47q14 8 54 -28q37 -33 2 -41q-37 -10 -75 -16.5t-85 -9.5t-72.5 -3h-83t-72.5 -2h-4q-113 -205 -180 -317q70 6 117 14q82 12 190.5 39.5t188.5 66.5q27 12 98 -16q61 -23 21 -41q-78 -33 -174.5 -57.5t-173 -37.5t-197.5 -22q-55 -4 -99 -6 q2 -39 5 -88q2 -113 4 -180.5t7 -162.5t11 -173q2 -29 -57 -63q-72 -41 -82 -3q-2 2 -2 7q-6 39 -10.5 76.5t-8.5 82.5t-7 76t-5 83t-3 73.5t-3 82t-2 73t-2 79.5v4q-4 4 -8 11q-2 4 -4 6l-5 10q-49 -2 -114 -2q-139 -4 -185 -6q-47 0 -71 26q-16 20 22 25q166 4 226 4 q33 2 96 4q-70 137 -166 357q-82 -10 -197 -17q-18 -2 -34 23z" />
<glyph unicode="&#xa6;" horiz-adv-x="411" d="M80 -63q4 78 0 275.5t2 293.5q2 27 78 37q86 10 88 -27q0 -2 -2 -4q-6 -80 -7 -165t1 -216t2 -176q0 -16 -41 -32.5t-81 -14.5t-40 29zM158 887q-29 244 10 526q2 14 44 25.5t83 6.5t37 -32q-41 -270 -31 -475q0 -14 -35 -37.5t-66.5 -31t-41.5 17.5z" />
<glyph unicode="&#xa7;" horiz-adv-x="1058" d="M96 504q-41 86 0 196.5t129 157.5q102 55 176 27q39 -16 17 -35q-8 -8 -31 -12q-127 -90 -149 -209q-14 -61 6 -124t73 -104q61 -47 244 -147q47 -29 88 -53q6 2 13 4q70 23 115.5 64.5t49.5 82.5q12 129 -45 211q-47 68 -125.5 139.5t-127 106.5t-152.5 109q-4 2 -15 8 q-45 31 -68.5 51t-56 56t-42 79t3.5 94q27 123 231 221q129 63 272 37q76 -14 144.5 -68.5t87.5 -129.5q23 -86 -41 -152q-49 -49 -82 -16q-10 10 -16 30q-2 25 -4.5 64t-3.5 62.5t-8 52t-17 49.5q-25 45 -85.5 54t-117.5 -17q-61 -29 -111.5 -76t-76.5 -103 q-35 -72 -28 -127t65 -102q45 -37 184 -136t213 -165q145 -133 170 -248q16 -86 -38 -158.5t-138 -103.5q-43 -14 -78 -20q63 -43 104 -80q55 -51 87 -125t26 -142q-6 -86 -70.5 -141t-144.5 -67q-145 -23 -285 45q-78 39 -136 100t-58 135q-2 109 82 152q59 31 86 0 q14 -18 4 -49q-43 -117 -13 -195q20 -55 78 -96t123.5 -45t120.5 32.5t66 88.5q6 14 -0.5 79.5t-24.5 110.5q-20 51 -60 97t-100.5 90t-110 74t-126.5 73q-6 4 -58.5 31.5t-70 38t-53 36t-56 51t-35.5 56.5z" />
<glyph unicode="&#xa8;" horiz-adv-x="614" d="M56.5 1358.5q9.5 60.5 47.5 107.5q4 6 39 -6t61.5 -32.5t14.5 -36.5q-18 -51 -22 -103q0 -4 -29 -26.5t-57.5 -35t-40.5 8.5q-23 63 -13.5 123.5zM375 1380q0 4 40 13.5t80 8t40 -21.5q-4 -70 -5 -71q2 -4 -19.5 -26.5t-45 -37t-37.5 1.5q-51 74 -53 133z" />
<glyph unicode="&#xa9;" horiz-adv-x="1568" d="M-112.5 845q26.5 144 106.5 273q72 115 185.5 207t240.5 137q258 90 524 29q373 -88 486 -295q72 -133 6 -227q-37 -53 -72 -43q-26 8 -18 55q-20 129 -88 239.5t-187 172.5q-109 57 -246 66t-264 -29q-223 -66 -385 -295q-150 -211 -145 -437q2 -125 53 -242.5 t137 -207.5q92 -90 212 -149.5t249 -75.5q139 -20 272 13.5t220 115.5q82 76 125.5 197.5t37.5 252.5q-10 186 45 277q35 57 60 2q6 -14 10 -37q16 -92 24.5 -153.5t11.5 -150.5t-15.5 -166t-61.5 -143q-80 -129 -227.5 -195.5t-313.5 -72.5q-293 -14 -565 135 q-141 76 -248.5 192t-154.5 259q-41 152 -14.5 296zM336 799q8 137 90 248.5t192 164.5q109 53 269 25q182 -33 252 -139q45 -70 -13 -131q-39 -45 -71 -31q-17 6 -17 31q-29 109 -106.5 173t-171.5 40q-80 -18 -145.5 -101.5t-96.5 -195.5q-35 -111 -26.5 -218.5 t63.5 -154.5q80 -68 193.5 -46.5t166.5 107.5q31 51 115 80q74 25 72 -16q-2 -10 -8 -25q-59 -133 -197.5 -183t-271.5 -19q-117 27 -207 135t-82 256z" />
<glyph unicode="&#xaa;" horiz-adv-x="1071" d="M51 1024q-6 72 44 140.5t124 90.5q94 29 244 -24q6 -2 12 -6q2 4 2 6q10 47 15 59q4 18 13 57t13 61t8 47.5t1 39.5t-13 21q-74 37 -147.5 -9.5t-85.5 -109.5q-8 -31 -68 -58q-80 -35 -94 21q-2 6 -4 14q37 88 102.5 143.5t147.5 59.5q119 8 209 -43t95 -138t-34 -235.5 t-43 -169.5q-4 -39 21.5 -67.5t80.5 -22.5q43 6 76 35t45 65q14 41 88 66q80 27 86 -20q2 -10 -2 -25q-16 -68 -76.5 -114t-132.5 -56q-205 -35 -268 25l-16 16q0 -2 -2 -2q-113 -59 -224 -45q-78 10 -143.5 57t-73.5 121zM217 932q14 -29 62.5 -28t99.5 32q39 22 82 16 q-4 12 -6 27q-4 33 -6.5 57.5t4.5 65.5q4 33 8 53q-88 31 -146 16q-70 -18 -92 -81q-35 -98 -6 -158z" />
<glyph unicode="&#xab;" horiz-adv-x="1105" d="M70 543q-14 49 37 104t155.5 132t149.5 120q35 35 100 16q53 -14 37 -47l-8 -12q-59 -49 -157.5 -113.5t-156 -106.5t-61.5 -69q0 -8 9 -21.5t31.5 -32.5t45 -36.5t60.5 -44t64.5 -44t69.5 -47.5t66 -44q33 -23 31 -68q-2 -35 -31 -20q-2 2 -6 4q-43 31 -155.5 89 t-188.5 115.5t-92 125.5zM586.5 611.5q-0.5 35.5 12.5 62t53 60.5t72 55.5t93 58.5q51 29 105 4q45 -20 8 -49q-2 -2 -6 -4q-23 -12 -52.5 -30.5t-49 -31t-44 -28t-42 -25.5t-36 -20.5t-32 -15.5t-25.5 -9t-19.5 -4t-11.5 4q137 -137 361 -281q43 -27 51 -59q4 -16 -14 -12 q-6 0 -17 4q-281 111 -377 248q-29 37 -29.5 72.5z" />
<glyph unicode="&#xac;" horiz-adv-x="1216" d="M106 707q-22 18 15 32q156 10 493 -2q256 -8 377 0q8 16 19 31q12 23 69 -8q43 -29 41 -51q35 -27 -4 -31h-6q-37 -135 2 -326q2 -12 -33 -33.5t-66.5 -27.5t-41.5 14q-14 72 -19.5 109t-8.5 106.5t13 130.5q2 10 7 23q-117 2 -295 12q-326 20 -488 0q-43 -4 -74 21z" />
<glyph unicode="&#xad;" horiz-adv-x="763" d="M160 582q-6 12 6 12q4 0 10 -2q238 -33 455 29q25 8 47 -17q14 -14 -8 -20q-231 -57 -477 -27q-25 4 -33 25z" />
<glyph unicode="&#xae;" horiz-adv-x="1617" d="M0 737q4 121 51 241t127 214q82 96 190.5 158.5t225.5 74.5q178 16 270 -24q29 -12 4 -15q-16 -1 -57 9q-274 0 -418 -107q-178 -131 -252 -354q-78 -236 -8 -438q35 -100 116 -182.5t193 -120.5q205 -76 473 -23q127 27 238 86t172 143q66 88 93.5 202t15.5 230 q-14 125 -62.5 239t-124.5 187q-47 45 -117 105q-35 29 -38 35q-4 4 4 2q10 -2 41 -15q115 -47 209 -151.5t145 -239.5q47 -117 46 -258t-54 -258q-49 -104 -151.5 -183t-235.5 -122q-221 -74 -471 -49q-279 29 -432 164q-92 82 -143.5 202.5t-49.5 247.5zM330 997 q84 43 172 68q4 25 49 43q51 20 51 -14v-7q10 2 21 5q154 23 290 -11q47 -12 79 -54t16 -85q-8 -18 -34 -38.5t-44.5 -31t-57.5 -30.5q-111 -55 -221 -70q158 -45 236 -233q53 -127 104 -117q45 8 74 50t25 75q-2 39 30 71q27 29 41 -4q27 -63 -3 -132.5t-103 -90.5 q-59 -16 -122 3.5t-93.5 66.5t-62.5 120.5t-59.5 113.5t-74.5 55q-25 8 -41 14q2 -215 6 -295q2 -29 -47 -51q-45 -23 -47 10q-14 178 -12 598q-41 -16 -80 -41q-49 -33 -90 -24q-27 6 -2 36zM602 803q106 12 182 55q49 31 87 71t51.5 64.5t9.5 28.5q-88 61 -240 51 q-45 -4 -90 -14v-256z" />
<glyph unicode="&#xaf;" horiz-adv-x="886" d="M18 1348q-8 12 11 14h6q125 0 239.5 -1t243.5 8t230 30q25 6 51 -17q20 -16 -6 -20q-141 -29 -355.5 -34t-371.5 1q-31 0 -48 19z" />
<glyph unicode="&#xb0;" horiz-adv-x="770" d="M90 1081q2 90 75 168t169 103q72 16 110 -13q18 -12 -4 -16h-20q-78 -23 -134.5 -69t-76.5 -109q-27 -70 -8.5 -151t82.5 -107q74 -31 154.5 7t117.5 107q41 74 38 164t-54 140q-12 10 -82 57q-10 6 2 4q8 -2 22 -6q109 -29 170.5 -127t24.5 -201q-31 -90 -126 -144 t-198 -46q-104 8 -184 77.5t-78 161.5z" />
<glyph unicode="&#xb1;" horiz-adv-x="1318" d="M78 668q-25 31 24 34q70 -2 244 -8q143 -4 238 -8q10 84 16 150q12 121 21 233q2 33 50 53.5t52 -10.5v-4q-4 -92 -14.5 -201.5t-18.5 -181.5q-2 -16 -4 -39q80 0 180 2q139 4 242 17q20 2 61 -37q47 -41 -4 -47q-201 -10 -319 -9q-66 2 -168 4q-6 -43 -12 -96 q-16 -135 -21 -182q-4 -33 -55 -49q-51 -13 -51 18q8 66 28 238q4 39 8 76q-39 2 -83 2q-236 10 -351 12q-37 0 -63 33zM174 61q-20 39 14 37q9 0 21 -2q369 -51 946 -49q43 2 74 -39q29 -35 -23 -39h-6q-604 -2 -969 45q-35 4 -57 47z" />
<glyph unicode="&#xb2;" horiz-adv-x="751" d="M-120.5 649.5q14.5 59.5 59.5 81.5q106 55 284 -63q23 25 43 51q106 135 154 289q25 78 35 134t3 113.5t-46 88t-106.5 -37t-121.5 -171.5q-43 -88 -112 -115q-49 -18 -49 16q0 11 4 25q33 68 54 108.5t61 98t83 94.5q37 31 89.5 39t95.5 -6q53 -18 100 -58.5t49 -74.5 q16 -147 -51.5 -315.5t-192.5 -317.5q-6 -8 -12 -15q115 -68 180 -32q102 57 170 51q45 -2 -12 -39q-2 -2 -6 -4q-96 -59 -209 -55q-84 4 -164 38q-29 -25 -65 -43q-68 -37 -136 -45q-47 -6 -95 10.5t-72 53.5q-29 41 -14.5 100.5zM-25 561q0 -10 7 -20q57 -25 133 28 q34 23 65 54q-18 14 -41 32q-49 37 -75.5 48.5t-47.5 1.5q-14 -6 -19 -19.5t-5 -37v-25.5q-2 -6 -9.5 -29t-7.5 -33z" />
<glyph unicode="&#xb3;" horiz-adv-x="714" d="M41 1143q-2 92 37 159.5t108 90.5q139 43 283 -11q68 -27 101.5 -89t-3.5 -130q-29 -43 -70.5 -73.5t-72.5 -41t-82 -24.5q-2 0 -6 -2q96 -14 158 -49q68 -37 109.5 -101.5t25.5 -130.5q-20 -82 -97 -139t-161 -70q-115 -14 -217 43q-76 41 -88.5 114t63.5 102 q80 29 123 4q27 -14 -14 -29q-6 -2 -15 -2q-88 -20 -94 -68q0 -37 42 -75.5t99 -47.5q76 -10 141.5 38t96.5 128q37 94 -6 158q-29 41 -81 66.5t-108 29.5q-84 6 -90 25q-2 6 10 10q-20 12 29 25q119 33 164 92q90 119 70 160q-23 43 -95.5 60t-136.5 -1q-55 -16 -82.5 -59 t-31.5 -91q-4 -51 -48 -86q-43 -38 -61 15z" />
<glyph unicode="&#xb4;" horiz-adv-x="565" d="M162 1253q47 47 130 138.5t109 121.5q10 4 34 -1t41.5 -20t5 -29.5t-46.5 -51.5t-51 -56.5t-45 -49t-54.5 -55t-51.5 -50.5q-16 -14 -57 14q-32 21 -14 39z" />
<glyph unicode="&#xb5;" horiz-adv-x="1077" d="M-90 -678q10 59 50 263t56.5 287t52 260t59.5 288.5t57.5 259t64.5 278.5q14 57 88 88t94 -6q6 -12 2 -28q-74 -305 -147 -666q12 -125 37 -235q29 -119 65 -119q51 0 104.5 57t89 126t64.5 149q25 70 45.5 180t32.5 196t45 181q18 45 41 84q8 45 12 65q2 8 21 17 q-8 -18 -17 -41q-2 -10 -4 -23q16 25 37 45q16 16 23 31q37 10 71 6q43 -2 43 -29q-150 -852 -110 -1212q0 -8 12 -33q20 -45 8 -47q-6 -2 -20 8q-152 84 -174 357q-4 -6 -8 -13q-84 -109 -199 -155q-78 -29 -162 0q-74 25 -125 77q-61 -311 -123 -657q-10 -61 -86 -84 q-72 -23 -96 14q-8 12 -4 31zM844 1047q10 4 24 10q9 2 15 2q6 14 4 26q-2 23 -23 -2q-10 -12 -20 -36z" />
<glyph unicode="&#xb6;" horiz-adv-x="1087" d="M-71.5 994.5q-20.5 97.5 4 192.5t102.5 146q84 55 171 89t184 44.5t159.5 12.5t173.5 -2t149 -4q96 -2 129 -31q16 -14 -18 -21q-8 -2 -18 -2q-27 0 -113 2h-8q20 -729 20 -1669q0 -66 -73 -108q-68 -39 -91 -2q-6 10 -6 24q0 1030 -14 1667q-2 49 43 90q-37 0 -105 -2 q-23 0 -43 -2v-6q12 -289 15 -682q4 -4 2 -12q0 -2 -2 -4q2 -377 -6 -846q-2 -59 -74 -102q-66 -39 -90 -7q-8 10 -8 27q2 76 5 300t5 331v209q-84 -6 -193 30q-147 49 -229 166q-51 74 -71.5 171.5zM62 1053.5q1 -64.5 24 -119.5q47 -119 153.5 -188.5t176.5 -24.5l8 4 q0 164 -2 303q-2 147 -6 293q-2 43 33 78q-29 -6 -62 -15q-63 -14 -116.5 -40.5t-104.5 -61.5q-51 -37 -78 -100.5t-26 -128z" />
<glyph unicode="&#xb7;" horiz-adv-x="479" d="M130 716q13 40 47 74.5t75 47.5q24 8 51 -21v2q8 10 16.5 18.5t18.5 8.5t20 -12q37 -43 39 -95.5t-22.5 -92.5t-68.5 -60.5t-93 -5.5q-57 18 -76.5 57t-6.5 79zM211 649q20 -14 39 19q14 29 24 69q-12 -16 -22 -32q-10 -14 -19.5 -28.5t-15.5 -21.5q-4 -8 -6 -6z" />
<glyph unicode="&#xb8;" horiz-adv-x="686" d="M113 -485q-10 29 14 30q6 0 14 -4q68 -25 173.5 14t125.5 97q18 57 -12 104q-25 35 -71 51.5t-89 4.5q-37 -10 -71 14q-15 10 -15 18q-2 4 -4 9q-10 18 8 41q41 39 57.5 76.5t30 91t37.5 96.5q10 10 46 2t69 -32t16 -42q-20 -127 -125 -219q70 -6 117 -29 q76 -35 131.5 -99.5t32.5 -115.5q-25 -59 -104.5 -95t-163.5 -46t-168 -6q-37 0 -49 39z" />
<glyph unicode="&#xb9;" horiz-adv-x="772" d="M-14 1157q-10 23 10 23q6 2 16 -2q94 10 162 63q31 27 62 62q2 47 8 92q4 18 50 19t87 -17q14 -4 22 -13q10 -4 23 -8q35 -20 20 -43q-18 -27 -40 -51q-12 -213 34 -534q2 -14 -38 -36t-75.5 -27t-45.5 17q-2 14 -13.5 99.5t-15.5 117t-11.5 109.5t-7.5 127q-2 2 -2 4 q-94 -43 -202 -39q-29 2 -43 37zM94 469q-33 31 6 45q313 119 508 205q27 10 64 -21q39 -33 0 -49q-139 -59 -516 -200q-27 -10 -62 20z" />
<glyph unicode="&#xba;" horiz-adv-x="790" d="M35 1087.5q-37 108.5 0 198.5q53 123 171 182.5t224 28.5q63 -18 43 -82q-14 -43 -41 -47q-16 -2 -22 23q-18 41 -55.5 43t-71.5 -35q-59 -63 -82 -154q-43 -174 37 -272q49 -61 128.5 -72.5t122.5 29.5q59 53 89 123.5t22 122.5q-2 14 -16 53q-23 55 -6 55q8 0 30 -10 q59 -35 85 -95.5t15.5 -122t-51.5 -119.5t-104 -87q-84 -39 -190.5 -19.5t-202.5 87.5q-88 61 -125 169.5z" />
<glyph unicode="&#xbb;" horiz-adv-x="1085" d="M113 874q2 29 18 29q8 0 16 -12q53 -29 167 -63.5t193 -66.5t89 -71t-23.5 -86t-104.5 -97t-127 -85t-132 -76q-29 -16 -66 14.5t-4 51.5q70 45 175.5 159.5t115.5 122.5q8 8 -22.5 20.5t-114.5 40t-150 54.5q-39 14 -30 65zM592 952q-12 25 8 25q13 0 33 -12 q57 -31 158.5 -76t148.5 -74t59 -61q8 -14 4 -35t-9 -35t-21.5 -35.5t-31.5 -38t-39.5 -39t-45 -41t-47.5 -43t-49 -45.5q-37 -37 -109 -16q-57 14 -43 47q4 8 13 16q59 55 116.5 119t87 96.5t33.5 32.5q29 6 -57 58q-43 29 -129 75q-61 35 -80 82z" />
<glyph unicode="&#xbc;" horiz-adv-x="1964" d="M-63 1085q-16 27 10 27h12q133 25 248 109q72 51 125 118q2 41 6 80q2 29 82 39q72 8 88 -12q61 -4 55 -31q0 -4 -2 -8q-27 -43 -55 -82q-16 -223 -4 -561q0 -18 -43 -41t-81 -24t-46 28q0 35 -2 132t-3 147.5t-1 130.5v28q-8 -4 -17 -10q-156 -88 -327 -98 q-25 -2 -45 28zM119 440q12 6 83.5 43t92 48.5t79 43t88.5 50t73 47t75 55.5q20 16 82 -14q63 -35 27 -60q-96 -63 -276.5 -155t-243.5 -131q-23 -12 -68 16q-49 32 -12 57zM338 12q0 15 12 33q66 90 463 662.5t621 867.5q45 61 125 55q57 -4 57 -39q0 -14 -12 -30 q-207 -276 -571.5 -804t-506.5 -724q-45 -61 -127 -58q-59 2 -61 37zM989 182q-76 61 31 240q8 14 27.5 48t31 51.5t25.5 45t24.5 50t18.5 42.5q8 23 53 40.5t87 10t38 -45.5q-37 -74 -93 -195t-85 -179.5t-37 -58.5q37 2 77 7.5t70.5 9.5t71.5 14q33 8 53 14q2 96 2 144 q2 59 1 158.5t-5 179.5q-2 18 36 45.5t74 34t46 -22.5q18 -197 14 -483q14 6 33 12q45 20 56.5 24.5t60.5 26t57 25.5q51 23 105 -6q45 -23 4 -45l-8 -4q-135 -55 -308 -103q-2 -84 -4 -176q0 -29 -71 -53q-84 -29 -97 8q-2 4 -2 10q2 37 4 168q-76 -18 -157 -35 q-12 -2 -45 -10t-52.5 -11t-47 -5t-49 4t-40.5 20z" />
<glyph unicode="&#xbd;" horiz-adv-x="1775" d="M61 1143q-33 25 7 37q4 0 10 2q27 20 67.5 55t71.5 61.5t70 57.5q12 10 26 18q0 12 2 23q8 49 52 30l16 -8q14 6 27 11q29 12 49 6t33 -27q27 -49 29.5 -130t-7.5 -148.5t-31.5 -179t-27.5 -160.5q-6 -33 -52.5 -45.5t-89.5 0t-37 40.5q16 80 19 291q2 59 4 113 q-63 -45 -131 -64q-63 -18 -107 17zM133 618q-22 29 17 31q190 39 378 139q18 8 58 -24q45 -35 8 -51q-201 -96 -418 -121q-23 -2 -43 26zM274 -16q-2 12 7 26q82 152 343 623t400 729q29 53 111 59q72 6 73 -35q2 -10 -4 -22q-362 -662 -755 -1372q-31 -55 -107 -49 q-63 4 -68 41zM839.5 76.5q22.5 44.5 84 68t120.5 11.5q29 -6 95 -25q37 41 75 92q102 133 148 266q2 12 12 40t14.5 39.5t11.5 36t9 37.5t6 32.5t3 33t-2 28t-7 26.5t-16 20q-39 43 -120 -13t-106 -134q-10 -31 -29.5 -62.5t-45 -56t-53.5 -18.5t-48 53q25 119 101.5 204 t181.5 107q51 10 108.5 -3t100.5 -48q53 -45 75.5 -106.5t6.5 -118.5q-51 -178 -162 -344q-57 -86 -127 -156q147 -47 225 -47q154 -2 189 -29q16 -12 -25 -24q-8 -2 -23 -6q-27 -6 -59.5 -7.5t-60 1.5t-69.5 13.5t-66.5 16.5t-72.5 20.5t-69 20.5q-4 2 -8 2 q-43 -39 -90 -74q-70 -51 -161 -52t-132 54q-37 57 -14.5 101.5zM946 100q2 -14 33 -18q-6 0 -21 -37q-12 -39 -6 -43q27 -20 103 45q23 18 45 43q-27 6 -49 12q-41 10 -76 13q-31 2 -29 -15zM979 82z" />
<glyph unicode="&#xbe;" horiz-adv-x="1992" d="M92 1157q55 119 165 172t241 39q61 -6 127.5 -44t56.5 -75q-39 -139 -221 -207q53 12 121.5 3t111.5 -44q66 -55 62 -135t-64 -129q-109 -88 -236.5 -120.5t-230.5 16.5q-68 39 -26 110q27 49 61 52q20 2 21 -29q2 -68 71.5 -80t149.5 43q80 53 98 139q2 6 10 22.5 t14.5 29t6.5 28t-13 21.5q-23 16 -69.5 26.5t-81.5 17.5t-57.5 35.5t-12.5 79.5q4 23 62.5 59t60.5 58l4 4q6 6 10.5 14.5t6.5 16.5t-4.5 16.5t-18.5 12.5q-78 27 -162 -7t-102 -96q-6 -16 -23.5 -39.5t-41 -44t-51.5 -14.5t-46 49zM395 -68q125 201 434.5 752t436.5 770 q27 43 106 29q63 -10 62 -43q-1 -11 -7 -19q-47 -84 -265 -473t-365.5 -637t-284.5 -442q-16 -16 -48 -10t-56.5 30.5t-12.5 42.5zM1089.5 316.5q-2.5 17.5 3 48t8.5 50t14 57.5t17.5 58.5t18.5 63.5q14 45 23 70q12 43 81 73q82 37 97 -16q0 -6 2 -10q-35 -125 -79 -240 t-74 -172t-38 -59q147 35 269 63q10 217 43 496q4 33 75 59q84 29 97 -8q2 -6 0 -14q-4 -68 -15.5 -174.5t-17.5 -169.5q-6 -59 -12 -150q139 31 223 47q47 8 78 -20q25 -23 -13 -33h-6q-68 -14 -196 -57q-45 -16 -93 -29q-2 -51 -2 -88q2 -61 4 -164q2 -37 -65 -68 q-76 -35 -94 -2q-2 7 -2 15q-10 115 -6 260q-113 -25 -203 -19q-29 2 -52.5 9.5t-39 20.5t-26.5 25.5t-14 36t-5.5 41z" />
<glyph unicode="&#xbf;" horiz-adv-x="1187" d="M119 -131q-53 106 12.5 226t173.5 179q207 115 227 218q14 78 74 131q68 61 94 -15q5 -10 7 -22q-14 -70 -44 -126.5t-77 -102.5t-83 -73.5t-95 -66.5q-88 -57 -127 -143t-15 -178q31 -111 146.5 -174.5t269.5 -40.5q78 10 135 58t90 109q31 61 31 144q0 47 -21.5 89 t-48.5 32q-74 -33 -149 -21q-61 12 -12 45q8 6 20 13q82 39 167 28.5t144 -59.5q57 -47 67.5 -138.5t-32.5 -162.5q-51 -88 -158.5 -142.5t-234.5 -60.5q-186 -8 -341 55.5t-220 198.5zM504 1104q2 23 84 22q48 -2 71 -14q2 2 9 2h12q57 -10 87 -45t28 -74t-33 -69.5 t-80 -34.5q-72 -4 -127 67.5t-51 145.5zM666 952q0 -2 12 20.5t21.5 49.5t5.5 35q0 2 -15 14q-8 6 -12 12q-27 -125 -12 -131z" />
<glyph unicode="&#xc0;" d="M-53 -41q39 254 88 496h-15q-35 0 -61 34q-23 31 21 31h6h63q106 506 262 973v33q0 25 31 51q37 47 127 65q88 18 88 -30q0 -6 -2 -15q-20 -70 -39 -129q10 -537 55 -917q92 12 174 29q35 6 72 -31q37 -35 -14 -45q-104 -18 -221 -29q35 -266 90 -467q14 -49 -10 -112 q-20 -55 -50 -9q-139 229 -211 574q-74 -2 -151 -4q-51 -229 -84 -445q-10 -55 -94 -90q-86 -33 -117 2q-12 14 -8 35zM264 526q64 2 123 6q-27 145 -43 316q-45 -168 -80 -322zM295 1782q-4 18 12 18q4 0 10 -2q125 -33 232 -39q14 -2 29 -24q12 -23 -17 -23 q-111 6 -244 39q-16 4 -22 31z" />
<glyph unicode="&#xc1;" d="M-53 -41q39 254 88 496h-15q-35 0 -61 34q-23 31 21 31h6h63q106 506 262 973v33q0 25 31 51q37 47 127 65q88 18 88 -30q0 -6 -2 -15q-20 -70 -39 -129q10 -537 55 -917q92 12 174 29q35 6 72 -31q37 -35 -14 -45q-104 -18 -221 -29q35 -266 90 -467q14 -49 -10 -112 q-20 -55 -50 -9q-139 229 -211 574q-74 -2 -151 -4q-51 -229 -84 -445q-10 -55 -94 -90q-86 -33 -117 2q-12 14 -8 35zM264 526q64 2 123 6q-27 145 -43 316q-45 -168 -80 -322zM332 1718q113 61 190 119q10 8 49 -22q41 -31 17 -48q-55 -35 -209 -112q-12 -6 -41 20 q-33 31 -6 43z" />
<glyph unicode="&#xc2;" d="M-53 -41q39 254 88 496h-15q-35 0 -61 34q-23 31 21 31h6h63q106 506 262 973v33q0 25 31 51q37 47 127 65q88 18 88 -30q0 -6 -2 -15q-20 -70 -39 -129q10 -537 55 -917q92 12 174 29q35 6 72 -31q37 -35 -14 -45q-104 -18 -221 -29q35 -266 90 -467q14 -49 -10 -112 q-20 -55 -50 -9q-139 229 -211 574q-74 -2 -151 -4q-51 -229 -84 -445q-10 -55 -94 -90q-86 -33 -117 2q-12 14 -8 35zM264 526q64 2 123 6q-27 145 -43 316q-45 -168 -80 -322z" />
<glyph unicode="&#xc3;" d="M-53 -41q39 254 88 496h-15q-35 0 -61 34q-23 31 21 31h6h63q106 506 262 973v33q0 25 31 51q37 47 127 65q88 18 88 -30q0 -6 -2 -15q-20 -70 -39 -129q10 -537 55 -917q92 12 174 29q35 6 72 -31q37 -35 -14 -45q-104 -18 -221 -29q35 -266 90 -467q14 -49 -10 -112 q-20 -55 -50 -9q-139 229 -211 574q-74 -2 -151 -4q-51 -229 -84 -445q-10 -55 -94 -90q-86 -33 -117 2q-12 14 -8 35zM188 1688q37 84 101.5 112.5t138.5 11.5q25 -6 70 -18t69.5 -18.5t52 -6.5t44.5 11q8 6 67 -25q49 -27 17 -37q-31 -10 -63 -11t-64.5 5t-57 13.5 t-61.5 18.5t-58 17q-59 14 -87.5 -4t-20.5 -53q2 -14 -35 -30.5t-75 -15.5t-38 30zM264 526q64 2 123 6q-27 145 -43 316q-45 -168 -80 -322z" />
<glyph unicode="&#xc4;" d="M-53 -41q39 254 88 496h-15q-35 0 -61 34q-23 31 21 31h6h63q106 506 262 973v33q0 25 31 51q37 47 127 65q88 18 88 -30q0 -6 -2 -15q-20 -70 -39 -129q10 -537 55 -917q92 12 174 29q35 6 72 -31q37 -35 -14 -45q-104 -18 -221 -29q35 -266 90 -467q14 -49 -10 -112 q-20 -55 -50 -9q-139 229 -211 574q-74 -2 -151 -4q-51 -229 -84 -445q-10 -55 -94 -90q-86 -33 -117 2q-12 14 -8 35zM217 1753q2 53 2 119q0 2 16.5 8t39 11t46 7.5t39 -2t15.5 -16.5v-127q0 -4 -40 -13t-79 -8t-39 21zM264 526q64 2 123 6q-27 145 -43 316 q-45 -168 -80 -322zM524 1874q2 6 42 8t79 -6t35 -29q-8 -45 -8 -78q0 -4 -32 -23.5t-61.5 -29.5t-39.5 10q-23 80 -15 148z" />
<glyph unicode="&#xc5;" d="M-53 -41q39 254 88 496h-15q-35 0 -61 34q-23 31 21 31h6h63q106 506 262 973v33q0 25 31 51q37 47 127 65q88 18 88 -30q0 -6 -2 -15q-20 -70 -39 -129q10 -537 55 -917q92 12 174 29q35 6 72 -31q37 -35 -14 -45q-104 -18 -221 -29q35 -266 90 -467q14 -49 -10 -112 q-20 -55 -50 -9q-139 229 -211 574q-74 -2 -151 -4q-51 -229 -84 -445q-10 -55 -94 -90q-86 -33 -117 2q-12 14 -8 35zM200 1916.5q7 53.5 55 93.5t107 46q164 18 254 -65q41 -43 36 -89.5t-42 -84t-82 -48.5q-84 -20 -188 -2q-41 8 -53 48q-4 20 8 20q6 0 16 -8 q88 -12 164 17.5t72 66.5q-4 43 -48 74.5t-89 23.5q-57 -10 -92 -48t-35 -67q8 -33 0.5 -75.5t-39.5 -10.5q-51 55 -44 108.5zM264 526q64 2 123 6q-27 145 -43 316q-45 -168 -80 -322z" />
<glyph unicode="&#xc6;" horiz-adv-x="1421" d="M-53 -41q39 254 88 496h-15q-35 0 -61 34q-23 31 21 31h6h63q106 506 262 973v33q0 25 31 51q25 33 76 51q2 12 18 17q10 2 25 -3q217 41 493 -10q23 -4 43 -47q25 -53 -18 -53q-10 -2 -23 2q-166 37 -415 12q-12 -41 -25 -78q10 -526 53 -903q506 68 602 86q10 2 64 -33 q100 -66 -25 -88q-115 -23 -626 -75q35 -254 88 -447q2 -6 2 -12q68 16 143 24q100 14 230.5 25.5t189.5 20.5q25 2 72 -46q63 -61 6 -73q-6 0 -12 -2q-385 -27 -625 -68q-10 -2 -25 2q-16 -31 -41 8q-139 229 -211 574q-74 -2 -151 -4q-51 -229 -84 -445q-10 -55 -94 -90 q-86 -33 -117 2q-12 14 -8 35zM264 526q64 2 123 6q-27 145 -43 316q-45 -168 -80 -322z" />
<glyph unicode="&#xc7;" horiz-adv-x="1277" d="M-21.5 810q11.5 140 60.5 265q57 150 194.5 256.5t282.5 112.5q47 0 96 -4q10 20 23 39q88 135 205 135q55 0 63 -25q4 -16 -24 -24q-4 -2 -9 -2q-39 -80 -61 -172q147 -57 268 -162q51 -43 87 -111.5t32 -149.5t-66 -130q-84 -59 -202.5 -38t-188.5 89q-88 86 -131 227 t-16 262q-90 4 -162 -32q-61 -31 -109.5 -91.5t-78 -135.5t-47 -147.5t-25.5 -152.5q-16 -162 12.5 -325.5t112.5 -278.5q45 -61 134 -80.5t165 4.5q78 25 143.5 76t100.5 119q68 129 163 192q80 53 91 -8q4 -23 -7 -61q-25 -106 -101.5 -193.5t-174.5 -136.5t-207 -61h-2 q-2 -4 -6 -11q-12 -18 -27.5 -35.5t-29 -31l-15.5 -15.5q-4 -4 62 -18q18 -4 65 -12q53 -10 99.5 -53.5t35.5 -92.5q-16 -68 -161 -82q-186 -20 -369 25q-35 8 -39 49q-2 27 14 27q6 0 15 -6q66 -39 165 -50.5t195 17.5q25 10 39 29.5t16.5 34t-0.5 18.5q-10 20 -51 39.5 t-80 36t-65 59.5q-20 33 -19 78q-25 4 -49 10q-135 39 -245.5 161t-151.5 294q-31 133 -19.5 273zM795 1319q-23 -145 4 -275q14 -78 86.5 -132t118.5 -13q43 45 36.5 126t-57.5 142q-73 93 -188 152z" />
<glyph unicode="&#xc8;" horiz-adv-x="1327" d="M25 1323q4 4 12 10q317 137 571 137q252 0 570 -112q47 -18 65 -66q12 -35 -16 -32q-10 0 -25 6q-299 135 -534 139q-178 2 -361 -70q-10 -233 -18 -456q111 18 316.5 55t297.5 51q41 8 76 -29q31 -33 -18 -43q-2 0 -5 -2q-74 -12 -190 -32q-2 -4 -10 -9 q-203 -78 -469 -92q-8 -303 -8 -600q55 6 186 22.5t201.5 26t175 26.5t190.5 38q41 8 88 -29q45 -35 -2 -49l-8 -4q-162 -31 -481.5 -68t-472.5 -69q-43 -8 -86 26.5t14 51.5q39 6 82 12q2 55 6 274t8 340h-63q-35 0 -49 23q-4 6 0 10q-16 14 -12.5 27.5t34.5 15.5 q45 4 92 12q6 233 17 422q-25 -12 -52 -29q-41 -23 -100 7q-55 29 -22 59zM473 1729q7 24 27 8q180 -121 368 -125q23 0 39 -23q10 -14 -14 -14q-203 0 -408 108q-20 10 -12 46z" />
<glyph unicode="&#xc9;" horiz-adv-x="1327" d="M25 1323q4 4 12 10q317 137 571 137q252 0 570 -112q47 -18 65 -66q12 -35 -16 -32q-10 0 -25 6q-299 135 -534 139q-178 2 -361 -70q-10 -233 -18 -456q111 18 316.5 55t297.5 51q41 8 76 -29q31 -33 -18 -43q-2 0 -5 -2q-74 -12 -190 -32q-2 -4 -10 -9 q-203 -78 -469 -92q-8 -303 -8 -600q55 6 186 22.5t201.5 26t175 26.5t190.5 38q41 8 88 -29q45 -35 -2 -49l-8 -4q-162 -31 -481.5 -68t-472.5 -69q-43 -8 -86 26.5t14 51.5q39 6 82 12q2 55 6 274t8 340h-63q-35 0 -49 23q-4 6 0 10q-16 14 -12.5 27.5t34.5 15.5 q45 4 92 12q6 233 17 422q-25 -12 -52 -29q-41 -23 -100 7q-55 29 -22 59zM248 1565q-8 14 10 14h6q213 37 418 190q18 14 57 -8q35 -20 11 -37q-225 -160 -461 -182q-27 -2 -41 23z" />
<glyph unicode="&#xca;" horiz-adv-x="1327" d="M25 1323q4 4 12 10q317 137 571 137q252 0 570 -112q47 -18 65 -66q12 -35 -16 -32q-10 0 -25 6q-299 135 -534 139q-178 2 -361 -70q-10 -233 -18 -456q111 18 316.5 55t297.5 51q41 8 76 -29q31 -33 -18 -43q-2 0 -5 -2q-74 -12 -190 -32q-2 -4 -10 -9 q-203 -78 -469 -92q-8 -303 -8 -600q55 6 186 22.5t201.5 26t175 26.5t190.5 38q41 8 88 -29q45 -35 -2 -49l-8 -4q-162 -31 -481.5 -68t-472.5 -69q-43 -8 -86 26.5t14 51.5q39 6 82 12q2 55 6 274t8 340h-63q-35 0 -49 23q-4 6 0 10q-16 14 -12.5 27.5t34.5 15.5 q45 4 92 12q6 233 17 422q-25 -12 -52 -29q-41 -23 -100 7q-55 29 -22 59zM297 1571q4 4 14 8q43 41 93.5 105.5t78 89t51 11.5t86 -60.5t113.5 -69t107 -13.5q18 2 59 -24q25 -16 0 -21q-115 -18 -221.5 3.5t-173.5 95.5q18 -20 -21 -70q-27 -33 -73 -70q-53 -39 -105 -18 q-33 12 -8 33z" />
<glyph unicode="&#xcb;" horiz-adv-x="1327" d="M25 1323q4 4 12 10q317 137 571 137q252 0 570 -112q47 -18 65 -66q12 -35 -16 -32q-10 0 -25 6q-299 135 -534 139q-178 2 -361 -70q-10 -233 -18 -456q111 18 316.5 55t297.5 51q41 8 76 -29q31 -33 -18 -43q-2 0 -5 -2q-74 -12 -190 -32q-2 -4 -10 -9 q-203 -78 -469 -92q-8 -303 -8 -600q55 6 186 22.5t201.5 26t175 26.5t190.5 38q41 8 88 -29q45 -35 -2 -49l-8 -4q-162 -31 -481.5 -68t-472.5 -69q-43 -8 -86 26.5t14 51.5q39 6 82 12q2 55 6 274t8 340h-63q-35 0 -49 23q-4 6 0 10q-16 14 -12.5 27.5t34.5 15.5 q45 4 92 12q6 233 17 422q-25 -12 -52 -29q-41 -23 -100 7q-55 29 -22 59zM340 1692q0 8 29.5 14t58.5 3t27 -17q-2 -61 18 -144q2 -4 -21.5 -19.5t-45 -21.5t-29.5 9q-33 129 -37 176zM643 1667q0 4 28.5 13.5t53.5 10t29 -13.5q4 -111 4 -143q0 -4 -25.5 -16.5 t-49.5 -15.5t-30 11q-8 61 -10 154z" />
<glyph unicode="&#xcc;" horiz-adv-x="589" d="M-213 -72q72 43 164 92q-14 10 -12 31q12 133 20 295t11 280.5t6.5 312.5t5.5 296q-25 -6 -58 -14q-23 -6 -51 22q-31 31 10 41q61 18 115 35q23 29 66.5 44t72.5 7q113 47 199 100q18 10 70 -22q51 -37 14 -55q-111 -57 -260 -105q-4 -131 -9.5 -368.5t-11.5 -436 t-18 -374.5q209 109 282 153q6 6 64 -26q68 -37 29 -58q-43 -23 -175.5 -83t-239 -117.5t-190.5 -122.5q-20 -14 -75 12q-61 31 -29 61zM-90 1618q-14 12 14 47q27 35 39 10q106 -145 242 -133q20 2 43 -22q14 -18 -10 -21q-182 -12 -328 119z" />
<glyph unicode="&#xcd;" horiz-adv-x="589" d="M-213 -72q72 43 164 92q-14 10 -12 31q12 133 20 295t11 280.5t6.5 312.5t5.5 296q-25 -6 -58 -14q-23 -6 -51 22q-31 31 10 41q61 18 115 35q23 29 66.5 44t72.5 7q113 47 199 100q18 10 70 -22q51 -37 14 -55q-111 -57 -260 -105q-4 -131 -9.5 -368.5t-11.5 -436 t-18 -374.5q209 109 282 153q6 6 64 -26q68 -37 29 -58q-43 -23 -175.5 -83t-239 -117.5t-190.5 -122.5q-20 -14 -75 12q-61 31 -29 61zM-23 1477q119 94 232 235q12 14 61 -6q41 -18 25 -39q-123 -150 -268 -237q-16 -10 -45.5 12.5t-4.5 34.5z" />
<glyph unicode="&#xce;" horiz-adv-x="589" d="M-213 -72q72 43 164 92q-14 10 -12 31q12 133 20 295t11 280.5t6.5 312.5t5.5 296q-25 -6 -58 -14q-23 -6 -51 22q-31 31 10 41q61 18 115 35q23 29 66.5 44t72.5 7q113 47 199 100q18 10 70 -22q51 -37 14 -55q-111 -57 -260 -105q-4 -131 -9.5 -368.5t-11.5 -436 t-18 -374.5q209 109 282 153q6 6 64 -26q68 -37 29 -58q-43 -23 -175.5 -83t-239 -117.5t-190.5 -122.5q-20 -14 -75 12q-61 31 -29 61zM-129 1468q4 3 10 7q29 37 53.5 93t41 91t32.5 37q39 4 85 -29t91 -60.5t82 -15.5q45 16 88 -4q29 -14 -8 -26q-106 -33 -203 -9 q-72 20 -92 54v-7q2 -18 -3 -38.5t-23.5 -52t-51.5 -62.5q-39 -35 -88 -14q-37 14 -14 36z" />
<glyph unicode="&#xcf;" horiz-adv-x="589" d="M-213 -72q72 43 164 92q-14 10 -12 31q12 133 20 295t11 280.5t6.5 312.5t5.5 296q-25 -6 -58 -14q-23 -6 -51 22q-31 31 10 41q61 18 115 35q23 29 66.5 44t72.5 7q113 47 199 100q18 10 70 -22q51 -37 14 -55q-111 -57 -260 -105q-4 -131 -9.5 -368.5t-11.5 -436 t-18 -374.5q209 109 282 153q6 6 64 -26q68 -37 29 -58q-43 -23 -175.5 -83t-239 -117.5t-190.5 -122.5q-20 -14 -75 12q-61 31 -29 61zM-80 1425q0 152 14 232q4 14 66 8q49 -9 47 -29q-16 -82 -14 -198q0 -6 -29 -16.5t-54.5 -11.5t-29.5 15zM156 1513q4 23 13 76t15 82 q0 2 13.5 5t31 3t34 -2t26.5 -8t8 -14q-4 -29 -13.5 -81t-15.5 -77q0 -4 -29.5 -7t-57 3t-25.5 20z" />
<glyph unicode="&#xd0;" horiz-adv-x="909" d="M-150 -4q-23 18 15 27q6 2 14 2q115 10 238 32q4 111 14 361q8 152 12 278q-57 4 -118 9q-25 0 -37 22q-6 12 12 12h6q72 -6 139 -8q2 63 2 121q6 182 3 350q0 16 14 37q-102 -14 -146 14q-27 18 23 31q6 2 14 4q111 23 196 36t184.5 17.5t173 -20.5t112.5 -76 q57 -74 82.5 -199.5t23.5 -252.5t-2 -267q-10 -377 -258 -444q-170 -47 -387 -82q-4 0 -8 -2q-86 -12 -176 -25q-102 -12 -146 23zM299 94q166 41 245 97.5t79 119.5q0 51 6 205t4 274.5t-17 231.5q-2 25 -7 75t-8 73.5t-9 54t-15.5 46t-19.5 19.5q-74 31 -238 -14 q10 -213 3 -547q63 2 116 6q25 2 41 -20q10 -16 -14 -19q-66 -4 -143 -4q-6 -238 -19 -530q-2 -45 -4 -68z" />
<glyph unicode="&#xd1;" horiz-adv-x="1060" d="M-39 94q20 119 38.5 242t37 267.5t29 235.5t31 268t28.5 241q-10 51 -21 100q-8 43 56.5 87t87.5 13q27 10 44 1t15 -38q-6 -90 -12 -178q18 -90 131 -577v116q6 348 47 549q49 250 221 287q82 16 177.5 -46.5t107.5 -152.5q10 -82 -70 -108q-63 -20 -96 10q-14 14 -6 37 q10 29 13 67.5t-9 78.5t-43 51q-18 8 -35.5 -8.5t-32 -49.5t-23.5 -62.5t-18 -64.5q-49 -213 -59 -524q-4 -133 -4 -375t-4 -344q-2 -53 -68.5 -85t-99.5 -7q-57 -4 -62 35q-18 242 -116 663q-41 -348 -99 -700q-10 -53 -88 -72q-76 -18 -96 15q-6 12 -2 28zM98 1714 q119 61 273 49q131 -10 141 92q4 27 82 50q90 25 96 -13q2 -6 0 -14q-14 -55 -47 -93t-75 -54.5t-80.5 -22.5t-79.5 -2q-160 16 -191 -59q-8 -8 -43 -5t-64.5 25t-11.5 47z" />
<glyph unicode="&#xd2;" horiz-adv-x="1093" d="M-55.5 502.5q12.5 320.5 121.5 611.5q38 106 106 172q8 121 72 162q106 63 210.5 56t161.5 -62q84 -82 119 -254l4 4q90 152 197 211q72 43 78 -6q0 -23 -15 -62q-84 -201 -243 -319q2 -33 4 -72q6 -295 -64 -627q-63 -291 -164 -432q-47 -66 -122.5 -93.5t-155.5 -20.5 q-78 8 -148.5 49t-91.5 110q-82 252 -69.5 572.5zM158 803q-96 -582 18 -897q25 -61 94.5 -49t108.5 77q61 98 108 267q70 250 86 452q11 160 13 285q-92 -14 -203 14q-94 23 -154 109q-51 -133 -71 -258zM244 1890q-12 14 20 62q41 55 64 20q47 -70 70.5 -104.5t67.5 -82.5 t87 -79q27 -18 31 -47q2 -20 -29 -12q-182 78 -311 243zM343 1131q7 -78 40 -101q82 -54 201 12q-10 260 -80 371q-20 20 -51 9t-63 -55t-40 -95q-14 -63 -7 -141z" />
<glyph unicode="&#xd3;" horiz-adv-x="1093" d="M-55.5 502.5q12.5 320.5 121.5 611.5q38 106 106 172q8 121 72 162q106 63 210.5 56t161.5 -62q84 -82 119 -254l4 4q90 152 197 211q72 43 78 -6q0 -23 -15 -62q-84 -201 -243 -319q2 -33 4 -72q6 -295 -64 -627q-63 -291 -164 -432q-47 -66 -122.5 -93.5t-155.5 -20.5 q-78 8 -148.5 49t-91.5 110q-82 252 -69.5 572.5zM158 803q-96 -582 18 -897q25 -61 94.5 -49t108.5 77q61 98 108 267q70 250 86 452q11 160 13 285q-92 -14 -203 14q-94 23 -154 109q-51 -133 -71 -258zM246 1636q-29 31 8 39q193 80 324 201q12 12 71 -21q66 -35 35 -59 q-160 -119 -391 -186q-20 -6 -47 26zM343 1131q7 -78 40 -101q82 -54 201 12q-10 260 -80 371q-20 20 -51 9t-63 -55t-40 -95q-14 -63 -7 -141z" />
<glyph unicode="&#xd4;" horiz-adv-x="1093" d="M-55.5 502.5q12.5 320.5 121.5 611.5q38 106 106 172q8 121 72 162q106 63 210.5 56t161.5 -62q84 -82 119 -254l4 4q90 152 197 211q72 43 78 -6q0 -23 -15 -62q-84 -201 -243 -319q2 -33 4 -72q6 -295 -64 -627q-63 -291 -164 -432q-47 -66 -122.5 -93.5t-155.5 -20.5 q-78 8 -148.5 49t-91.5 110q-82 252 -69.5 572.5zM158 803q-96 -582 18 -897q25 -61 94.5 -49t108.5 77q61 98 108 267q70 250 86 452q11 160 13 285q-92 -14 -203 14q-94 23 -154 109q-51 -133 -71 -258zM190 1618q25 18 76 64.5t96.5 75t94.5 38.5q27 4 52.5 -3t52 -28.5 t44 -39t47 -52.5t41.5 -47q39 -41 37 -72q-2 -18 -35 -4q-55 25 -106 72t-76 82l-22 35q-27 -8 -97.5 -86t-118.5 -107q-27 -16 -73 15q-50 32 -13 57zM343 1131q7 -78 40 -101q82 -54 201 12q-10 260 -80 371q-20 20 -51 9t-63 -55t-40 -95q-14 -63 -7 -141z" />
<glyph unicode="&#xd5;" horiz-adv-x="1093" d="M-55.5 502.5q12.5 320.5 121.5 611.5q38 106 106 172q8 121 72 162q106 63 210.5 56t161.5 -62q84 -82 119 -254l4 4q90 152 197 211q72 43 78 -6q0 -23 -15 -62q-84 -201 -243 -319q2 -33 4 -72q6 -295 -64 -627q-63 -291 -164 -432q-47 -66 -122.5 -93.5t-155.5 -20.5 q-78 8 -148.5 49t-91.5 110q-82 252 -69.5 572.5zM109 1620q0 8 6 18q190 119 387 35q215 -92 262 45q16 45 102 62q82 14 88 -23q0 -10 -6 -22q-35 -70 -86 -113t-107.5 -55.5t-108.5 -7t-101 23.5q-61 23 -94 34t-77 19.5t-72 -3t-46 -42.5q-16 -29 -86 -18q-66 10 -61 47 zM158 803q-96 -582 18 -897q25 -61 94.5 -49t108.5 77q61 98 108 267q70 250 86 452q11 160 13 285q-92 -14 -203 14q-94 23 -154 109q-51 -133 -71 -258zM343 1131q7 -78 40 -101q82 -54 201 12q-10 260 -80 371q-20 20 -51 9t-63 -55t-40 -95q-14 -63 -7 -141z" />
<glyph unicode="&#xd6;" horiz-adv-x="1093" d="M-55.5 502.5q12.5 320.5 121.5 611.5q38 106 106 172q8 121 72 162q106 63 210.5 56t161.5 -62q84 -82 119 -254l4 4q90 152 197 211q72 43 78 -6q0 -23 -15 -62q-84 -201 -243 -319q2 -33 4 -72q6 -295 -64 -627q-63 -291 -164 -432q-47 -66 -122.5 -93.5t-155.5 -20.5 q-78 8 -148.5 49t-91.5 110q-82 252 -69.5 572.5zM158 803q-96 -582 18 -897q25 -61 94.5 -49t108.5 77q61 98 108 267q70 250 86 452q11 160 13 285q-92 -14 -203 14q-94 23 -154 109q-51 -133 -71 -258zM236 1640q33 66 83 154q4 6 44 -3t75 -28.5t23 -40.5 q-43 -76 -70 -141q-2 -4 -45 1t-81.5 21.5t-28.5 36.5zM343 1131q7 -78 40 -101q82 -54 201 12q-10 260 -80 371q-20 20 -51 9t-63 -55t-40 -95q-14 -63 -7 -141zM539 1649q18 76 67 170q2 6 44 -1.5t79 -25.5t27 -39q-33 -68 -43 -123q-2 -4 -46 -10t-87 0t-41 29z" />
<glyph unicode="&#xd7;" horiz-adv-x="1189" d="M164 897q14 47 43 18q178 -156 346 -292q156 156 358 305q35 27 90 -2q49 -25 21 -54q-2 -4 -6 -6q-205 -162 -359 -329q221 -176 422 -322q23 -14 29 -51q2 -16 -10 -17q-6 0 -17 5q-121 59 -290 180q-106 76 -191 141q-150 -176 -240 -358q-16 -33 -104 -39 q-80 -6 -78 30q0 6 4 13q113 227 310 440q-104 86 -277 232q-31 25 -45 38q-23 18 -6 68z" />
<glyph unicode="&#xd8;" horiz-adv-x="1060" d="M-354 -25q2 14 18 31q98 121 240 293q-16 160 18 365q76 436 262 661q102 123 215 137q61 8 62 -24q2 -23 -35 -52q-233 -305 -315 -659q-25 -109 -33 -215q78 94 168 203q193 236 332 405q-10 115 -35 201q-43 145 -39 166q6 25 49 -10q94 -74 143 -211q57 68 101 120 q47 57 129 50q57 -4 55 -39q-2 -14 -12 -29q-33 -41 -230 -281q33 -217 4 -479q-27 -211 -81 -387t-149 -303t-216 -151q-117 -23 -229 118q-82 100 -125 232q-61 -72 -117 -137q-51 -59 -131 -46q-49 10 -49 41zM78 279q35 -412 147 -447q63 -20 139 99.5t136 312.5 q53 174 71 405q12 133 15 248q-139 -170 -201 -246q-86 -104 -254 -307q-26 -32 -53 -65z" />
<glyph unicode="&#xd9;" horiz-adv-x="770" d="M-184 1358q-18 27 14 28h6q219 37 414 175q18 12 69 -23q53 -35 19 -55q-4 -4 -8 -6q8 -16 -2 -41q-160 -430 -213 -725q-121 -690 30 -809q6 -4 48.5 91t104.5 278.5t105 365.5q14 279 58 735q6 51 78.5 83t95.5 -1q4 -6 6 -14q25 6 38 -8.5t9 -49.5q-72 -596 -117 -813 q-23 -408 -8 -721q2 -53 -61 -102q-59 -47 -80 -12q-4 6 -6 18q-14 137 -19 287q-84 -150 -192 -219q-47 -29 -120 47t-129 213t-60 266q-4 137 47 393q74 358 178 633l4 12q-131 -45 -266 -55q-23 0 -43 29zM272 1710q-12 10 8.5 55.5t47.5 20.5q133 -131 202 -182 q16 -10 17 -45q0 -33 -31 -19q-131 61 -244 170z" />
<glyph unicode="&#xda;" horiz-adv-x="927" d="M-184 1358q-18 27 14 28h6q219 37 414 175q18 12 69 -23q53 -35 19 -55q-4 -4 -8 -6q8 -16 -2 -41q-160 -430 -213 -725q-121 -690 30 -809q6 -4 48.5 91t104.5 278.5t105 365.5q14 279 58 735q6 51 78.5 83t95.5 -1q4 -6 6 -14q25 6 38 -8.5t9 -49.5q-72 -596 -117 -813 q-23 -408 -8 -721q2 -53 -61 -102q-59 -47 -80 -12q-4 6 -6 18q-14 137 -19 287q-84 -150 -192 -219q-47 -29 -120 47t-129 213t-60 266q-4 137 47 393q74 358 178 633l4 12q-131 -45 -266 -55q-23 0 -43 29zM381 1626q-33 31 4 45q240 86 371 168q16 10 63 -22 q51 -37 15 -56q-45 -25 -102.5 -48t-95.5 -37.5t-106.5 -39t-97.5 -34.5q-20 -6 -51 24z" />
<glyph unicode="&#xdb;" horiz-adv-x="798" d="M-184 1358q-18 27 14 28h6q219 37 414 175q18 12 69 -23q53 -35 19 -55q-4 -4 -8 -6q8 -16 -2 -41q-160 -430 -213 -725q-121 -690 30 -809q6 -4 48.5 91t104.5 278.5t105 365.5q14 279 58 735q6 51 78.5 83t95.5 -1q4 -6 6 -14q25 6 38 -8.5t9 -49.5q-72 -596 -117 -813 q-23 -408 -8 -721q2 -53 -61 -102q-59 -47 -80 -12q-4 6 -6 18q-14 137 -19 287q-84 -150 -192 -219q-47 -29 -120 47t-129 213t-60 266q-4 137 47 393q74 358 178 633l4 12q-131 -45 -266 -55q-23 0 -43 29zM248 1698q-35 31 4 47t124 83.5t132 76.5q57 12 93 -19 t67.5 -99.5t46.5 -84.5q18 -27 -27 -74q-43 -45 -59 -20q0 2 -2 4q-37 88 -45 221q-6 -16 -39 -39q-47 -35 -108.5 -64.5t-119.5 -52.5q-31 -12 -67 21z" />
<glyph unicode="&#xdc;" horiz-adv-x="870" d="M-184 1358q-18 27 14 28h6q219 37 414 175q18 12 69 -23q53 -35 19 -55q-4 -4 -8 -6q8 -16 -2 -41q-160 -430 -213 -725q-121 -690 30 -809q6 -4 48.5 91t104.5 278.5t105 365.5q14 279 58 735q6 51 78.5 83t95.5 -1q4 -6 6 -14q25 6 38 -8.5t9 -49.5q-72 -596 -117 -813 q-23 -408 -8 -721q2 -53 -61 -102q-59 -47 -80 -12q-4 6 -6 18q-14 137 -19 287q-84 -150 -192 -219q-47 -29 -120 47t-129 213t-60 266q-4 137 47 393q74 358 178 633l4 12q-131 -45 -266 -55q-23 0 -43 29zM295 1679q6 43 19.5 116t15.5 79q0 6 45 13t89 3t40 -28 q-6 -41 -19.5 -104.5t-15.5 -84.5q-2 -4 -46 -13t-87 -6.5t-41 25.5zM555 1647q45 78 68 141q8 2 49 3t83 -13.5t33 -34.5q-23 -57 -92 -170q-4 -6 -44 4t-73.5 30t-23.5 40z" />
<glyph unicode="&#xdd;" horiz-adv-x="839" d="M-45 1382q-12 39 37 93q51 51 74 6q45 -123 118.5 -356.5t112.5 -342.5q160 492 270 926q14 66 95 98q72 29 92 -6q6 -12 2 -33q-186 -780 -555 -1773q-25 -66 -107 -84q-74 -16 -88 22q-4 14 2 33q117 314 209 582q-164 500 -262 835zM143 1616q20 43 44 85t54.5 93 t43.5 72q2 6 45 0t79.5 -24.5t22.5 -39.5q-6 -10 -25.5 -40.5t-25.5 -42t-20.5 -36t-20.5 -38t-14.5 -31t-12.5 -33.5q-2 -2 -20.5 -4t-44 -2t-51 3t-42 13.5t-12.5 24.5z" />
<glyph unicode="&#xde;" horiz-adv-x="1062" d="M12 1036q8 6 21 15q37 16 71 32q-4 164 -6 267q0 53 72 92q70 35 94 2q8 -8 8 -25q2 -115 9 -276q98 27 174 22q135 -8 251.5 -55t198.5 -127q51 -49 69.5 -123t-5.5 -141q-39 -96 -197 -166q-168 -72 -407 -88q-31 -2 -58 -2q2 -49 2 -101q2 -209 -10 -352 q-4 -55 -45 -68.5t-81 3t-42 35.5q-8 188 -12 409q-2 49 -4 103q-16 8 0 14q-4 178 -9 399v88q-43 -10 -79 -4q-51 10 -15 47zM283 1069q10 -209 16 -352q6 -88 8 -199q172 10 254 43q131 53 192.5 127t63.5 133q2 78 -64.5 162t-181.5 117q-130 36 -288 -27v-4z" />
<glyph unicode="&#xdf;" horiz-adv-x="1144" d="M101 898q5 114 22 222q12 98 67.5 191.5t135.5 165t186 89t213 -27.5q115 -53 176.5 -154.5t28.5 -199.5q-49 -156 -289 -295q-63 -37 -115 -49q139 -12 238 -64q184 -96 264 -241q53 -88 29.5 -193.5t-115.5 -144.5q-145 -61 -344 -9q-53 14 -59 70q-4 37 18 37 q8 -2 21 -14q41 -45 117.5 -57.5t152.5 22.5q100 49 72 174q-31 129 -149 239.5t-269 131.5q-115 14 -115 32q0 6 27 17q-18 8 0 28q12 12 37 27q158 80 239 188q98 131 98 240q-2 68 -84.5 140.5t-158.5 52.5q-63 -18 -118.5 -98.5t-82.5 -170.5q-45 -150 -57.5 -349.5 t-3 -361t33.5 -405.5q10 -104 -65 -168q-55 -47 -82 -14q-10 12 -12 37q-4 55 -20.5 211.5t-22.5 239.5t-12.5 215t-1.5 246z" />
<glyph unicode="&#xe0;" horiz-adv-x="739" d="M29.5 85q-25.5 114 5.5 212q27 88 85 156.5t124 72.5q28 2 53 -4q10 129 33 129q51 -2 85 -26.5t46 -60.5t16 -74.5t-6 -65.5q-16 -84 -53 -170q29 -162 80 -234q10 -14 14 -10q45 86 104 121q45 27 41 -18q-2 -16 -8 -41q-18 -57 -57 -90t-84 -31q-43 4 -82 33.5 t-57 76.5q-12 27 -23 58q-102 -154 -221 -150q-70 2 -95.5 116zM47 811q1 22 21 10q158 -72 286 -18q18 6 47 -21q20 -18 -2 -26q-152 -43 -336 20q-18 6 -16 35zM122 58q5 -46 15 -48q37 -4 86 70.5t90 183.5q-12 72 -16 154q-2 23 -2 49q-98 -31 -148 -176 q-18 -53 -24 -120t-1 -113z" />
<glyph unicode="&#xe1;" horiz-adv-x="739" d="M29.5 85q-25.5 114 5.5 212q27 88 85 156.5t124 72.5q28 2 53 -4q10 129 33 129q51 -2 85 -26.5t46 -60.5t16 -74.5t-6 -65.5q-16 -84 -53 -170q29 -162 80 -234q10 -14 14 -10q45 86 104 121q45 27 41 -18q-2 -16 -8 -41q-18 -57 -57 -90t-84 -31q-43 4 -82 33.5 t-57 76.5q-12 27 -23 58q-102 -154 -221 -150q-70 2 -95.5 116zM66 668q176 141 301 344q12 18 67 6q47 -10 33 -35q-147 -227 -348 -358q-23 -12 -51 10q-27 21 -2 33zM122 58q5 -46 15 -48q37 -4 86 70.5t90 183.5q-12 72 -16 154q-2 23 -2 49q-98 -31 -148 -176 q-18 -53 -24 -120t-1 -113z" />
<glyph unicode="&#xe2;" horiz-adv-x="739" d="M10 803q-21 16 10 28q25 23 74 89.5t90 99.5t82 16q12 -4 13.5 -43t1.5 -88t12 -71q10 -25 63.5 -20t108.5 42q20 14 84 4q45 -6 22 -24q-61 -47 -144 -61.5t-128 3.5q-66 23 -102 86q-2 4 -4 6q-37 -45 -107 -73q-45 -18 -76 6zM29.5 85q-25.5 114 5.5 212 q27 88 85 156.5t124 72.5q28 2 53 -4q10 129 33 129q51 -2 85 -26.5t46 -60.5t16 -74.5t-6 -65.5q-16 -84 -53 -170q29 -162 80 -234q10 -14 14 -10q45 86 104 121q45 27 41 -18q-2 -16 -8 -41q-18 -57 -57 -90t-84 -31q-43 4 -82 33.5t-57 76.5q-12 27 -23 58 q-102 -154 -221 -150q-70 2 -95.5 116zM122 58q5 -46 15 -48q37 -4 86 70.5t90 183.5q-12 72 -16 154q-2 23 -2 49q-98 -31 -148 -176q-18 -53 -24 -120t-1 -113z" />
<glyph unicode="&#xe3;" horiz-adv-x="739" d="M16 696q-10 78 31 112t103 19q16 -4 87.5 -30.5t108.5 -24.5q55 4 82 55.5t23 118.5q-2 35 34 68q31 31 43 -2q33 -92 -7 -184.5t-130 -92.5q-45 0 -94 7.5t-83 15.5t-61.5 14t-40 5t-10.5 -13q10 -39 -30 -76t-56 8zM29.5 85q-25.5 114 5.5 212q27 88 85 156.5t124 72.5 q28 2 53 -4q10 129 33 129q51 -2 85 -26.5t46 -60.5t16 -74.5t-6 -65.5q-16 -84 -53 -170q29 -162 80 -234q10 -14 14 -10q45 86 104 121q45 27 41 -18q-2 -16 -8 -41q-18 -57 -57 -90t-84 -31q-43 4 -82 33.5t-57 76.5q-12 27 -23 58q-102 -154 -221 -150q-70 2 -95.5 116z M122 58q5 -46 15 -48q37 -4 86 70.5t90 183.5q-12 72 -16 154q-2 23 -2 49q-98 -31 -148 -176q-18 -53 -24 -120t-1 -113z" />
<glyph unicode="&#xe4;" horiz-adv-x="739" d="M29.5 85q-25.5 114 5.5 212q27 88 85 156.5t124 72.5q28 2 53 -4q10 129 33 129q51 -2 85 -26.5t46 -60.5t16 -74.5t-6 -65.5q-16 -84 -53 -170q29 -162 80 -234q10 -14 14 -10q45 86 104 121q45 27 41 -18q-2 -16 -8 -41q-18 -57 -57 -90t-84 -31q-43 4 -82 33.5 t-57 76.5q-12 27 -23 58q-102 -154 -221 -150q-70 2 -95.5 116zM84 711q31 154 43 241q2 6 29.5 14.5t55.5 6.5t26 -19q-10 -90 -45 -252q-4 -16 -64 -14q-51 0 -45 23zM122 58q5 -46 15 -48q37 -4 86 70.5t90 183.5q-12 72 -16 154q-2 23 -2 49q-98 -31 -148 -176 q-18 -53 -24 -120t-1 -113zM285 803q39 94 73 209q2 6 31 7t54.5 -6t21.5 -22q-39 -125 -80 -221q-6 -4 -31.5 -4t-50 11.5t-18.5 25.5z" />
<glyph unicode="&#xe5;" horiz-adv-x="739" d="M29.5 85q-25.5 114 5.5 212q27 88 85 156.5t124 72.5q28 2 53 -4q10 129 33 129q51 -2 85 -26.5t46 -60.5t16 -74.5t-6 -65.5q-16 -84 -53 -170q29 -162 80 -234q10 -14 14 -10q45 86 104 121q45 27 41 -18q-2 -16 -8 -41q-18 -57 -57 -90t-84 -31q-43 4 -82 33.5 t-57 76.5q-12 27 -23 58q-102 -154 -221 -150q-70 2 -95.5 116zM122 58q5 -46 15 -48q37 -4 86 70.5t90 183.5q-12 72 -16 154q-2 23 -2 49q-98 -31 -148 -176q-18 -53 -24 -120t-1 -113zM123 774q-43 45 0 103.5t102 64.5q35 2 54 -22q10 -14 -3 -17q-4 0 -12 2 q-31 -12 -49 -34.5t-20 -41.5q-4 -25 26.5 -46t50.5 -5q41 35 53.5 92.5t-14.5 100.5q-4 10 -18 28q-20 29 -16 31t20 -4q90 -43 105.5 -138t-60.5 -145q-39 -29 -109.5 -20.5t-109.5 51.5z" />
<glyph unicode="&#xe6;" horiz-adv-x="823" d="M29.5 85q-25.5 114 5.5 212q27 88 85 156.5t124 72.5q28 2 53 -4q10 129 33 129q31 -2 53 -10q20 18 45 33q47 27 89 27.5t81 -9.5q70 -27 115 -95.5t24 -143.5q-25 -92 -217 -138q-49 -12 -82 -6q-8 -29 -20 -55q29 -162 80 -234q10 -14 14 -10q45 86 104 121 q45 27 41 -18q-2 -16 -8 -41q-18 -57 -57 -90t-84 -31q-43 4 -82 33.5t-57 76.5q-12 27 -23 58q-102 -154 -221 -150q-70 2 -95.5 116zM122 58q5 -46 15 -48q37 -4 86 70.5t90 183.5q-12 72 -16 154q-2 23 -2 49q-98 -31 -148 -176q-18 -53 -24 -120t-1 -113zM453 346 q121 35 151 78q61 84 27 166q-20 45 -66.5 61.5t-79.5 -12.5q-18 -18 -32 -55q4 -10 8 -19q12 -37 16 -75.5t-6 -65.5q-8 -39 -18 -78z" />
<glyph unicode="&#xe7;" horiz-adv-x="681" d="M49 246q-18 74 3.5 157.5t68.5 153.5q80 115 192.5 164t194.5 -2q45 -27 10 -80q-25 -37 -45 -29q-10 3 -12 19q-12 49 -41 67.5t-64 -4.5q-61 -37 -118 -133q-80 -137 -86 -258q-2 -74 27.5 -143.5t72.5 -69.5q53 2 94 60.5t66 138.5q14 49 71 71q49 20 49 -16v-12 q-20 -96 -71 -174q-43 -63 -107 -90q-2 -68 15 -95q14 -25 75 -22q100 4 134 -37q27 -39 24.5 -84t-27.5 -74q-70 -80 -202 -94q-66 -6 -123 18.5t-82 77.5q-16 41 37 72q45 27 57 0q2 -4 2 -8q0 -37 3 -61.5t19.5 -45t45.5 -18.5q51 2 96 31.5t59 68.5q10 27 15.5 68 t-4.5 51q-23 8 -85.5 13t-106.5 25.5t-62 72.5q-4 16 4 30q-43 8 -88 39q-88 57 -111 152z" />
<glyph unicode="&#xe8;" horiz-adv-x="514" d="M20 227q-6 109 29 212.5t107 170.5q37 37 97 45.5t105 -10.5q51 -18 67.5 -78.5t-3.5 -113.5q-66 -193 -189 -260q-57 -31 -102 -11q4 -18 8 -37q14 -41 48 -70.5t77 -23.5q109 16 131 -2q8 -6 -14 -16q-8 -2 -21 -6q-117 -31 -208 10q-53 25 -90 77t-42 113zM104 918 q9 26 27 10q121 -88 260 -101q18 -2 31 -20q8 -14 -8 -14h-6q-160 10 -295 84q-16 10 -9 41zM127 209q4 2 10 2q86 72 142 174q39 74 49 150q6 39 -14.5 63.5t-51.5 -0.5q-96 -72 -133 -283q-8 -53 -2 -106z" />
<glyph unicode="&#xe9;" horiz-adv-x="534" d="M20 227q-6 109 29 212.5t107 170.5q37 37 97 45.5t105 -10.5q51 -18 67.5 -78.5t-3.5 -113.5q-66 -193 -189 -260q-57 -31 -102 -11q4 -18 8 -37q14 -41 48 -70.5t77 -23.5q109 16 131 -2q8 -6 -14 -16q-8 -2 -21 -6q-117 -31 -208 10q-53 25 -90 77t-42 113zM125 784 q-15 19 8 23q129 66 234 194q12 14 59 -8q41 -16 25 -35q-125 -139 -289 -190q-18 -6 -37 16zM127 209q4 2 10 2q86 72 142 174q39 74 49 150q6 39 -14.5 63.5t-51.5 -0.5q-96 -72 -133 -283q-8 -53 -2 -106z" />
<glyph unicode="&#xea;" horiz-adv-x="522" d="M20 227q-6 109 29 212.5t107 170.5q37 37 97 45.5t105 -10.5q51 -18 67.5 -78.5t-3.5 -113.5q-66 -193 -189 -260q-57 -31 -102 -11q4 -18 8 -37q14 -41 48 -70.5t77 -23.5q109 16 131 -2q8 -6 -14 -16q-8 -2 -21 -6q-117 -31 -208 10q-53 25 -90 77t-42 113zM59 760 q-20 20 9 26q29 23 70.5 95.5t78.5 95.5q23 12 35 11t27.5 -17.5t26.5 -34.5t29.5 -41t37.5 -35q68 -47 69 -51q0 -2 -22 10q-70 35 -102.5 48.5t-55 8t-33 -19.5t-42 -47t-74.5 -61q-25 -16 -54 12zM127 209q4 2 10 2q86 72 142 174q39 74 49 150q6 39 -14.5 63.5 t-51.5 -0.5q-96 -72 -133 -283q-8 -53 -2 -106z" />
<glyph unicode="&#xeb;" horiz-adv-x="514" d="M20 227q-6 109 29 212.5t107 170.5q37 37 97 45.5t105 -10.5q51 -18 67.5 -78.5t-3.5 -113.5q-66 -193 -189 -260q-57 -31 -102 -11q4 -18 8 -37q14 -41 48 -70.5t77 -23.5q109 16 131 -2q8 -6 -14 -16q-8 -2 -21 -6q-117 -31 -208 10q-53 25 -90 77t-42 113zM68 907 q0 4 21.5 18.5t42 20.5t28.5 -6q16 -59 26 -102q0 -4 -23.5 -16.5t-45 -16.5t-27.5 8q-10 51 -22 94zM127 209q4 2 10 2q86 72 142 174q39 74 49 150q6 39 -14.5 63.5t-51.5 -0.5q-96 -72 -133 -283q-8 -53 -2 -106zM223 813q20 68 37 113q4 2 29.5 2t51.5 -9.5t21 -23.5 q-8 -23 -32 -107q-2 -2 -13.5 -3t-28 0t-32.5 4.5t-25.5 9.5t-7.5 14z" />
<glyph unicode="&#xec;" horiz-adv-x="600" d="M89 269.5q5 66.5 11 106.5t25 107q8 33 65 41q51 8 50 -22v-6q-12 -49 -18.5 -74t-15.5 -70t-11 -74.5t-2 -68.5t6 -74q8 -47 44 -65.5t66 6.5q59 41 92 139q10 33 68 45q51 14 49 -20v-7q-29 -125 -112 -178q-59 -39 -132 -44t-112 34q-41 47 -59.5 102.5t-13.5 122z M131 766q-12 10 4 41q13 24 27 8q90 -86 153 -156q8 -10 -10 -41q-18 -27 -33 -10q-66 82 -141 158z" />
<glyph unicode="&#xed;" horiz-adv-x="600" d="M80 668q102 109 203 231q8 4 30.5 0t41 -17.5t7.5 -27.5q-104 -127 -212 -233q-12 -12 -54 10q-32 21 -16 37zM89 269.5q5 66.5 11 106.5t25 107q8 33 65 41q51 8 50 -22v-6q-12 -49 -18.5 -74t-15.5 -70t-11 -74.5t-2 -68.5t6 -74q8 -47 44 -65.5t66 6.5q59 41 92 139 q10 33 68 45q51 14 49 -20v-7q-29 -125 -112 -178q-59 -39 -132 -44t-112 34q-41 47 -59.5 102.5t-13.5 122z" />
<glyph unicode="&#xee;" horiz-adv-x="600" d="M-51 696q-12 16 12 17q145 35 217 127q-2 16 -4 37q-2 20 57 20q33 -2 45 -10q39 -6 37 -21q0 -4 -2 -8q-12 -20 -28 -37q10 -117 120 -164q27 -14 35 -30q2 -10 -14 -9q-2 2 -4 3q-104 25 -172 92q-23 20 -37 45q-92 -63 -227 -80q-20 -4 -35 18zM89 269.5 q5 66.5 11 106.5t25 107q8 33 65 41q51 8 50 -22v-6q-12 -49 -18.5 -74t-15.5 -70t-11 -74.5t-2 -68.5t6 -74q8 -47 44 -65.5t66 6.5q59 41 92 139q10 33 68 45q51 14 49 -20v-7q-29 -125 -112 -178q-59 -39 -132 -44t-112 34q-41 47 -59.5 102.5t-13.5 122z" />
<glyph unicode="&#xef;" horiz-adv-x="600" d="M-6 786q76 31 139 -38q51 -53 31 -95q-6 -8 -17 -14q-55 -33 -145 98q-11 13 14 25q-43 16 -22 24zM89 269.5q5 66.5 11 106.5t25 107q8 33 65 41q51 8 50 -22v-6q-12 -49 -18.5 -74t-15.5 -70t-11 -74.5t-2 -68.5t6 -74q8 -47 44 -65.5t66 6.5q59 41 92 139q10 33 68 45 q51 14 49 -20v-7q-29 -125 -112 -178q-59 -39 -132 -44t-112 34q-41 47 -59.5 102.5t-13.5 122zM215 743q0 2 6 5q74 31 139 -39q51 -53 29 -95q-4 -10 -14 -16q-55 -31 -146 100q-10 15 13 25q-29 12 -27 20z" />
<glyph unicode="&#xf0;" horiz-adv-x="1112" d="M164 401q-31 121 9 245t128 200q102 88 231 117q98 20 181 -2q-47 96 -105 190q-76 -31 -145 -53q-88 -27 -199 -51q-29 -6 -55 24q-25 29 16 35q180 47 332 127q-27 41 -55 80q-102 141 -86 180q8 18 55 -8q96 -94 176 -197q98 70 152 156q12 18 106 31q80 8 74 -19 q0 -2 -2 -8q-55 -90 -137 -162q-59 -49 -127 -86q106 -150 180 -313q197 -432 115 -735q-18 -72 -86 -125.5t-152 -73.5q-152 -39 -287 47q-109 70 -199.5 178.5t-119.5 222.5zM319 481q-4 -86 42.5 -189.5t127.5 -195.5q45 -51 97.5 -79.5t97.5 -16.5q57 14 96 59t54 97 q33 98 24.5 264t-63.5 336q-15 43 -31 86q-10 14 -23 28q-37 41 -84 45q-49 6 -103 -19.5t-95 -68.5q-133 -150 -140 -346z" />
<glyph unicode="&#xf1;" horiz-adv-x="657" d="M35 82q10 84 42 336t50 391q4 29 57 41q55 10 56 -21q-15 -108 -31 -245q51 74 102 111.5t82 15.5q35 -25 48.5 -74t8 -118.5t-14.5 -132t-25.5 -151t-22.5 -135.5q-6 -41 -51 -75q-41 -33 -45 10q-12 94 6 215t43 232.5t25 168.5q0 8 -18.5 -15.5t-48.5 -77.5t-54 -116 q-59 -156 -78 -262q-4 -20 -14 -41q-2 -23 -7 -43q-2 -25 -59 -35q-55 -8 -51 21zM80 963q113 96 203 73q14 -4 32.5 -8t30.5 -8t26.5 -7t24 -4t20.5 -2t17 0t12.5 5t9.5 10t5 14q4 27 65 41q51 10 49 -12q0 -4 -2 -8q-61 -141 -249 -70q-43 16 -84 4t-68 -53 q-16 -27 -68 -16q-44 10 -24 41z" />
<glyph unicode="&#xf2;" horiz-adv-x="774" d="M2 276q10 188 68 293q22 39 51 68q14 61 61 88q90 53 195.5 29.5t154.5 -101.5q41 -66 35 -170q113 123 125 88q6 -16 -20 -75q-51 -111 -133 -168q-8 -25 -19 -52q-39 -92 -110.5 -161.5t-159.5 -89.5q-55 -12 -111.5 4t-91.5 57q-51 57 -45 190zM104 1032q-14 16 7 51 q18 32 34 9q59 -74 115.5 -114t130.5 -52q29 -4 39 -25q4 -8 -8 -10h-10q-184 18 -308 141zM119 143q8 -55 67.5 -62t118.5 42q64 53 107 168q-70 2 -135.5 34.5t-106.5 90.5q-10 14 -18 30q-51 -174 -33 -303zM217 541.5q6 -58.5 35 -109.5q27 -49 79 -73.5t99 -10.5 q39 133 23 234q-10 72 -66.5 112.5t-118.5 1.5q-18 -10 -28 -28q-1 -11 -13 -25q-16 -43 -10 -101.5z" />
<glyph unicode="&#xf3;" horiz-adv-x="774" d="M2 276q10 188 68 293q22 39 51 68q14 61 61 88q90 53 195.5 29.5t154.5 -101.5q41 -66 35 -170q113 123 125 88q6 -16 -20 -75q-51 -111 -133 -168q-8 -25 -19 -52q-39 -92 -110.5 -161.5t-159.5 -89.5q-55 -12 -111.5 4t-91.5 57q-51 57 -45 190zM119 143 q8 -55 67.5 -62t118.5 42q64 53 107 168q-70 2 -135.5 34.5t-106.5 90.5q-10 14 -18 30q-51 -174 -33 -303zM131 901q215 205 305 322q14 18 68 2q41 -14 24 -35q-45 -57 -96 -109.5t-127 -126t-98 -96.5q-18 -16 -62 6q-32 17 -14 37zM217 541.5q6 -58.5 35 -109.5 q27 -49 79 -73.5t99 -10.5q39 133 23 234q-10 72 -66.5 112.5t-118.5 1.5q-18 -10 -28 -28q-1 -11 -13 -25q-16 -43 -10 -101.5z" />
<glyph unicode="&#xf4;" horiz-adv-x="774" d="M2 276q10 188 68 293q22 39 51 68q14 61 61 88q90 53 195.5 29.5t154.5 -101.5q41 -66 35 -170q113 123 125 88q6 -16 -20 -75q-51 -111 -133 -168q-8 -25 -19 -52q-39 -92 -110.5 -161.5t-159.5 -89.5q-55 -12 -111.5 4t-91.5 57q-51 57 -45 190zM27 856q-18 18 8 25 q162 86 244 239q-2 27 -3 56q0 23 60 28q31 2 43 -6q43 0 41 -20q-2 -2 -2 -4q-14 -35 -35 -68q2 -57 16 -88q31 -68 144 -86q31 -6 43 -27q4 -8 -11 -8q-4 -2 -8 0q-141 12 -205 59q-29 23 -47 54q-18 -20 -36 -39q-92 -86 -209 -127q-23 -8 -43 12zM119 143 q8 -55 67.5 -62t118.5 42q64 53 107 168q-70 2 -135.5 34.5t-106.5 90.5q-10 14 -18 30q-51 -174 -33 -303zM217 541.5q6 -58.5 35 -109.5q27 -49 79 -73.5t99 -10.5q39 133 23 234q-10 72 -66.5 112.5t-118.5 1.5q-18 -10 -28 -28q-1 -11 -13 -25q-16 -43 -10 -101.5z" />
<glyph unicode="&#xf5;" horiz-adv-x="774" d="M2 276q10 188 68 293q22 39 51 68q14 61 61 88q90 53 195.5 29.5t154.5 -101.5q41 -66 35 -170q113 123 125 88q6 -16 -20 -75q-51 -111 -133 -168q-8 -25 -19 -52q-39 -92 -110.5 -161.5t-159.5 -89.5q-55 -12 -111.5 4t-91.5 57q-51 57 -45 190zM31 915 q14 23 32.5 39.5t34 26.5t43 15t45 7.5t53 0t52 -4.5t59.5 -8t60 -8q35 -4 63.5 17.5t38.5 54.5q27 68 6 125q-14 43 8 75q14 23 33 0q96 -117 68 -198q-18 -57 -75.5 -86t-113.5 -23q-41 4 -94 12.5t-86 12.5t-63.5 6t-45 -2t-14.5 -16q0 -31 -45 -60q-49 -29 -59 14z M119 143q8 -55 67.5 -62t118.5 42q64 53 107 168q-70 2 -135.5 34.5t-106.5 90.5q-10 14 -18 30q-51 -174 -33 -303zM217 541.5q6 -58.5 35 -109.5q27 -49 79 -73.5t99 -10.5q39 133 23 234q-10 72 -66.5 112.5t-118.5 1.5q-18 -10 -28 -28q-1 -11 -13 -25 q-16 -43 -10 -101.5z" />
<glyph unicode="&#xf6;" horiz-adv-x="774" d="M2 276q10 188 68 293q22 39 51 68q14 61 61 88q90 53 195.5 29.5t154.5 -101.5q41 -66 35 -170q113 123 125 88q6 -16 -20 -75q-51 -113 -133 -168q-8 -25 -19 -52q-39 -92 -110.5 -161.5t-159.5 -89.5q-55 -12 -111.5 4t-91.5 57q-51 57 -45 190zM63 864q0 117 19 201 q2 12 61 6q49 -6 45 -24q-16 -80 -16 -173q0 -6 -28.5 -15t-52 -10t-28.5 15zM119 143q8 -55 67.5 -62t118.5 42q64 53 107 168q-70 2 -135.5 34.5t-106.5 90.5q-10 14 -18 30q-51 -174 -33 -303zM217 541.5q6 -58.5 35 -109.5q27 -49 79 -73.5t99 -10.5q39 133 23 234 q-10 72 -66.5 112.5t-118.5 1.5q-18 -10 -28 -28q-1 -11 -13 -25q-16 -43 -10 -101.5zM313 915q16 49 27 121q0 4 28.5 9.5t55.5 3t25 -16.5q-10 -80 -33 -147q-6 -2 -31 -2t-50.5 10t-21.5 22z" />
<glyph unicode="&#xf7;" horiz-adv-x="1255" d="M131 537q-10 12 10 12q7 2 13 0q270 -4 946 10q53 0 71 -22q8 -10 -10 -13h-12q-758 -14 -948 -10q-49 0 -70 23zM512 926q-2 8 26.5 17t56.5 8t26 -15v-8q31 -14 57 -43q53 -57 0 -94q-45 -31 -101.5 23t-64.5 112zM543 195q-4 12 49 16h16q-16 14 8 18q43 4 85 -27.5 t49.5 -68.5t-21.5 -59q-43 -23 -104.5 19t-81.5 102zM623 834q6 20 0 43v2v-21v-24zM652 161.5q5 -14.5 12 -26.5l8 -14q6 12 2 38.5t-17 28.5h-4v-4q-6 -8 -1 -22.5z" />
<glyph unicode="&#xf8;" horiz-adv-x="1054" d="M119 119q0 4 2 8q43 55 100 125q-45 98 -24 225q23 137 80 258t149 199q58 47 109 53q94 45 202 -4q37 -16 64 -45q39 45 55 66q33 41 90 30q41 -10 21 -39q-23 -27 -113 -131q12 -23 20 -49q55 -162 33 -356q-20 -186 -104 -285q-51 -61 -131 -90t-164 -21 q-154 14 -236 109q-20 -27 -36 -49q-31 -41 -89 -37q-41 2 -28 33zM301 350q98 119 229 273q135 156 218 251q-8 14 -17 27q-45 74 -94 66q-29 -4 -53 -9q-7 -8 -21 -14q-184 -178 -246 -412q-27 -94 -16 -182zM326 242q16 -45 49 -82q45 -49 110 -62q66 -10 126.5 22 t99.5 87q63 90 86 246q23 150 0 270q-6 31 -15 59q-59 -70 -139 -159q-196 -227 -317 -381z" />
<glyph unicode="&#xf9;" horiz-adv-x="868" d="M61 299q0 39 4.5 79t13.5 95t11 74q4 43 57 67q49 23 56 -12q2 -4 2 -10q-4 -27 -17.5 -117t-15.5 -137q-6 -109 39 -186q23 -39 39 -25q80 68 129 289q6 37 24 121q2 18 15 90q8 39 63 57q49 16 51 -14v-6v-2q2 -4 0 -9q-4 -33 -15 -100.5t-17 -108.5t-12.5 -99 t-6.5 -107q0 -66 20.5 -115t45.5 -41q66 25 121 174q14 37 71 51q51 10 49 -22q0 -4 -2 -9q-41 -158 -139 -210q-45 -20 -95 -22.5t-98 26t-65 82.5q-2 6 -4 14q-27 -41 -57 -74q-33 -33 -103.5 -21.5t-124.5 62.5q-41 39 -39 166zM160 989q-12 14 28 45q37 29 45 4 q66 -143 189 -178q20 -6 29 -26q4 -8 -7 -11q-2 0 -8 2q-170 27 -276 164z" />
<glyph unicode="&#xfa;" horiz-adv-x="868" d="M61 299q0 39 4.5 79t13.5 95t11 74q4 43 57 67q49 23 56 -12q2 -4 2 -10q-4 -27 -17.5 -117t-15.5 -137q-6 -109 39 -186q23 -39 39 -25q80 68 129 289q6 37 24 121q2 18 15 90q8 39 63 57q49 16 51 -14v-6v-2q2 -4 0 -9q-4 -33 -15 -100.5t-17 -108.5t-12.5 -99 t-6.5 -107q0 -66 20.5 -115t45.5 -41q66 25 121 174q14 37 71 51q51 10 49 -22q0 -4 -2 -9q-41 -158 -139 -210q-45 -20 -95 -22.5t-98 26t-65 82.5q-2 6 -4 14q-27 -41 -57 -74q-33 -33 -103.5 -21.5t-124.5 62.5q-41 39 -39 166zM270 866q104 109 170 215q10 14 64 -4 q43 -14 31 -33q-74 -109 -197 -227q-12 -12 -53 14q-31 19 -15 35z" />
<glyph unicode="&#xfb;" horiz-adv-x="868" d="M61 299q0 39 4.5 79t13.5 95t11 74q4 43 57 67q49 23 56 -12q2 -4 2 -10q-4 -27 -17.5 -117t-15.5 -137q-6 -109 39 -186q23 -39 39 -25q80 68 129 289q6 37 24 121q2 18 15 90q8 39 63 57q49 16 51 -14v-6v-2q2 -4 0 -9q-4 -33 -15 -100.5t-17 -108.5t-12.5 -99 t-6.5 -107q0 -66 20.5 -115t45.5 -41q66 25 121 174q14 37 71 51q51 10 49 -22q0 -4 -2 -9q-41 -158 -139 -210q-45 -20 -95 -22.5t-98 26t-65 82.5q-2 6 -4 14q-27 -41 -57 -74q-33 -33 -103.5 -21.5t-124.5 62.5q-41 39 -39 166zM147 846q6 8 58.5 108.5t93.5 132.5 q20 12 36.5 6t29.5 -36q2 -2 2 -4q4 4 14 -4q4 -4 -4 -21q6 -16 10 -29q8 -29 14 -59q4 -31 64 -37q35 -4 53 -24q10 -12 -12 -13h-6q-86 12 -127 111q-6 12 -8 22q-10 -18 -25 -43q-51 -84 -104 -145q-20 -27 -70 -4q-37 19 -19 39z" />
<glyph unicode="&#xfc;" horiz-adv-x="868" d="M61 299q0 39 4.5 79t13.5 95t11 74q4 43 57 67q49 23 56 -12q2 -4 2 -10q-4 -27 -17.5 -117t-15.5 -137q-6 -109 39 -186q23 -39 39 -25q80 68 129 289q6 37 24 121q2 18 15 90q8 39 63 57q49 16 51 -14v-6v-2q2 -4 0 -9q-4 -33 -15 -100.5t-17 -108.5t-12.5 -99 t-6.5 -107q0 -66 20.5 -115t45.5 -41q66 25 121 174q14 37 71 51q51 10 49 -22q0 -4 -2 -9q-41 -158 -139 -210q-45 -20 -95 -22.5t-98 26t-65 82.5q-2 6 -4 14q-27 -41 -57 -74q-33 -33 -103.5 -21.5t-124.5 62.5q-41 39 -39 166zM162 874q20 74 59 166q6 2 30.5 1 t50.5 -11t20 -24q-35 -80 -50 -146q-2 -4 -30.5 -7t-55 1t-24.5 20zM379 840q23 66 63 172q6 4 32 4t51.5 -9.5t19.5 -23.5q-41 -104 -62 -168q-2 -4 -29.5 -5t-54 6.5t-20.5 23.5z" />
<glyph unicode="&#xfd;" horiz-adv-x="692" d="M54.5 340q-3.5 55 2.5 109q4 59 62 88q45 23 53 -11q2 -6 0 -16q-10 -233 14 -244q2 0 4 2q78 80 134 299q4 18 32.5 34.5t52 16.5t29.5 -16q12 -8 13 -29q4 -63 24.5 -235t26.5 -268q102 27 108 6q4 -10 -35 -31q-33 -18 -71 -22q8 -180 -21 -314q-14 -78 -101 -113.5 t-175 -7.5q-66 20 -109 93t-43 155q0 70 41 132.5t111 88.5q20 8 47 10.5t42 0.5t48 -7.5t41 -7.5q-4 104 -25 295q-29 -57 -67 -96q-41 -41 -105.5 -38t-109.5 48q-20 23 -23.5 78zM174 -100q-31 -133 0 -205q18 -39 59 -56.5t79 -10.5t46 34q41 121 29 369q-59 10 -86 6 q-43 -6 -80 -49t-47 -88zM178 733.5q-12 14.5 0 24.5q72 66 131 133q4 4 26.5 -3t40 -21.5t7.5 -24.5q-59 -63 -147 -135q-6 -4 -26 4t-32 22.5z" />
<glyph unicode="&#xfe;" horiz-adv-x="976" d="M82 1135q-4 59 76 92q68 29 96 0q10 -10 6 -29q8 -156 23 -436q49 41 98 69q100 55 186 39q113 -23 207 -113.5t119 -211.5q20 -106 -48.5 -213t-185.5 -156q-113 -49 -227 -49q-64 0 -121 16v-4q12 -258 15 -491q2 -59 -70 -101q-68 -39 -92 -6q-8 10 -8 27 q0 182 -8.5 399t-16.5 360.5t-25.5 419t-23.5 388.5zM291 606q8 -186 16 -354q23 -31 68 -47q78 -27 170 12q84 37 127 103.5t51 136.5q27 211 -76 313q-55 51 -138 21.5t-142 -115.5q-31 -45 -76 -70z" />
<glyph unicode="&#xff;" horiz-adv-x="692" d="M54.5 340q-3.5 55 2.5 109q4 59 62 88q45 23 53 -11q2 -6 0 -16q-10 -233 14 -244q2 0 4 2q78 80 134 299q4 18 32.5 34.5t52 16.5t29.5 -16q12 -8 13 -29q4 -63 24.5 -235t26.5 -268q102 27 108 6q4 -10 -35 -31q-33 -18 -71 -22q8 -180 -21 -314q-14 -78 -101 -113.5 t-175 -7.5q-66 20 -109 93t-43 155q0 70 41 132.5t111 88.5q20 8 47 10.5t42 0.5t48 -7.5t41 -7.5q-4 104 -25 295q-29 -57 -67 -96q-41 -41 -105.5 -38t-109.5 48q-20 23 -23.5 78zM74 958q0 8 26.5 16.5t54 8.5t27.5 -16q0 -63 17 -183q0 -6 -27 -18t-50.5 -14t-27.5 14 q-2 27 -10 91.5t-10 100.5zM174 -100q-31 -133 0 -205q18 -39 59 -56.5t79 -10.5t46 34q41 121 29 369q-59 10 -86 6q-43 -6 -80 -49t-47 -88zM274 834q6 20 29 143q2 12 64 10q49 -4 45 -22q-18 -111 -43 -170q-6 -4 -30 -1t-47.5 14t-17.5 26z" />
<glyph unicode="&#x152;" horiz-adv-x="1423" d="M-55.5 502.5q12.5 320.5 121.5 611.5q38 106 106 172q8 121 72 162q106 63 210.5 56t161.5 -62q84 -82 119 -254l4 4q90 152 197 211q72 43 78 -6q0 -23 -15 -62q-84 -201 -243 -319q2 -33 4 -72q2 -133 -10 -272q217 84 350 192q14 12 76 -20q66 -35 30 -58 q-172 -113 -465 -198q-16 -131 -45 -271q-37 -168 -86 -286q334 106 582 389q25 27 96 6q57 -16 55 -45q-2 -8 -10 -16q-303 -322 -710 -400q-23 -4 -41 2q-23 -45 -50 -82q-47 -66 -122.5 -93.5t-155.5 -20.5q-78 8 -148.5 49t-91.5 110q-82 252 -69.5 572.5zM158 803 q-96 -582 18 -897q25 -61 94.5 -49t108.5 77q61 98 108 267q70 250 86 452q11 160 13 285q-92 -14 -203 14q-94 23 -154 109q-51 -133 -71 -258zM343 1131q7 -78 40 -101q82 -54 201 12q-10 260 -80 371q-20 20 -51 9t-63 -55t-40 -95q-14 -63 -7 -141z" />
<glyph unicode="&#x153;" horiz-adv-x="1058" d="M6 336.5q14 132.5 78 255.5q10 20 22 35q16 57 62 88q47 31 106.5 41t100.5 -2q80 -20 133 -99q10 -14 18 -30q55 86 133 123q63 35 144.5 14t101.5 -86q18 -66 -164 -203q-109 -80 -182 -82h-6q0 -47 12 -92q10 -43 40 -79t70 -52t86 -7t81 40q53 49 112 45q41 0 17 -31 l-10 -10q-61 -55 -136 -71.5t-143 -2.5q-76 18 -141 70q-23 18 -41 41q-8 -16 -19 -35q-70 -125 -164 -160q-76 -31 -160.5 -18.5t-115.5 69.5q-49 106 -35 238.5zM115 334q-18 -119 6 -205q12 -43 56 -56.5t93 17.5q102 72 156 238q6 18 10 34q-59 -18 -139 0 q-100 23 -154 91q-18 -59 -28 -119zM197 588q-8 -63 26 -123q23 -39 64 -63.5t71 -10.5q55 29 95 45q14 94 -4 180q-10 47 -43 79t-78 26q-45 -8 -82 -41q-2 -4 -6 -8q0 -12 -13 -25q-16 -29 -30 -59zM559 424q9 8 21 16q193 156 221 248q4 14 -7.5 24.5t-36 9.5t-52.5 -17 q-55 -29 -91 -95q-39 -76 -53 -145q0 -20 -2 -41z" />
<glyph unicode="&#x2000;" horiz-adv-x="1029" />
<glyph unicode="&#x2001;" horiz-adv-x="2059" />
<glyph unicode="&#x2002;" horiz-adv-x="1029" />
<glyph unicode="&#x2003;" horiz-adv-x="2059" />
<glyph unicode="&#x2004;" horiz-adv-x="686" />
<glyph unicode="&#x2005;" horiz-adv-x="514" />
<glyph unicode="&#x2006;" horiz-adv-x="343" />
<glyph unicode="&#x2007;" horiz-adv-x="343" />
<glyph unicode="&#x2008;" horiz-adv-x="257" />
<glyph unicode="&#x2009;" horiz-adv-x="411" />
<glyph unicode="&#x200a;" horiz-adv-x="114" />
<glyph unicode="&#x2010;" horiz-adv-x="763" d="M160 582q-6 12 6 12q4 0 10 -2q238 -33 455 29q25 8 47 -17q14 -14 -8 -20q-231 -57 -477 -27q-25 4 -33 25z" />
<glyph unicode="&#x2011;" horiz-adv-x="763" d="M160 582q-6 12 6 12q4 0 10 -2q238 -33 455 29q25 8 47 -17q14 -14 -8 -20q-231 -57 -477 -27q-25 4 -33 25z" />
<glyph unicode="&#x2012;" horiz-adv-x="763" d="M160 582q-6 12 6 12q4 0 10 -2q238 -33 455 29q25 8 47 -17q14 -14 -8 -20q-231 -57 -477 -27q-25 4 -33 25z" />
<glyph unicode="&#x2013;" horiz-adv-x="1260" d="M162 582q-12 12 12 12q7 0 19 -2q464 -33 887 29q49 8 91 -17q28 -14 -15 -20q-450 -57 -930 -27q-49 4 -64 25z" />
<glyph unicode="&#x2014;" horiz-adv-x="2284" d="M166 582q-24 12 23 12q16 0 39 -2q928 -33 1774 29q97 8 183 -17q54 -14 -31 -20q-901 -57 -1860 -27q-97 4 -128 25z" />
<glyph unicode="&#x2018;" horiz-adv-x="425" d="M61 1159q18 94 66.5 178t120.5 140q37 27 76 6q31 -19 0 -35q-119 -119 -154 -264q-6 -20 -8 -39q2 2 16 -2q4 0 20.5 -3t23.5 -5t22.5 -5.5t25 -7.5t22.5 -10t21.5 -12t16.5 -15.5t11 -19.5t3 -25q0 -51 -57.5 -90t-108.5 -26q-72 18 -100.5 92t-16.5 143zM160 1141 q-20 -106 2 -170q8 -18 45 14q20 20 31 43q27 68 -17 82q-55 19 -61 31z" />
<glyph unicode="&#x2019;" horiz-adv-x="512" d="M100 1460q-4 49 54.5 78t117.5 27q55 0 105.5 -28t52.5 -73q14 -199 -162 -465q-25 -37 -75 -20q-37 14 -21 37q78 127 121 246q-70 18 -129 73t-64 125zM204 1418q17 -58 60 -101l25 -25l10 -10q20 59 33 117q16 88 -8 119q-12 18 -56.5 13t-62.5 -32q-18 -23 -1 -81z " />
<glyph unicode="&#x201c;" horiz-adv-x="690" d="M59 1128v2q-4 49 9 107q23 106 92 201q41 53 102 45q39 -4 27 -31q-2 -8 -10 -14q-119 -172 -117 -295q27 -8 49 -29q31 -27 55.5 -59.5t29.5 -62t-5 -44.5q-39 -37 -114 2t-99 105q-14 35 -19 73zM162 1116q6 -49 22 -86q15 -39 27 -47q-8 8 -20.5 58.5t-28.5 74.5z M358 1047q-27 119 33 260q37 88 119 190q20 27 72 12q42 -14 22 -39q-66 -92 -94 -155q-43 -94 -51 -182v-17q6 -2 16 -4q45 -10 68.5 -52t14.5 -81t-44 -49q-55 -16 -99 24.5t-57 92.5zM459 1090q2 -20 9 -54.5t9 -42.5l8 19q6 25 2 41q-2 6 -7 13t-9 12t-10 14l-2 2v-4z " />
<glyph unicode="&#x201d;" horiz-adv-x="724" d="M74 1012q111 145 147 305q14 59 12 117.5t-22 64.5q-14 4 -28.5 -20.5t-20.5 -62.5t0 -70q2 -10 14 -33q14 -33 4 -33q-4 -2 -20 4q-49 23 -71.5 78t-6.5 109.5t65 70.5q68 23 133.5 -43.5t57.5 -144.5q-10 -109 -61.5 -210.5t-124.5 -166.5q-31 -27 -72 0q-31 21 -6 35z M344 965l4 4q139 201 178 334q10 35 10.5 83t-7 82.5t-15.5 34.5q-23 0 -43 -65.5t-12 -122.5q18 -129 -23 -101q-4 4 -12 13q-59 66 -62.5 161t56.5 132q61 39 145 -12.5t82 -137.5q-4 -111 -57 -212t-142 -210q-29 -37 -79 -20q-39 12 -23 37z" />
<glyph unicode="&#x202f;" horiz-adv-x="411" />
<glyph unicode="&#x205f;" horiz-adv-x="514" />
<glyph unicode="&#x20ac;" horiz-adv-x="1495" d="M121 821q-18 25 20 25q119 0 226 4q10 88 30 178q47 211 178 354q78 82 196 110t237 11q119 -18 224 -79.5t154 -168.5q59 -131 -4 -227q-37 -55 -71 -45q-27 10 -23 61q-16 123 -45 208t-88 132q-74 59 -180.5 63.5t-192.5 -48.5q-139 -80 -213 -299q-33 -98 -45 -242 q315 20 500 78q16 6 66 -27q51 -33 10 -43q-125 -31 -301 -47q-160 -16 -281 -20q-2 -35 -2 -72q-2 -90 4 -166q90 12 201 37q139 29 229 74q14 6 76 -27q59 -31 23 -45q-66 -25 -139.5 -44t-176 -32.5t-151.5 -19.5q-18 -2 -54 -4q12 -78 35 -142q82 -229 213 -307 q92 -53 193.5 -37.5t163.5 84.5q72 80 108.5 180.5t22.5 178.5q-4 18 -12.5 40.5t-14.5 35t-18 32.5q-8 14 -11.5 21.5t-6.5 16.5t-1 10t8 2t17.5 -3t29.5 -12q82 -37 116 -129t12.5 -199.5t-91.5 -191.5q-74 -86 -197.5 -116t-248.5 -3q-209 49 -342 240q-94 137 -127 286 q-111 -8 -127 -10q-31 -2 -51 25q-18 25 18 28q82 6 150 13q-4 31 -7 61q-6 96 2 191h-194q-29 0 -47 26z" />
<glyph unicode="&#x25fc;" horiz-adv-x="604" d="M0 0v604h604v-604h-604z" />
</font>
</defs>
</svg>
